<?xml version="1.0" encoding="UTF-8"?><svg xmlns="http://www.w3.org/2000/svg" xmlns:xlink="http://www.w3.org/1999/xlink" height="16.4" preserveAspectRatio="xMidYMid meet" version="1.0" viewBox="5.7 55.2 116.6 16.4" width="116.6" zoomAndPan="magnify"><g><g fill="#ddae48" id="change1_1"><path d="M105.68 63.75H122.29V64.25H105.68z" fill="inherit"/><path d="M65.55,62.9c0.09-0.07,0.09-0.2-0.01-0.26c-0.38-0.22-1.14-0.7-1.4-1.14c-0.05-0.08-0.14-0.07-0.19,0 c-0.27,0.43-1.04,0.9-1.41,1.12c-0.1,0.06-0.1,0.19-0.01,0.25c0.65,0.49,1.08,2.04,1.31,2.58c0.07,0.17,0.31,0.17,0.38,0 C64.44,64.93,64.89,63.39,65.55,62.9z" fill="inherit"/><path d="M76.35,64.28c0.31-0.15,0.58-0.33,0.83-0.53c2.09-0.38,2.49-2.34,2.49-2.34c-1.52,0.1-2.35,1.21-2.73,1.89 c-2.3,2.08-8.74,0.94-8.8,0.93l0,0.03c-0.01,0-0.02-0.01-0.03-0.01c0.63-0.46,1.95-1.26,3.95-1.53c2.52-0.35,3.44-1.65,3.73-2.18 c0.35-0.41,0.86-1.2,0.57-2.19c0,0-1.04,0.62-0.96,1.89c-0.17,0.36-0.96,1.65-3.4,1.99c-0.41,0.06-0.78,0.14-1.14,0.23 c0.28-0.28,0.55-0.59,0.71-0.93l0,0c0.33-0.44,0.71-1.17,0.45-2.05c0,0-1.07,0.64-0.96,1.94c-0.44,0.77-1.54,1.49-1.55,1.49l0,0 c-1.08,0.46-1.77,0.98-2.03,1.21c-0.84-0.15-1.55-0.18-2.08-0.18c-0.08,0.16-0.16,0.33-0.23,0.5c1.66-0.05,6.1,0.26,9.45,4.64 c0.39,2.09,2.32,2.49,2.32,2.49c-0.1-1.53-1.22-2.37-1.89-2.75l0,0c-1.48-1.94-3.16-3.11-4.75-3.82c0.52,0.04,1.09,0.07,1.68,0.07 c1.43,0,2.98-0.16,4.19-0.69c0.35,0.53,3.14,4.53,7.29,3.76C83.45,68.13,81.31,63.43,76.35,64.28z" fill="inherit"/><path d="M102.42,62.91c-0.82-0.05-1.53,0.23-1.8,0.66c-0.29-0.16-0.88-0.39-1.86-0.43c0.33-0.18,0.65-0.49,0.91-0.9 c0.39-0.63,0.47-1.89,0.49-2.53c0-0.19-0.19-0.31-0.35-0.22c-0.57,0.29-1.66,0.92-2.05,1.55c-0.53,0.84-0.55,1.78-0.07,2.14 c-1.09,0.12-2.49,0.46-4.27,1.26c-4.06,1.81-8.99-0.72-10.79-1.8c1.13-0.11,2.13-0.63,2.67-0.95c-0.11-0.12-0.22-0.25-0.33-0.38 c-0.88,0.53-2.95,1.49-4.62,0.26c-0.01,0.02-0.03,0.04-0.03,0.07c-0.08,0.28-0.04,0.48-0.04,0.5c0.46,0.28,0.93,0.44,1.4,0.5 c0.53,0.37,6.77,4.59,11.95,2.27c4.96-2.22,6.84-0.85,6.89-0.81c0.1,0.55,0.83,1.02,1.77,1.08c0.74,0.05,1.89-0.47,2.46-0.76 c0.17-0.08,0.18-0.31,0.03-0.41C104.23,63.62,103.17,62.96,102.42,62.91z" fill="inherit"/><path d="M93.31,65.9c2,2.55,5.43,1.62,5.43,1.62C96.46,64.53,93.31,65.9,93.31,65.9z" fill="inherit"/><path d="M90.59,62.3c-3.25-1.9-5.63,0.59-5.63,0.59C87.78,64.48,90.59,62.3,90.59,62.3z" fill="inherit"/><path d="M77.52,60.53c0,0,1.33,0.25,1.58-2.54c0.25-2.79-3.26-2.5-2.3-0.57C77.54,58.94,77.52,60.53,77.52,60.53z" fill="inherit"/><path d="M81.11,60.68c1.09,0.4,1.04-1.5-0.44-1.2c-1.48,0.3-1.27,0.99-1.27,0.99S80.25,60.37,81.11,60.68z" fill="inherit"/><path d="M5.71 63.75H22.32V64.25H5.71z" fill="inherit"/><path d="M60.54,64.12c-0.26-0.23-0.95-0.75-2.03-1.21l0,0c-0.01-0.01-1.11-0.73-1.55-1.49 c0.11-1.3-0.96-1.94-0.96-1.94c-0.26,0.88,0.11,1.61,0.45,2.05l0,0c0.16,0.33,0.43,0.65,0.71,0.93c-0.35-0.09-0.73-0.17-1.14-0.23 c-2.44-0.34-3.22-1.63-3.4-1.99c0.07-1.26-0.96-1.89-0.96-1.89c-0.29,0.99,0.22,1.79,0.57,2.19c0.28,0.53,1.21,1.83,3.73,2.18 c2,0.28,3.32,1.07,3.95,1.53c-0.01,0-0.02,0.01-0.03,0.01l0-0.03c-0.06,0.01-6.5,1.15-8.8-0.93c-0.38-0.68-1.21-1.79-2.73-1.89 c0,0,0.4,1.96,2.49,2.34c0.25,0.2,0.52,0.38,0.83,0.53c-4.96-0.85-7.1,3.85-7.1,3.85c4.15,0.77,6.94-3.23,7.29-3.76 c1.21,0.53,2.76,0.69,4.19,0.69c0.6,0,1.17-0.03,1.68-0.07c-1.59,0.71-3.27,1.88-4.75,3.82l0,0c-0.68,0.37-1.8,1.21-1.89,2.75 c0,0,1.94-0.4,2.32-2.49c3.36-4.37,7.79-4.69,9.45-4.64c-0.07-0.17-0.15-0.34-0.23-0.5C62.09,63.94,61.37,63.97,60.54,64.12z" fill="inherit"/><path d="M47.73,62.12c0-0.02,0.04-0.22-0.04-0.5c-0.01-0.02-0.02-0.04-0.03-0.07c-1.67,1.23-3.74,0.26-4.62-0.26 c-0.11,0.14-0.22,0.26-0.33,0.38c0.53,0.32,1.53,0.84,2.67,0.95c-1.8,1.08-6.73,3.62-10.79,1.8c-1.78-0.79-3.18-1.14-4.27-1.26 c0.48-0.36,0.46-1.29-0.07-2.14c-0.39-0.63-1.49-1.26-2.05-1.55c-0.16-0.09-0.36,0.03-0.35,0.22c0.01,0.64,0.09,1.9,0.49,2.53 c0.25,0.41,0.58,0.72,0.91,0.9c-0.98,0.03-1.57,0.27-1.86,0.43c-0.28-0.43-0.98-0.71-1.8-0.66c-0.74,0.05-1.81,0.72-2.34,1.08 c-0.15,0.1-0.14,0.33,0.03,0.41c0.57,0.29,1.71,0.81,2.46,0.76c0.93-0.06,1.67-0.53,1.77-1.08c0.04-0.03,1.93-1.4,6.89,0.81 c5.19,2.32,11.42-1.9,11.95-2.27C46.8,62.56,47.27,62.41,47.73,62.12z" fill="inherit"/><path d="M29.27,67.53c0,0,3.43,0.93,5.43-1.62C34.69,65.9,31.54,64.53,29.27,67.53z" fill="inherit"/><path d="M43.04,62.88c0,0-2.39-2.48-5.63-0.59C37.41,62.3,40.22,64.48,43.04,62.88z" fill="inherit"/><path d="M50.48,60.53c0,0-0.02-1.6,0.72-3.11c0.95-1.93-2.55-2.22-2.3,0.57C49.15,60.79,50.48,60.53,50.48,60.53z" fill="inherit"/><path d="M46.89,60.68c0.86-0.31,1.71-0.2,1.71-0.2s0.21-0.7-1.27-0.99C45.85,59.18,45.8,61.07,46.89,60.68z" fill="inherit"/></g></g></svg>