<?xml version="1.0" encoding="UTF-8"?><svg xmlns="http://www.w3.org/2000/svg" xmlns:xlink="http://www.w3.org/1999/xlink" data-name="Layer 1" height="530.4" preserveAspectRatio="xMidYMid meet" version="1.0" viewBox="-0.1 -0.2 406.5 530.4" width="406.5" zoomAndPan="magnify"><g id="change1_1"><path d="M27.74,471.285a11.415,11.415,0,0,0-.451,1.2q-.338,1.582-.674,3.162a44.168,44.168,0,0,1-2.682,7.821c-2.689,6.5-8.9,11.634-9.156,18.964-.05,1.429-.362,5.169,1.243,5.954,3.524,1.723,7.535,1.443,11.232,1.438,2.112,0,4.155,1,6.259.761,6.17-.694,9.911-5.646,13.319-10.164,1.366-1.808,4.122-3.338,4.777-5.562,1.722-5.84-.262-12.865.15-18.912.064-.95,3.134-1.471,3.973-2.643,2.452-3.418,2.644-7.753,2.916-11.738.639-.32.483-1.822.55-2.357.345-2.764.284-5.5.383-8.286.389-10.825,1.961-21.65,3.154-32.421,2.394-21.624.933-43.627,3-65.281,1.415-14.84,2.719-30.076,5.76-44.692,1.5-7.18,4.32-13.924,6.06-20.98l.018-.228c.014-.173.2-.662.157-.494q-.085.363-.175.722c-.029.418-.044.836-.053,1.255-.037,1.546.243,3.073.264,4.616.06,4.493.421,9.013.761,13.491.551,7.275.572,14.55,1.028,21.827.4,6.3,1.349,12.634,1.231,18.958-.159,8.591,1.7,17.093,1.549,25.678-.36,20.332-2.986,40.554-3.511,60.888-.2,7.967.133,15.962-.376,23.918-.263,4.117-1.683,9.237-.825,13.3.043.018.288,1.387.325,1.528.587,2.234-.43,4.292-.749,6.55-.306,2.168.2,4.243.427,6.389a69.8,69.8,0,0,1,.325,7.4c0,2.723-.954,5.327.74,7.775-.111-.05.155.236.162.242a6.729,6.729,0,0,0,.637.477,14.475,14.475,0,0,0,1.963,1.111,18.748,18.748,0,0,0,6.773,1.313,35.535,35.535,0,0,0,7.548-.891c.963-.172,1.941-.283,2.912-.4,4.386-.522,11.449-.655,12.043-6.349.043.126-.011-.268.018-.4a1.555,1.555,0,0,0,.087-.7c-.006-.025-.161-.479-.058-.456,2.011.439,3.872,2.412,5.646,3.412a7.947,7.947,0,0,0,1.9.436s.294.5.312.521a5.668,5.668,0,0,0,1.011.977,13.8,13.8,0,0,0,5.013,2.564,18.3,18.3,0,0,1,2.683.7c4.552,2.022,8.138,5.635,12.724,7.641,4.655,2.037,9.687,2.083,14.669,2.51.449.039,1.2.2,1.584.211,1.284.039,2.566.288,3.85.387a55.087,55.087,0,0,1,7.378.806,49.358,49.358,0,0,1,5.338,1.844c3.7,1.267,7.135,3.275,10.733,4.789a100.328,100.328,0,0,0,14.665,4.982c12.652,3.14,25.889,2.338,38.748,1.427.155.36,2.507-.357,2.742-.392,2.982-.426,6.04-.272,9.031-.684,6.079-.838,12.125-2.274,18.22-2.928,6-.643,12.03-.99,18.05-1.4,9.733-.661,19.55.587,29.232,1.467,17.438,1.585,34.834,3.692,52.36,2.4,4.217-.311,8.291-1.22,12.431-1.811,3.593-.513,7.015-1.924,10.622-2.345,4.447-.516,9.512-.979,12.75-4.4,3.852-4.076,3.938-11,2.494-16.027-2.54-8.824-7.109-16.583-15.084-21.462a63.155,63.155,0,0,0-25.441-9.138c-7.519-.945-14.779-.208-22.182-2.283-7.014-1.965-14.085-5.348-20.653-8.5-2.954-1.417-5.843-3.286-8.976-4.286-4.714-1.506-10.318-1.094-15.177-1.489-3.522-.287-6.737-1.134-10.311-.543-.4.066.221-.81.171-1.216a14.739,14.739,0,0,0-.583-2.583c-.907-2.89-1.5-5.859-2.458-8.74-2.733-8.2-6.845-16.211-10.993-23.786-6.678-12.195-12.741-24.709-19.227-37.011-3.595-6.818-7.388-13.677-10.006-20.949-3.948-10.965-7.568-22.775-9.069-34.351-.7-5.376-.442-10.788-1.039-16.161-.56-5.048-1.856-10.086-2.153-15.149-.025-.423,1.271.237,1.534.3a2.792,2.792,0,0,0,2.374-.706,11.948,11.948,0,0,0,3.808-5.6c.2-.727.425-1.463.663-2.175.127-.38.274-1.171.274-1.171s.156,1.424.713,1.61c.762.255,1.734-.448,2.147-1,2.332-3.1,2.448-8.767,2.492-12.444.072-5.837.8-12.265-1.788-17.708-1.037-2.182-2.727-3.285-4.16-5.053-.178.442-.225-1.593-.234-1.807-.057-1.254-.109-2.506-.191-3.759-.24-3.705-.608-7.472-.655-11.178-.135-11-1.706-21.792-3.087-32.652-1.8-14.133-6.5-27.909-8.849-41.96-1.026-6.136-.924-12.757-1.119-18.964-.261-8.348-.956-16.728-1.005-25.069-.037-6.332.263-13.309-3.15-18.973-.31.081-1.31-1.6-1.469-1.831a15.375,15.375,0,0,0-5.2-4.567,106.242,106.242,0,0,0-11.143-5.124c-2.938-1.16-6.5-2.284-8.772-4.554-1.6-1.6-2.105-4.126-2.828-6.179a6.561,6.561,0,0,1,.139-2.307c.189-.38.563.64.9.9a6.79,6.79,0,0,0,2.219,1.116,21.316,21.316,0,0,0,8.567.442c7.626-1,11.715-9.833,10.258-16.826-.516-2.476-2.5-4.265-3.5-6.466-.045.023.324-.3.4-.383a8.516,8.516,0,0,0,.794-.925c.4-.578-.025-1.624.278-2.029.328-.435,1.108-.17,1.279-.969a3.216,3.216,0,0,0-1.587-2.88c-.358-.108-1.152.145-1.425-.06-.618-.463.6-1.732-.779-1.939a4.873,4.873,0,0,0-.734-.03c-.112-.119.233-1.2.257-1.363a24.864,24.864,0,0,0,.373-4.372c-.12-3.925-1.917-7.961-3.726-11.336a21.436,21.436,0,0,0-4.177-5.183,29.645,29.645,0,0,0-7.24-5.246c-2.61-1.3-5.624-1.506-8.47-1.587a53.869,53.869,0,0,0-9.7.4c-5.309.8-10.291,2.771-15.433,4.21l-4.8,1.862c.41.042-.821.1-1.214.223a17.588,17.588,0,0,0-2.388.833,16.987,16.987,0,0,0-5.808,4.47,22.678,22.678,0,0,0-1.95,2.893c-2.229,3.789-4.553,13.716,2.52,13.716.66,0,.031,1.321.109,1.977.058.495.713,3.143.372,3.484-1.181,1.181-5.273,3.326-4.142,5.588.7,1.391,2.784,2.2,3.047,3.769.732,4.4.519,9.056,1.818,13.388.868,2.894,1.573,5.453,5.149,5.851a9.558,9.558,0,0,0,4.953-.592c1-.5,2.764-1.819,3.9-1.819-.361.22.459,1.01.547,1.138a17.76,17.76,0,0,1,2,3.6c1.011,2.652.8,6.388.452,9.169a9,9,0,0,1-.309,2.621c-.179.356-1.1.456-1.43.619a36.694,36.694,0,0,1-4.763,1.954c-4.233,1.409-8.251,3.132-12.41,4.692-2.916,1.094-6.871,2.307-7.479,5.954-.048.034-1.263-3.414-1.343-3.7-.695-2.52-1.065-6.409-3.488-7.9-1.59-.978-3.441-1.393-5.084-2.318-1.467-.825-3-2.388-4.609-2.89-3.7-1.156-7.387-1.577-11.015-3.19-2.411-1.071-3.16-2.821-5.133-4.136-1.865-1.244-4.926-1.688-7.078-2.343a21.662,21.662,0,0,1-5.257-2.043c-1.737-1.085-1.534-4-4.361-2.592-.142.072.311-1.245.393-1.509.332-1.068,1.3-2.7,2.6-2.762,4.292-.2,8.761,1.594,12.429-1.493,2.976-2.5,3.652-8.721,3.5-12.341-.073-1.745-.447-5.092.453-6.69a5.535,5.535,0,0,1,1.134-1.029c.8-.581,2.981-1.828,3.115-2.967.367-3.1-4.133-4.979-4.895-7.7-.094.013.11-.338.152-.582a11.6,11.6,0,0,0,.077-1.593c.047-1.572.1-3.169.114-4.732.036-4.437-1.19-7.624-3.252-11.4.737-.412,1.254-2.2,1.473-2.963A10.026,10.026,0,0,0,106.279,3.48c-1.289-1.29-2.983-1.692-4.643-2.232a9.963,9.963,0,0,0-1.607-.391,5.779,5.779,0,0,1-.725-.2,6.227,6.227,0,0,1,.839.6A9.952,9.952,0,0,1,101.1,2.5c.116.074.183.151.178.233-.062-.076-.121-.154-.178-.233a10.7,10.7,0,0,0-2.649-.658A90.524,90.524,0,0,0,89.132.26c-6.062-.472-12.438-.5-18.181,1.678C68.974,2.69,67.687,4.49,65.8,5.29c-2.724,1.152-6.32,1.554-8.428,3.745a13.528,13.528,0,0,0-1.727,2.722c-1.238,3.179-2.434,6.178-2.722,9.627a64.024,64.024,0,0,0,3.091,24.942c1.474,4.542,3.811,8.811,4.878,13.446,0,0-.009.467,0,.519.033.312.137.608.164.923a13.025,13.025,0,0,1-.346,4.571c-1.279.747-2.331,2.017-3.6,2.836-2.349,1.516-4.68,3.237-7.13,4.591-2.045,1.129-4.3,1.872-6.368,2.957-1.965,1.033-3.689,2.486-5.76,3.347-9.464,3.932-21.5,3.934-26.8,14.156C9.839,96,9.7,99.068,9.338,101.708c-1.01,7.468-1.668,14.983-2.8,22.448-.835,5.521-2.6,10.85-3.5,16.359-1.485,9.06-1.751,18.276-1.9,27.432C1,176.111.245,184.136.981,192.3c.032.357,0,2.638.007,3.106.066,3.369-.313,6.7-.331,10.068-.041,8.209.467,16.392.624,24.6.1,5.028-.592,10.048-.387,15.067-.34.254.43.866.591.975.378.26,2.7,1.54,2.719,2.049a89.147,89.147,0,0,1-.743,10.085,48.649,48.649,0,0,0-.24,7.621c.156,2.075-.1,4.1-.06,6.168.044,2.615-.279,5.365.387,7.927.486,1.876,1.677,3.744,2.426,5.553.791,1.909,1.111,3.5,2.687,4.937.687.625,1.512.424,2.221.84,1.144.673,2.421,1.711,3.969,1.148,1.6-.581,1.338-3.45.979-4.7-.411-1.431-1.668-2.375-2.147-3.72a31.438,31.438,0,0,1-1.236-11.956c.068-1.12-.558-4.883.727-5.442,1.5-.653,2.4,2.006,2.57,2.947.685,3.823.435,7.5.631,11.35.05.988,1.245,4.343,2.749,2.616.883-1.013.918-2.62,1.275-3.856a24.4,24.4,0,0,0,.962-9.39c-.211-1.652-.8-3.342-.858-5-.075-2.148.5-4.19.125-6.37-.4-2.321-1.374-4.172-1.344-6.575,0-.225-.075-1.893.128-2.025a7.1,7.1,0,0,1,2.218-.068c.548.006.1,1.795.119,2.186.119,2.506.082,5.013.192,7.518.1,2.194.7,4.393.694,6.587-.022,4.859-.6,9.72-.554,14.579.031,3.554.94,7.56.2,11.041-.124.579.516,1.827.645,2.359a23.719,23.719,0,0,1,.228,6.272c-.264,9.582-.515,19.113-.454,28.691.1,16.126-1.006,32.2-1.281,48.322-.3,17.48-.013,35.053.667,52.518.395,10.149,1.014,20.424,2.146,30.5C24.617,464.256,23.935,469.886,27.74,471.285Zm70.165.313c.158,0-.119.305-.114.464.011.379.028.757.05,1.136.056,1.027.172,2.069.3,3.091.213,1.7,2.272,3.181,3.428,4.271.331.313,1,1.248,1.522,1.192.346-.037.886-2.123.979-2.386.82-2.314,2.126-4.288,2.418-6.776.024-.21.571-2.4.5-2.451a7.67,7.67,0,0,0-1.8.39,16.069,16.069,0,0,1-5.289.489Zm-70.165-.313h0Zm104.745-208.2a101.879,101.879,0,0,0,1-15.751c-.063-1.974.024-3.952-.091-5.924-.065-1.151-.562-2.442-.357-3.588a12.936,12.936,0,0,1,1.611-3.348c1.165-2.331,2.185-4.748,3.364-7.08,1.12-2.216,2.827-5.938,4.613-7.6.339-.317,1.227-.045,1.619-.017,1.33.1,1.5-.216,2.7.229,1.148.427,2.375-.354,2.685.695-.107.014-.064.924-.06,1.028a19.5,19.5,0,0,1-.251,3.775,148.192,148.192,0,0,0-1.38,16.634c-.2,5.421-1.036,10.8-1.457,16.217-.562,7.222-.65,14.572-1.642,21.751-1.636,11.836-3.881,23.591-6.249,35.29-.8.181-.706,1.741-.74,2.239-.149,2.141-.553,4.23-.9,6.345q-2.474,14.916-4.9,29.858c-1.73,10.7-3.437,21.566-4.2,32.393-.706,9.953-.813,20.02-2.8,29.837-1.518,7.5-2.973,15.565-5.283,22.843-3.37,10.616-8.233,20.969-12.925,31.045-.241-.151.055-.888.093-1.068.251-1.171.533-2.337.87-3.486,1.328-4.52,1.256-9.243,1.991-13.873a7.245,7.245,0,0,0,.22-1.382c.174-1.379.327-2.759.5-4.138.745-5.791,1.365-11.649,2.231-17.407,3.755-24.962,8.187-49.818,11.711-74.831.239-1.7.318-4.489.418-6.179.326-5.515,1.161-10.971,1.669-16.441,1.018-10.951,2.8-21.771,3.61-32.734.617-8.395.686-16.895,1.694-25.259Z" fill="#e38f5e" fill-rule="evenodd"/></g><g id="change2_1"><path d="M209.111,40.573c-.1.381-.249.936-.17,1.019a4.873,4.873,0,0,1,.734.03c1.38.207.161,1.476.779,1.939.273.2,1.067-.048,1.425.06a3.216,3.216,0,0,1,1.587,2.88c-.171.8-.951.534-1.279.969-.3.405.125,1.451-.278,2.029a8.516,8.516,0,0,1-.794.925c-.074.078-.443.406-.4.383a10.727,10.727,0,0,0,.593,1.107c-1.443,1.247-3.466.413-5.128-.459a6.836,6.836,0,0,1-.656.485c-2.081,1.456-3.886.44-5.684-.828a1.983,1.983,0,0,1-.488.318c-.369.166-.969,0-1.269.233-.544.423-.914,1.243-1.693,1.3-1.022.074-1.426-.581-2.319-.773-.77-.165-2.31.324-2.67-.758-.323-.968.537-1.358.744-2.116.232-.851-1-1.351-.525-2.174,1.346-2.357,3.587.169,5.062-.015.73-.091,1.425-1.149,2.32-1.3a1.022,1.022,0,0,1,.934.464,2.059,2.059,0,0,1,.584-.522c1.2-.741,1.455.244,2.436.408.744.124,1.654-1.116,2.511-.8a2.808,2.808,0,0,1,.2-.511c.675-1.291,1.476-.637,2.391-1.094.243-.122.027-1.429.077-1.68A2.9,2.9,0,0,1,209.111,40.573Z" fill="#c2ca74" fill-rule="evenodd"/></g><g id="change3_1"><path d="M59.042,67.052c.02.563.051,1.132.082,1.724a100.535,100.535,0,0,0,3.331,18.873c3.22,12.879,5.922,25.957,8.463,39.024,1.583,8.144,2.425,16.374,4.377,24.465,1.254,5.2,3.016,10.64,3.771,15.92.195,1.371.681,2.727.8,4.105.047.548-.163,1.543.138,2.1-.038.194-.014.291.135.183a.81.81,0,0,1-.135-.183,12.2,12.2,0,0,1,.461-1.34c.317-.87.719-1.711.985-2.6.858-2.859,1.644-5.611,2.366-8.5.923-3.687,2.71-7.024,3.771-10.661,1.425-4.884,1.727-9.952,3.017-14.852-.323.42.339-1.013.375-1.541a16.5,16.5,0,0,1,.607-3.246,59.338,59.338,0,0,0,1.508-9.7C93.925,110.8,95.5,101.044,95.5,90.974a3.643,3.643,0,0,0-.08-.637c-.044-.325-.107-.649-.171-.972-1.778,2.311-5.284,3.44-7.866,1.826a20.519,20.519,0,0,1-2.974-2.318c-.254-.235-.5-.971-.955-.905-.332.047-.9.634-1.228.806a8.2,8.2,0,0,1-2.28.657c-.811.134-1.715-.743-2.306-.595-.348.087-1.29,1.615-1.574,1.883a11.65,11.65,0,0,1-3.78,1.984c-1.557.613-3.844,1.6-5.231.136-1.534-1.625.042-4.227-.334-6.111-.2-1-1.058-1.865-1.425-2.8a9.154,9.154,0,0,1-.286-3.88c.426-4.834,5.825-4.388,8.961-2.888l2.247,1.181c-.024.247.457-.193.691-.277a8.141,8.141,0,0,1,1.265-.2,7.309,7.309,0,0,1,4.114.259c1.073.489.7,1.37,1.365,2.034.152.152.627-.254.719-.323a10.2,10.2,0,0,1,2.044-1.4c2.082-.868,5.51-3.417,7.749-1.843-.013-.908-.019-1.812-.019-2.7a11.491,11.491,0,0,0-.068-2.316l-.006-.009.006.007v0c.6.682.969,1.818,1.916,2.409a21.662,21.662,0,0,0,5.257,2.043c2.152.655,5.213,1.1,7.078,2.343,1.973,1.315,2.722,3.065,5.133,4.136,3.628,1.613,7.312,2.034,11.015,3.19,1.606.5,3.142,2.065,4.609,2.89,1.643.925,3.494,1.34,5.084,2.318,2.423,1.491,2.793,5.38,3.488,7.9.08.29,1.295,3.738,1.343,3.7a5.2,5.2,0,0,1,.268-1c.372,4.022,1.66,7.926,2.472,11.884.243,1.187,1.139,4.112.417,5.23-3.858,5.965-6.553,12.244-6.048,19.5a22.512,22.512,0,0,0,1.923,6.784c1.285,3.259,2.549,6.5,3.933,9.724.755,1.761,1.045,3.7,1.737,5.5,1.164,3.035,1.348,6.465,2.19,9.615a23.127,23.127,0,0,1,.406,2.9,2.831,2.831,0,0,1-.027.886,4.338,4.338,0,0,0-.073.5c.5,4.2,1.045,8.244,1.17,12.464.041,1.441.095,2.8.029,4.246a10.744,10.744,0,0,0,.094,1.488c.017.168-.039.557-.035.7l.047.016c-.034.063-.046.045-.047-.016-1.954-.693-4.218-.865-6.058-1.787-2.034-1.021-3.574-3.277-5.03-4.944-1.357-1.552-2.973-2.845-4.295-4.434a64.751,64.751,0,0,0-4.505-4.735c-.52-.51-1.021-1.035-1.492-1.588-.079-.092-.519-.529-.617-.664l0-.034c-.025-.012-.022,0,0,.034.054,1.322-.221,2.6-.24,3.914-.039,2.605.085,5.227-.08,7.831-.266,4.168-.762,8.351-.672,12.525a12.17,12.17,0,0,0-.056,2.371,15.271,15.271,0,0,0,1.449,2.727,9.91,9.91,0,0,0,.911,1.482c.994,1.773,2.479,3.217,3.574,4.927,1.541,2.406,3.269,5.445,5.546,7.238a4.655,4.655,0,0,0,1.58.981c1.633.468,2.415-.364,3.615,1.03.086.1.526.433.867.7a40.214,40.214,0,0,0-3.94,6.879c-1.179,2.332-2.2,4.749-3.364,7.08a12.936,12.936,0,0,0-1.611,3.348c-.205,1.146.292,2.437.357,3.588.115,1.972.028,3.95.091,5.924a101.879,101.879,0,0,1-1,15.751l-.642,10.07c-1.008,8.364-1.077,16.864-1.694,25.259-.805,10.963-2.592,21.783-3.61,32.734-.508,5.47-1.343,10.926-1.669,16.441-.1,1.69-.179,4.479-.418,6.179-3.524,25.013-7.956,49.869-11.711,74.831-.866,5.758-1.486,11.616-2.231,17.407-.177,1.379-.33,2.759-.5,4.138a7.245,7.245,0,0,1-.22,1.382c-.735,4.63-.663,9.353-1.991,13.873-.337,1.149-.619,2.315-.87,3.486-.038.18-.334.917-.093,1.068q.917-1.969,1.838-3.951a32.237,32.237,0,0,1-1.685,4.14,7.67,7.67,0,0,0-1.8.39,16.069,16.069,0,0,1-5.289.489l-1.993.58c.158,0-.119.305-.114.464.006.208.014.418.024.626-6.651.45-13.131,1.06-19.724,1.14a5.279,5.279,0,0,0-.148-.815c-.037-.141-.282-1.51-.325-1.528-.858-4.067.562-9.187.825-13.3.509-7.956.172-15.951.376-23.918.525-20.334,3.151-40.556,3.511-60.888.153-8.585-1.708-17.087-1.549-25.678.118-6.324-.835-12.657-1.231-18.958-.456-7.277-.477-14.552-1.028-21.827-.34-4.478-.7-9-.761-13.491-.021-1.543-.3-3.07-.264-4.616.009-.419.024-.837.053-1.255q.09-.359.175-.722c.04-.168-.143.321-.157.494l-.018.228c-1.74,7.056-4.564,13.8-6.06,20.98-3.041,14.616-4.345,29.852-5.76,44.692-2.064,21.654-.6,43.657-3,65.281-1.193,10.771-2.765,21.6-3.154,32.421-.1,2.782-.038,5.522-.383,8.286-.067.535.089,2.037-.55,2.357-.272,3.985-.464,8.32-2.916,11.738-.8,1.116-3.621,1.642-3.944,2.51-5.894,1.039-13.414-.338-18.854-1.921a26.414,26.414,0,0,1-5.4-2.1,4.133,4.133,0,0,1,.21-.506c-3.8-1.4-3.123-7.029-3.509-10.465-1.132-10.071-1.751-20.346-2.146-30.5-.68-17.465-.966-35.038-.667-52.518.275-16.122,1.382-32.2,1.281-48.322-.061-9.578.19-19.109.454-28.691a23.719,23.719,0,0,0-.228-6.272c-.129-.532-.769-1.78-.645-2.359.741-3.481-.168-7.487-.2-11.041-.044-4.859.532-9.72.554-14.579.009-2.194-.6-4.393-.694-6.587-.11-2.5-.073-5.012-.192-7.518-.019-.391.429-2.18-.119-2.186a7.1,7.1,0,0,0-2.218.068c-.093.059-.127.435-.137.85-.655.051-1.287.069-1.725.123-5.131.631-9.068-.1-13.344-3.04l0-.092c-.018-.509-2.341-1.789-2.719-2.049-.161-.109-.931-.721-.591-.975-.205-5.019.485-10.039.387-15.067-.157-8.208-.665-16.391-.624-24.6.018-3.364.4-6.7.331-10.068-.008-.468.025-2.749-.007-3.106-.736-8.16.019-16.185.153-24.349.15-9.156.416-18.372,1.9-27.432.9-5.509,2.67-10.838,3.505-16.359,1.13-7.465,1.788-14.98,2.8-22.448.357-2.64.5-5.7,1.709-8.036,5.3-10.222,17.337-10.224,26.8-14.156,2.071-.861,3.8-2.314,5.76-3.347,2.064-1.085,4.323-1.828,6.368-2.957,2.45-1.354,4.781-3.075,7.13-4.591a17.258,17.258,0,0,0,1.936-1.569h0l.081-.071ZM27.74,471.285h0ZM79.072,211.514c-.036,0,.307-2.436.355-2.928a41.059,41.059,0,0,1,.487-5.436c.141-.624.234-1.273.339-1.905.052-.308.193-1.227.193-.915,0,3.41,2.276,6.418,4.431,8.788.288.317,1.414,2.277.96,2.732-.664.664-2.98.3-3.841.3a12.487,12.487,0,0,1-2.541.014Zm4.3-131.874,0,0ZM94,71.485l.034.036Zm-.046-.047.038.039Zm-.026-.024.024.023-.038-.036Zm-.04-.037-.019-.016.038.034Zm-.067-.057.039.034Zm-.026-.02.021.017-.039-.03Zm-.09-.063.01.006Zm-.027-.018.007.005Zm-.124-.069.011,0Zm-.028-.014.008,0Zm-1.265,0-.019.006Zm1.235-.008h0Zm-1.186-.008-.018.005Zm1.154-.007h0ZM92.355,71.1l-.011,0Zm.058-.015-.012,0Zm.051-.013-.016,0Zm.047-.011-.018,0Zm.813,0,.008,0Zm-.724-.018-.013,0Zm.648,0h0Zm-.036-.007.012,0Zm-.564,0h0Zm.528,0h0Zm-.477,0-.013,0Zm.407-.008h0Zm-.321,0h0Zm.276,0h0Zm-.236,0-.013,0Zm.195,0h0Zm-.154,0h0Zm.048,0h0Zm.042,0h0ZM59.3,66.829l-.072.062.048-.04.024-.022c.027-.022.053-.045.081-.069Zm.19-.161-.085.072Zm.134-.11-.055.044c-.018.014-.036.03-.054.045Zm.106-.086-.1.076Zm.17-.134-.02.015Z" fill="#eab9bf" fill-rule="evenodd"/></g><g id="change4_1"><path d="M149.311,220.241a2.556,2.556,0,0,0,1.35-2.409c.034-.411-.154-.89.008-1.28.211-.506.975-.827,1.343-1.226a3.1,3.1,0,0,0,.187-4.117,11.265,11.265,0,0,0-.627-1.124c.285.143.954-.373,1.1-.595a3.04,3.04,0,0,0,.694-2.747c-.456-2.429-2.276-4.385-3.307-6.561-.572-1.207-.554-2.591-1.067-3.823-.492-1.179-1.73-2.112-2.116-3.272-.058-.173-.157-1.232-.009-1.254.733-7.816-1.241-16.054-2.48-23.733-.451-2.789-.688-5.706-1.717-8.358-.33-.847-.624-1.728-.868-2.6-.113-.4-.065-1.5-.364-1.2-.514-2.95-2.333-5.847-3.593-8.535a25.024,25.024,0,0,1-1.768-16.892c.758-3.3,3-7.692,3.3-10.443a7.426,7.426,0,0,1,1.356-2.961c.187-.319,1.5.244,1.728-.047.077-.1.345.387.314.43l1.655,2.462c1.448,1.848,3.006,3.727,4.321,5.665.475.7.81,1.5,1.223,2.238.124.219.237.438.34.668.046.1.091.442.1.329,2.193-1.911,5.32-3.018,7.872-4.357,4.575-2.4,9.064-5.2,13.985-6.861,5.78-1.953,12.526-1.658,18.369-.408,4.056.867,12.852.748,13.032,5.3.182,4.585.187,9.25.7,13.809.47,4.185,1.309,8.31,1.976,12.457.464,2.888,1.034,5.758,1.306,8.672a27.924,27.924,0,0,1,.259,3.034c0,.329-.019.657-.026.985,0,.13.007.492.078.383,0-.008.022-.03.032-.05v-.031c.008,0,.006.016,0,.031.045,4.858.762,9.681.883,14.535.119,4.794.006,9.684.978,14.41.934,4.55,3.38,8.807,4.939,13.173,1.419,3.973,2.456,8.089,3.666,12.122,1.232,4.105,2.744,8.112,4.08,12.183,1.633,4.981,1.01,10.121,2.393,15.109a19.271,19.271,0,0,1,.948,3.9,1.461,1.461,0,0,1-.427.987c-.083.1-.49.128-.362.126a20.2,20.2,0,0,0-6.132,11.814c-.368,2.576-.229,5.206-.6,7.792a43.837,43.837,0,0,1-1.4,6.762,5.122,5.122,0,0,0,.1,2.477c.035.092.243.295.155.251.42,2.306,2.508-.518,2.869-1.181,1.407-2.578,1.581-5.443,2.5-8.189.2-.584,1.252-2.393,2.107-1.823,1.6,1.067.923,3.226.792,4.8-.3,3.634-.381,7.148-1.673,10.594a18.467,18.467,0,0,0-1.046,4.3c-.066.528-.131,1.054-.18,1.585a3.542,3.542,0,0,1-.109.83c0,1.6.781,3.784,2.721,3.541a3.654,3.654,0,0,0,1.389-.537c.053-.034.474-.484.523-.434.776.775.119,2.349,1.943,2.166a4.116,4.116,0,0,0,2.271-.792c.15-.15.633-1,.792-1v.6a4.77,4.77,0,0,0,.21,1.106,17.719,17.719,0,0,0,.707,1.683c-.469-.188-1.27-.527-1.251-.194.3,5.063,1.593,10.1,2.153,15.149.6,5.373.342,10.785,1.039,16.161,1.5,11.576,5.121,23.386,9.069,34.351,2.618,7.272,6.411,14.131,10.006,20.949,6.486,12.3,12.549,24.816,19.227,37.011,4.148,7.575,8.26,15.585,10.993,23.786.961,2.881,1.551,5.85,2.458,8.74a14.739,14.739,0,0,1,.583,2.583c.05.406-.575,1.282-.171,1.216,3.574-.591,6.789.256,10.311.543,4.859.4,10.463-.017,15.177,1.489,3.133,1,6.022,2.869,8.976,4.286,6.568,3.15,13.639,6.533,20.653,8.5,7.4,2.075,14.663,1.338,22.182,2.283a63.155,63.155,0,0,1,25.441,9.138c7.975,4.879,12.544,12.638,15.084,21.462,1.444,5.023,1.358,11.951-2.494,16.027-3.238,3.426-8.3,3.889-12.75,4.4-3.607.421-7.029,1.832-10.622,2.345-4.14.591-8.214,1.5-12.431,1.811-17.526,1.289-34.922-.818-52.36-2.4-9.682-.88-19.5-2.128-29.232-1.467-6.02.41-12.05.757-18.05,1.4-6.1.654-12.141,2.09-18.22,2.928-2.991.412-6.049.258-9.031.684-.235.035-2.587.752-2.742.392-12.859.911-26.1,1.713-38.748-1.427a100.328,100.328,0,0,1-14.665-4.982c-3.6-1.514-7.034-3.522-10.733-4.789a49.358,49.358,0,0,0-5.338-1.844,55.087,55.087,0,0,0-7.378-.806c-1.284-.1-2.566-.348-3.85-.387-.384-.011-1.135-.172-1.584-.211-4.982-.427-10.014-.473-14.669-2.51-4.586-2.006-8.172-5.619-12.724-7.641a18.3,18.3,0,0,0-2.683-.7,13.8,13.8,0,0,1-5.013-2.564,5.668,5.668,0,0,1-1.011-.977c-.018-.023-.307-.52-.312-.521a7.947,7.947,0,0,1-1.9-.436c-1.774-1-3.635-2.973-5.646-3.412-.1-.023.052.431.058.456a.816.816,0,0,1,.009.286,9.1,9.1,0,0,0-2.393-2.162c-1.8-1.029-3.772-.719-5.653-1.425a2.452,2.452,0,0,1-1.27-2.184c-.283-2.835.526-5.655,1.227-8.372a.617.617,0,0,0,.343.08c.346-.037.886-2.123.979-2.386.82-2.314,2.126-4.288,2.418-6.776.024-.21.571-2.4.5-2.451a.124.124,0,0,0-.047-.015c.29-.744.578-1.489.855-2.238,4.387-9.425,8.824-19.088,11.964-28.981,2.31-7.278,3.765-15.346,5.283-22.843,1.987-9.817,2.094-19.884,2.8-29.837.767-10.827,2.474-21.69,4.2-32.393q2.409-14.914,4.9-29.858c.35-2.115.754-4.2.9-6.345.034-.5-.062-2.058.74-2.239,2.368-11.7,4.613-23.454,6.249-35.29.992-7.179,1.08-14.529,1.642-21.751.421-5.413,1.254-10.8,1.457-16.217a148.192,148.192,0,0,1,1.38-16.634,19.5,19.5,0,0,0,.251-3.775c0-.1-.047-1.014.06-1.028A.743.743,0,0,0,149.311,220.241ZM51.175,497.028l-.051,0a.494.494,0,0,0-.481.375,5.847,5.847,0,0,1-.5.421c-.441.311-.957.612-1.112.723-1.8,1.282-3.246,2.979-4.95,4.373-1.748,1.429-3.524,3.066-5.461,4.375a12.181,12.181,0,0,1-6.215,2.341l-.263.009-.263,0c-2.628.012-5.18-.841-7.736-1.292-2.663-.469-5.636-.708-7.705-2.507a.5.5,0,0,0-.265-.118l-.047,0a.506.506,0,0,0-.389.17.5.5,0,0,0,.049.7c2.2,1.916,5.348,2.236,8.184,2.736,2.624.463,5.247,1.321,7.945,1.306l.269,0c.09,0,.181-.006.271-.011,4.917-.246,8.658-4,12.255-6.938,1.687-1.381,3.12-3.064,4.9-4.334a13.185,13.185,0,0,0,1.716-1.217.935.935,0,0,0,.3-.614A.5.5,0,0,0,51.175,497.028Zm57.815,0h-.048a.445.445,0,0,0-.147.025c-6.165,2.054-13.113,2.224-19.679,2.234H86.329c-.521,0-1.056.006-1.594.007l-.405,0a21.542,21.542,0,0,1-4.414-.355c-.2-.043-1.3-.536-1.812-.665a1.432,1.432,0,0,0-.262-.042l-.042,0c-.026,0-.05,0-.07,0a.57.57,0,0,0-.313.122.5.5,0,0,0,.3.882h.032a.342.342,0,0,0,.065-.006c.094.027.4.117.635.205.531.2,1.114.444,1.26.475a23.773,23.773,0,0,0,4.975.374l.83,0,.816,0h2.827c6.657-.014,13.7-.2,19.952-2.286a.5.5,0,0,0-.118-.964ZM79.072,211.514c-.036,0,.307-2.436.355-2.928a41.059,41.059,0,0,1,.487-5.436c.141-.624.234-1.273.339-1.905.052-.308.193-1.227.193-.915,0,3.41,2.276,6.418,4.431,8.788.288.317,1.414,2.277.96,2.732-.664.664-2.98.3-3.841.3a12.487,12.487,0,0,1-2.541.014ZM95.247,89.365c.064.323.127.647.171.972a3.643,3.643,0,0,1,.08.637c0,10.07-1.573,19.824-2.409,29.848a59.338,59.338,0,0,1-1.508,9.7,16.5,16.5,0,0,0-.607,3.246c-.036.528-.7,1.961-.375,1.541-1.29,4.9-1.592,9.968-3.017,14.852-1.061,3.637-2.848,6.974-3.771,10.661-.722,2.893-1.508,5.645-2.366,8.5-.266.887-.668,1.728-.985,2.6a12.2,12.2,0,0,0-.461,1.34.81.81,0,0,0,.135.183c-.149.108-.173.011-.135-.183-.3-.558-.091-1.553-.138-2.1-.114-1.378-.6-2.734-.8-4.105-.755-5.28-2.517-10.723-3.771-15.92-1.952-8.091-2.794-16.321-4.377-24.465-2.541-13.067-5.243-26.145-8.463-39.024a100.535,100.535,0,0,1-3.331-18.873c-.031-.592-.062-1.161-.082-1.724.307-.27.617-.534.936-.776a23.106,23.106,0,0,0,2.374,2.037c2.837,1.89,5.877,3.431,8.573,5.537A41.523,41.523,0,0,1,74.643,77.2c.2.2.4.414.593.627l-1.267-.666c-3.136-1.5-8.535-1.946-8.961,2.888a9.154,9.154,0,0,0,.286,3.88c.367.936,1.223,1.8,1.425,2.8.376,1.884-1.2,4.486.334,6.111,1.387,1.468,3.674.477,5.231-.136a11.65,11.65,0,0,0,3.78-1.984c.284-.268,1.226-1.8,1.574-1.883.591-.148,1.495.729,2.306.595a8.2,8.2,0,0,0,2.28-.657c.325-.172.9-.759,1.228-.806.457-.066.7.67.955.905a20.519,20.519,0,0,0,2.974,2.318C89.963,92.805,93.469,91.676,95.247,89.365ZM74.593,85.347a.5.5,0,0,0,.288-.946.935.935,0,0,0-.57-.009,4.345,4.345,0,0,0-.726.325,10.243,10.243,0,0,0-2.667,1.9.5.5,0,1,0,.689.713,9.272,9.272,0,0,1,2.413-1.717C74.129,85.556,74.527,85.377,74.593,85.347ZM84.792,84c1.067-.216,2.176-.743,3.265-.989a35.687,35.687,0,0,1,3.93-.4.5.5,0,1,0-.11-.986,35.95,35.95,0,0,0-4.038.42c-1.083.244-2.183.769-3.244.984a.5.5,0,0,0,.2.972ZM69.247,82.309a4.208,4.208,0,0,0,.584.1,8.03,8.03,0,0,1,1.314.124,11.469,11.469,0,0,1,3.6,1.217.5.5,0,0,0,.5-.856,12.45,12.45,0,0,0-3.914-1.336,8.956,8.956,0,0,0-1.479-.141c-.165,0-.493-.114-.671-.133a.706.706,0,0,0-.357.045.509.509,0,0,0-.3.335.541.541,0,0,0,.077.472A.5.5,0,0,0,69.247,82.309ZM83.324,79.67a.273.273,0,0,0,.056-.042c2.455-2.2,5.039-4.269,7.465-6.514a4.505,4.505,0,0,0,1.087-1.419,5.135,5.135,0,0,0,.156-.506,1.581,1.581,0,0,1,1.988.382,11.513,11.513,0,0,1,.068,2.318c0,.892.006,1.8.019,2.7-2.239-1.574-5.667.975-7.749,1.843a10.2,10.2,0,0,0-2.044,1.4c-.092.069-.567.475-.719.323A1.525,1.525,0,0,1,83.324,79.67ZM192.478,54.037l-.053-.005a.64.64,0,0,0-.189.026.63.63,0,0,0-.394.354,1.517,1.517,0,0,0-.108.446,4.1,4.1,0,0,1-.046.421,12.479,12.479,0,0,0-.167,4.113,13.936,13.936,0,0,0,5.157,10.061.5.5,0,0,0,.319.1l.048,0a.5.5,0,0,0,.238-.886,12.953,12.953,0,0,1-4.774-9.36,11.515,11.515,0,0,1,.141-3.787,3.5,3.5,0,0,0,.062-.472c0-.024.005-.053.01-.081a.5.5,0,0,0-.076-.886A.64.64,0,0,0,192.478,54.037Zm8.115-.836-.048,0a.481.481,0,0,0-.318.106.5.5,0,0,0-.169.585,1.862,1.862,0,0,0,.268.454c.228.3.577.7.612.744a6.428,6.428,0,0,1,1.149,2.323A20.568,20.568,0,0,1,202.578,65a.5.5,0,0,0,.449.54h.05l.05,0a.5.5,0,0,0,.438-.449,21.52,21.52,0,0,0-.523-7.948,7.388,7.388,0,0,0-1.323-2.666,10.285,10.285,0,0,1-.695-.862.506.506,0,0,0-.1-.225A.494.494,0,0,0,200.593,53.2Zm5.476,1.04-.048-.005a.5.5,0,0,0-.354.863,1.042,1.042,0,0,1,.295.649,3.575,3.575,0,0,1-.055,1.125,11.09,11.09,0,0,1-1.292,3.317.5.5,0,0,0,.159.683.483.483,0,0,0,.28.075l.047,0a.5.5,0,0,0,.356-.229,11.3,11.3,0,0,0,1.515-4.4,2.386,2.386,0,0,0-.641-1.954A.488.488,0,0,0,206.069,54.241Zm-5.115-.284-.02.03a.488.488,0,0,1-.047.055l-.027.024a.511.511,0,0,0,.052-.052Q200.935,53.985,200.954,53.957ZM175.191,22.346l-.049,0a.48.48,0,0,0-.1.006.5.5,0,0,0-.414.567,5.646,5.646,0,0,0,1.378,2.609,25.371,25.371,0,0,0,3.155,2.935c4.3,3.585,8.776,6.394,14.539,6.371l.28,0,.281-.008a.5.5,0,0,0,.016-.991h-.05c-.091,0-.18.006-.271.007l-.267,0c-5.514.02-9.775-2.711-13.892-6.142a24.207,24.207,0,0,1-3.033-2.811,4.633,4.633,0,0,1-1.155-2.124A.5.5,0,0,0,175.191,22.346Zm9.372,5.506-.048,0a.5.5,0,0,0-.338.871,4.757,4.757,0,0,0,2.756.982c.273.023.553.033.834.034h.281c1.124-.018,2.245-.162,3.093-.214a.5.5,0,0,0,.039-.986l-.05,0a.418.418,0,0,0-.05,0c-.819.05-1.9.192-2.988.212l-.272,0c-.271,0-.54-.011-.8-.032a3.763,3.763,0,0,1-2.188-.743A.483.483,0,0,0,184.563,27.852Z" fill="#eef4f7" fill-rule="evenodd"/></g><g id="change5_1"><path d="M128.178,504.405a1.677,1.677,0,0,0,.633.528c.275.147.6.261.8.382,1.095.672,2.274,1.356,3.315,2.1a29.226,29.226,0,0,0,9.612,4.943c5.583,1.456,11.26,1.213,16.9,1.982a60.2,60.2,0,0,1,15.87,3.957c6,2.607,12.1,5.734,18.4,7.571,10.1,2.945,20.158,3.74,30.631,3.857a.5.5,0,0,0,.011-.993c-10.382-.116-20.355-.9-30.364-3.816-6.26-1.826-12.321-4.94-18.287-7.529a61.158,61.158,0,0,0-16.132-4.029c-5.6-.764-11.244-.514-16.787-1.959a28.282,28.282,0,0,1-9.284-4.79c-1.059-.76-2.259-1.459-3.375-2.142-.182-.113-.463-.223-.729-.35a.937.937,0,0,1-.384-.245.5.5,0,0,0-.84.53Zm99.086,24.885c4.642.854,9.639-.461,14.313-.808,16.607-1.227,32.858-4.721,49.461-6,9.963-.767,20.666,1.548,30.478,3.035,10.716,1.624,22.127,1.876,32.933,1.8a.5.5,0,0,0-.007-.991c-10.755.072-22.111-.175-32.778-1.792-9.882-1.5-20.666-3.816-30.7-3.043-16.6,1.277-32.851,4.772-49.456,6-4.593.34-9.5,1.661-14.061.82a.5.5,0,0,0-.18.977Zm130.03-1.757c2.15.053,4.2-.273,6.341-.411,2.851-.184,5.735-.179,8.571-.55a143.627,143.627,0,0,0,14.208-3.038c3.97-.94,8.093-.79,11.905-2.331a.5.5,0,1,0-.371-.919c-3.766,1.521-7.841,1.356-11.763,2.285a142.987,142.987,0,0,1-14.108,3.019c-2.814.369-5.675.362-8.5.544-2.115.136-4.133.462-6.253.41a.5.5,0,0,0-.025.991Zm43.072-35.383a24.153,24.153,0,0,1,2.48,5.158,45.913,45.913,0,0,1,2.127,9.844c.26,3.367-.133,6.7-1.914,9.443a13.027,13.027,0,0,1-2.35,2.108.5.5,0,0,0,.672.729,13.928,13.928,0,0,0,2.509-2.3,14.619,14.619,0,0,0,2.146-7.937,41.1,41.1,0,0,0-2.243-12.184,25.268,25.268,0,0,0-2.587-5.391c-.067-.112-.431-.475-.734-.822a4.112,4.112,0,0,1-.25-.331.5.5,0,0,0-.937-.226.731.731,0,0,0,.055.692,4.786,4.786,0,0,0,.621.777C400.128,491.892,400.342,492.124,400.366,492.15Zm-79.608-.766c9.413,4.215,18.09,9.866,27.111,14.584,9.092,4.756,18.532,8.566,29.4,9.06a.5.5,0,0,0,.046-.992c-10.718-.487-20.022-4.257-28.988-8.947-9.037-4.727-17.733-10.387-27.164-14.61a.5.5,0,1,0-.406.905ZM26.47,471.916c-.021-.023-.041-.048-.061-.073a8.919,8.919,0,0,1-.741-1.958c-.442-1.411-.785-2.938-1.121-4.378a70.461,70.461,0,0,1-1.431-12.768c-.5-12.463-2.266-25.269-1.411-37.723,1.129-16.433-.917-33.056-.431-49.508.607-20.571,2.237-41.327,1.447-61.89a.5.5,0,0,1,.991-.038c.791,20.585-.839,41.365-1.446,61.958-.486,16.464,1.558,33.1.43,49.546-.853,12.418.914,25.187,1.412,37.616a69.23,69.23,0,0,0,1.406,12.582c.329,1.417.665,2.919,1.1,4.306.094.3.355,1.02.494,1.4l.138.075a.526.526,0,0,1,.168.068.5.5,0,0,1,.052.038q.132.059.273.111a1.257,1.257,0,0,0-.1.219.489.489,0,0,1-.07.309,26.444,26.444,0,0,0,5.361,2.081c5.44,1.583,12.96,2.96,18.854,1.921.228-.612,1.7-1.055,2.826-1.653.088,1.1.09,2.255.071,3.261-.115,6.247.524,12.864-.423,19.053-.646,4.217-4.245,6.8-7.118,9.445-2.379,2.192-5.3,5.388-8.356,6.626-5.154,2.089-11.588,1.032-16.874-.147-1.97-.439-4.319-.577-6.173-1.422-2.888-1.317-2.353-5.6-2.221-8.2a25.028,25.028,0,0,1,1.528-8.718c2.064-4.81,5.767-9,8.156-13.686A54.423,54.423,0,0,0,26.47,471.916ZM50.643,497.4a5.847,5.847,0,0,1-.5.421c-.441.311-.957.612-1.112.723-1.8,1.282-3.246,2.979-4.95,4.373-1.748,1.429-3.524,3.066-5.461,4.375a12.181,12.181,0,0,1-6.215,2.341c-2.813.14-5.536-.8-8.262-1.279-2.663-.469-5.636-.708-7.705-2.507a.5.5,0,1,0-.652.748c2.2,1.916,5.348,2.236,8.184,2.736,2.8.494,5.6,1.436,8.485,1.292,4.917-.246,8.658-4,12.255-6.938,1.687-1.381,3.12-3.064,4.9-4.334a13.185,13.185,0,0,0,1.716-1.217.935.935,0,0,0,.3-.614.5.5,0,0,0-.977-.12Zm26.864-24.7a18.161,18.161,0,0,0-.234-2.162,17.6,17.6,0,0,1-.3-3.459c.178-3.606,1.2-7.128,1.374-10.739.4-8.206.123-16.4,0-24.607-.187-12.04,1.229-24.205,2.565-36.152.3-2.677.23-5.364.506-8.038a.5.5,0,0,1,.987.1c-.277,2.677-.207,5.366-.506,8.046-1.332,11.906-2.746,24.028-2.561,36.026.128,8.228.408,16.444,0,24.672-.178,3.611-1.2,7.132-1.373,10.739a16.611,16.611,0,0,0,.293,3.262,13.282,13.282,0,0,1,.2,3.426v.01c6.467-.1,12.832-.693,19.36-1.135-.01-.208-.018-.418-.024-.626,0-.159.272-.464.114-.464l1.993-.58c.054.008.107.017.161.024a.483.483,0,0,1,.489-.349.459.459,0,0,1,.118.011c.112,0,.332.012.416.009a3.138,3.138,0,0,0,.991-.153c1.157-.421,2.417-.569,3.528-1.1a.5.5,0,1,1,.427.895c-1.14.544-2.428.7-3.615,1.136a3.823,3.823,0,0,1-1.11.2c.179.364.364.723.487,1.056.77,2.1,1.148,4.237,2.495,6.042-.074.189-.146.378-.214.571-.093.263-.633,2.349-.979,2.386a.617.617,0,0,1-.343-.08c-.7,2.717-1.51,5.537-1.227,8.372a3.948,3.948,0,0,0,.275,1.138.476.476,0,0,1,.127.175.97.97,0,0,0,.437.431,3.457,3.457,0,0,0,.925.328c1.186.269,2.658.259,3.416.408,1.361.267,2.657,1.466,3.707,2.306a1.755,1.755,0,0,0,.577.3l.451.124a5.7,5.7,0,0,1,1.4.457c1.443.791,2.455,1.968,4.1,2.471a.5.5,0,1,1-.291.949A15.128,15.128,0,0,1,112.9,496.9a11.989,11.989,0,0,1-.413,2.883,5.557,5.557,0,0,1-.918,2.557c-1.4,1.416-3.808,1.967-5.679,2.243a22.684,22.684,0,0,1-3.447.591c-3.509-.012-7,.466-10.514.56-2.113.057-4.24-.1-6.345-.013-2.367.094-5.132.295-7.453-.392a6.55,6.55,0,0,1-2.649-1.169c-1.114-1.151-.581-4.837-.541-6.195.182-6.259.257-12.595.8-18.835.157-1.819.063-4.442,1.287-5.942A3.92,3.92,0,0,1,77.507,472.7ZM228.7,392.28c1.094,11.079,5.844,22.483,8.807,33.207,6.092,22.05,13.234,49.08,28.388,66.909,4.263,5.014,9.848,8.533,15.133,12.365a.5.5,0,1,0,.582-.8c-5.221-3.785-10.748-7.249-14.959-12.2-15.066-17.724-22.131-44.61-28.188-66.531-2.949-10.671-7.687-22.015-8.777-33.04a.5.5,0,0,0-.986.1ZM118.578,500.113l.463.409a15.251,15.251,0,0,0,2.123,1.592,8.956,8.956,0,0,0,2.752.975,15.328,15.328,0,0,1,2.578.688.5.5,0,1,0,.378-.918,16.4,16.4,0,0,0-2.743-.739,8.027,8.027,0,0,1-2.457-.858,14.247,14.247,0,0,1-1.982-1.491,6.442,6.442,0,0,0-.706-.571.5.5,0,0,0-.626.746A.483.483,0,0,0,118.578,500.113Zm-40.765-.884c.094.027.4.117.635.205.531.2,1.114.444,1.26.475a32.275,32.275,0,0,0,6.621.368c7.456,0,15.636.1,22.779-2.286a.5.5,0,1,0-.313-.94c-7.044,2.347-15.114,2.234-22.466,2.234a31.3,31.3,0,0,1-6.413-.346c-.2-.043-1.3-.536-1.812-.665a1.188,1.188,0,0,0-.374-.042.57.57,0,0,0-.313.122.5.5,0,0,0,.4.875Zm41.191.852a.511.511,0,0,1-.063.029.4.4,0,0,1-.064.022A.463.463,0,0,0,119,500.081Zm12.285-60.152a1.465,1.465,0,0,1,.03.251,4.509,4.509,0,0,1-.077.749c-.159.925-.485,2.007-.537,2.391a72.271,72.271,0,0,0-.85,9.76c0,8.891-3.011,16.825-5.813,24.792-2.309,6.566-4.477,13.153-4.778,20.295-.071,1.653.926,1.831.979.306.252-7.144,2.43-13.717,4.735-20.271,2.839-8.072,5.868-16.116,5.868-25.122a71.279,71.279,0,0,1,.841-9.626c.062-.446.495-1.843.6-2.832a1.918,1.918,0,0,0-.208-1.294.5.5,0,0,0-.79.6ZM160.8,492.823c2.628-3.212,5.3-6.509,7.863-9.8a.5.5,0,1,0-.783-.61c-2.562,3.283-5.225,6.574-7.848,9.781a.5.5,0,0,0,.768.627ZM287.579,457.5a11.908,11.908,0,0,0,0,1.4c.188,1.393.508,2.764.593,4.17a64.751,64.751,0,0,0,1.456,11.1c1.052,4.418,3.066,8.954,6.455,12.083a5.911,5.911,0,0,0,3.146,1.656,2.566,2.566,0,0,0,1.759-.356,2.166,2.166,0,0,0,.928-1.488,5.234,5.234,0,0,0-.928-3.446.5.5,0,0,0-.85.511,4.892,4.892,0,0,1,.828,2.436,1.324,1.324,0,0,1-.527,1.161,1.586,1.586,0,0,1-1.088.2,4.934,4.934,0,0,1-2.6-1.4c-3.247-3-5.155-7.353-6.163-11.584a63.757,63.757,0,0,1-1.431-10.933c-.085-1.431-.408-2.825-.6-4.242-.04-.3.024-.909.028-1.311a1.429,1.429,0,0,0-.111-.633.513.513,0,0,0-.487-.275.612.612,0,0,0-.478.275A.5.5,0,0,0,287.579,457.5ZM177.292,292.641c-2.414,12.267-1.881,25.833-2.918,38.285-2.121,25.448-3.43,50.938-5.129,76.42-1.157,17.361-1.158,35.111-4.724,52.225-2,9.584-6.3,18.808-10.444,27.615a.5.5,0,0,0,.9.422c4.177-8.875,8.505-18.175,10.519-27.835,3.574-17.159,3.582-34.956,4.742-52.361,1.7-25.477,3.007-50.962,5.127-76.4,1.035-12.416.5-25.945,2.9-38.175a.5.5,0,0,0-.974-.192ZM289.961,454.607a44.673,44.673,0,0,0,11.2.718,39.354,39.354,0,0,1,10.965.855c4.559,1.225,9.014,4.583,13.257,6.633,7.436,3.592,15.569,6.949,23.688,8.612,5.822,1.193,11.837,1.17,17.72,1.941,11.11,1.453,22.066,5.842,30.049,13.818a.5.5,0,1,0,.7-.7c-8.138-8.131-19.3-12.62-30.623-14.1-5.858-.768-11.85-.741-17.648-1.928-8.04-1.648-16.093-4.978-23.457-8.535-4.3-2.076-8.814-5.457-13.431-6.7a40.252,40.252,0,0,0-11.239-.889,43.8,43.8,0,0,1-10.958-.692.5.5,0,1,0-.23.965Zm22.9,19.978c6.888,4.436,15.556,5.819,23.534,6.791,13.751,1.674,27.089,1.726,40.436-2.087a.5.5,0,1,0-.272-.954c-13.218,3.777-26.426,3.715-40.045,2.056-7.833-.953-16.353-2.284-23.117-6.641a.5.5,0,0,0-.536.835Zm-207.131,2.362c.07-.386.368-1.228.4-1.366a31.646,31.646,0,0,1,1.747-5.231c3.067-7.647,6.817-15.1,9.743-22.817,7.24-19.1,10.51-40.173,11.09-60.514a.5.5,0,0,0-.991-.029c-.577,20.232-3.826,41.2-11.027,60.192-2.924,7.711-6.671,15.158-9.735,22.8a32.553,32.553,0,0,0-1.8,5.392c-.024.112-.225.692-.337,1.111a2.089,2.089,0,0,0-.089.578.507.507,0,1,0,1-.115Zm-.312-.347a.534.534,0,0,1,.1.047.392.392,0,0,0-.087-.043l-.009,0a.589.589,0,0,0-.075-.02l-.01,0Zm-48.866-3.7c2.589-6.724,2.69-13.962,3.181-21.185.3-4.366,1.152-8.613,1.644-12.951.358-3.159,0-6.343.238-9.5,1.248-16.611,3.872-33.133,3.884-49.866a.5.5,0,1,0-.992,0c-.012,16.707-2.635,33.2-3.881,49.793-.236,3.143.122,6.315-.235,9.461-.493,4.354-1.35,8.615-1.648,13-.484,7.124-.564,14.265-3.117,20.9a.5.5,0,1,0,.926.356ZM27.74,471.285h0Zm79.676-2.835c.106-1.332.71-2.812.936-4.161.879-5.26,1.59-10.591,2.324-15.878,1-7.208,1.378-14.494,2.4-21.7,1.672-11.828,4.111-23.6,6.048-35.4a.5.5,0,0,0-.979-.161c-1.938,11.8-4.379,23.582-6.051,35.419-1.021,7.21-1.4,14.5-2.4,21.706-.734,5.278-1.442,10.6-2.319,15.85-.231,1.376-.839,2.888-.947,4.246a.5.5,0,1,0,.989.079Zm-77.764-8.743c.218.009.571.029.737.017.716-.051.605-.058,1.431-.091,1.283-.053,2.567-.075,3.853-.053a26.536,26.536,0,0,1,10.44,2.2.5.5,0,0,0,.394-.911,27.491,27.491,0,0,0-10.817-2.283c-1.3-.023-2.607,0-3.91.052-.846.035-.731.041-1.464.094-.221.017-.795-.03-.876-.021a.478.478,0,0,0-.45.416.517.517,0,0,0,.447.583A.5.5,0,0,0,29.652,459.707Zm244.873-37.914a2.9,2.9,0,0,0,.528,1.417c.384.615.912,1.247,1.129,1.657,1.42,2.7,2.864,5.4,4.227,8.127a79.983,79.983,0,0,1,4.925,13.974c.718,2.506,1.672,4.874,1.783,7.511a.5.5,0,0,0,.992-.042c-.115-2.717-1.082-5.16-1.821-7.742a80.934,80.934,0,0,0-4.992-14.144c-1.365-2.733-2.813-5.443-4.237-8.145-.224-.427-.766-1.086-1.165-1.722a1.93,1.93,0,0,1-.378-.877.5.5,0,1,0-.991-.014Zm-41-113.245c.776,4.747.6,9.723,1.014,14.519a150.3,150.3,0,0,0,4.795,25.075c4.913,18.731,14.523,36.4,24.243,52.988,3.35,5.72,5.851,11.919,9.123,17.663a.5.5,0,1,0,.862-.49c-3.273-5.749-5.777-11.951-9.129-17.675-9.675-16.512-19.249-34.094-24.14-52.738a149.258,149.258,0,0,1-4.766-24.909c-.416-4.82-.242-9.822-1.022-14.593a.5.5,0,1,0-.98.16ZM88.176,367.8a6.857,6.857,0,0,0,.987,3.34c.875,1.687,2.121,3.436,2.652,4.482,3.327,6.556,7.11,12.8,12.905,17.461a.5.5,0,1,0,.621-.774c-5.683-4.566-9.379-10.706-12.641-17.136-.532-1.047-1.78-2.8-2.656-4.491a5.829,5.829,0,0,1-.879-2.8.5.5,0,0,0-.989-.082Zm30.414,19.965a.491.491,0,0,0-.145.515.548.548,0,0,0,.327.385.483.483,0,0,0,.582-.137.851.851,0,0,0,.162-.322c.076-.262.151-.8.192-1.049.134-.794.266-1.577.365-2.376.284-2.276.528-4.555.932-6.812,1.253-6.97,2.143-14.1,3.234-21.118,3.23-20.787,4.88-41.955,6.6-62.921a.5.5,0,1,0-.988-.081c-1.718,20.942-3.366,42.086-6.591,62.849-1.089,7.01-1.979,14.133-3.23,21.1-.408,2.275-.655,4.57-.94,6.866-.1.783-.228,1.552-.359,2.332C118.7,387.151,118.634,387.534,118.59,387.768Zm-35.906-2.7c.52-1.636.2-3.875.173-5.568-.06-3.623-.255-7.237-.346-10.858-.069-2.741.078-5.508-.094-8.246-.315-5.05-1-10.079-1.2-15.137-.169-4.358.188-8.793-.157-13.131-.084-1.054-.485-2.071-.631-3.121-.186-1.321-.163-2.662-.247-3.992a.5.5,0,0,0-.99.063c.086,1.355.065,2.721.253,4.067.144,1.03.544,2.027.627,3.061.344,4.325-.015,8.746.153,13.091.2,5.066.881,10.1,1.2,15.161.171,2.725.024,5.48.093,8.209.09,3.618.285,7.229.344,10.848.026,1.6.365,3.71-.127,5.252a.5.5,0,0,0,.947.3Zm45.042-3.087a.478.478,0,0,0,0,.29.5.5,0,0,0,.621.326.507.507,0,0,0,.353-.416c.033-.182.016-1.043.031-1.2.148-1.464.212-2.909.42-4.368.853-5.948,1.127-12,2.1-17.947,2.49-15.233,4.5-30.6,7.59-45.723,1.928-9.434,4.612-18.632,5.375-28.288a.5.5,0,0,0-.989-.079c-.76,9.616-3.438,18.774-5.357,28.17-3.093,15.135-5.107,30.514-7.6,45.761-.972,5.956-1.247,12.01-2.1,17.965-.211,1.474-.276,2.932-.425,4.41C127.732,381.011,127.727,381.834,127.726,381.977ZM65.139,376.7a57.076,57.076,0,0,1,.294-7.3c.211-5.606.612-11.233,1.082-16.818.389-4.63.36-9.312.9-13.939.791-6.775,2.218-13.511,3.21-20.262.605-4.12.917-8.352,1.876-12.41,1.46-6.172,4.023-12.041,5.466-18.183a.5.5,0,0,0-.966-.228c-1.443,6.142-4.006,12.01-5.465,18.182-.966,4.087-1.284,8.347-1.893,12.5-.993,6.76-2.422,13.506-3.214,20.292-.541,4.636-.512,9.33-.9,13.97-.472,5.6-.873,11.241-1.085,16.863a58.252,58.252,0,0,0-.29,7.431.5.5,0,0,0,.988-.1Zm14.647-54.036c-.219-9.532-.586-19.468-1.706-29.045a.5.5,0,1,0-.985.116c1.116,9.547,1.48,19.45,1.7,28.952a.5.5,0,0,0,.992-.023ZM23.531,300.728c0-.077,0-.416.018-.66.047-.522.129-1.089.129-1.264a25.668,25.668,0,0,0-.344-4.946c-.793-4.022.012-8.123.019-12.186.011-5.172-.332-10.333.053-15.473a.5.5,0,1,0-.989-.074c-.387,5.163-.046,10.349-.056,15.544-.008,4.128-.806,8.3,0,12.381a24.651,24.651,0,0,1,.326,4.748c0,.253-.178,1.354-.155,1.9a.984.984,0,0,0,.179.575.5.5,0,0,0,.821-.542Zm208.325-8.156c.009.134.021.269.036.406a7.971,7.971,0,0,0,.429,1.378,2.174,2.174,0,0,0,.4.65.688.688,0,0,0,.515.213.626.626,0,0,0,.415-.181.5.5,0,0,0-.3-.853,3.83,3.83,0,0,1-.2-.42,6.716,6.716,0,0,1-.274-.9,11.471,11.471,0,0,1,1.02-5.222c.755-2.139,1.843-4.025,2.416-6.257a18.3,18.3,0,0,0,.428-2.362,12.526,12.526,0,0,1,2.922-.093c.311.031.616.117.925.156l.235.119c-.157.667-.3,1.333-.41,2-.2,1.238-.07,2.549-.363,3.757a.5.5,0,1,0,.964.233c.3-1.234.178-2.571.379-3.836.327-2.063,1.023-4.1,1.305-6.17a6.537,6.537,0,0,0-.09-1.513,3.557,3.557,0,0,1-.072-1.027.5.5,0,0,0-.959-.258,3.421,3.421,0,0,0,.009,1.119,7.357,7.357,0,0,1,.128,1.545l-.014.1c-.309-.071-.729-.111-.827-.13a21.239,21.239,0,0,0-3.2-.156,1.382,1.382,0,0,0-.326.045c-.1.024-.216.057-.33.088.025-.632.05-1.255.084-1.859a.5.5,0,0,0-.991-.055,42.809,42.809,0,0,1-.757,8.044c-.565,2.2-1.645,4.063-2.391,6.173a21.762,21.762,0,0,0-.967,3.253.5.5,0,0,0-.322.489.6.6,0,0,1-.108.279,4.169,4.169,0,0,1-1.58,1.433.716.716,0,0,1-.328.092,1.493,1.493,0,0,1-.967-.563,2.9,2.9,0,0,1-.673-1.849c.051-2.591,1.339-4.9,2.106-7.32a40.9,40.9,0,0,0,1.557-11.253.5.5,0,1,0-.992-.01,39.859,39.859,0,0,1-1.51,10.963c-.8,2.509-2.1,4.914-2.153,7.6a3.938,3.938,0,0,0,.912,2.514,2.476,2.476,0,0,0,1.619.905,1.67,1.67,0,0,0,.841-.176,4.755,4.755,0,0,0,1.145-.787C231.652,292.782,231.758,292.678,231.856,292.572ZM4.569,273.144c-.732,2.282.311,4.524,1.1,6.589s1.3,4.518,2.089,6.8a12.073,12.073,0,0,0,4.025,6.088.5.5,0,0,0,.586-.8A11.1,11.1,0,0,1,8.7,286.208c-.8-2.292-1.3-4.744-2.1-6.829-.713-1.865-1.744-3.872-1.083-5.933a.5.5,0,1,0-.945-.3Zm127.948-34.679c.919,10.638-.468,21.077-1.668,31.64-.338,2.985-.343,6.022-.569,9.018-.215,2.852-.322,5.725-.393,8.583-.03,1.166.011,2.334-.036,3.5,0,.042-.032.534-.04.66a.473.473,0,0,0-.04.188.494.494,0,0,0,.489.5.487.487,0,0,0,.489-.345,7.07,7.07,0,0,0,.093-.965c.046-1.17.007-2.342.037-3.513.07-2.843.177-5.7.39-8.533.225-2.984.229-6.008.566-8.981,1.21-10.66,2.6-21.193,1.663-31.927a.49.49,0,0,0-.05-.177,1.242,1.242,0,0,1,.037-.422,6.042,6.042,0,0,1,.459-1.235c.567-1.2,1.41-2.491,1.7-3.053,2.13-4.168,4.643-8.174,6.455-12.5a.5.5,0,0,0-.914-.383c-1.8,4.3-4.3,8.286-6.425,12.432a37.535,37.535,0,0,0-1.979,3.7,3.15,3.15,0,0,0-.285,1.739A.469.469,0,0,0,132.517,238.465ZM130,291.642a.489.489,0,0,1,.275-.079A.457.457,0,0,0,130,291.642Zm110.52-39.693c.153.173.288.364.434.541a11.473,11.473,0,0,1,1.345,1.862c1.221,2.274,2.422,4.128,2.834,6.719.381,2.393.036,5,.017,7.422-.042,5.557.695,11.955-2.445,16.9a.5.5,0,1,0,.836.532c3.241-5.1,2.558-11.688,2.6-17.422.018-2.47.359-5.139-.03-7.585-.43-2.709-1.664-4.655-2.941-7.032a12.382,12.382,0,0,0-1.451-2.023c-.164-.2-.317-.413-.492-.605a1.756,1.756,0,0,0-.281-.2.486.486,0,0,0-.294-.15.5.5,0,0,0-.45.835C240.227,251.768,240.461,251.915,240.519,251.949ZM88.839,279.108c2.756,2.152,6.592,3.37,10.56,4.285,3.883.9,7.889,1.5,11.084,2.466a.5.5,0,1,0,.286-.95c-3.213-.967-7.242-1.583-11.147-2.483-3.818-.881-7.52-2.03-10.172-4.1a.5.5,0,1,0-.611.782Zm55.4,3.23a.5.5,0,0,0-.087.132.5.5,0,0,0,.252.655.49.49,0,0,0,.65-.2,1.9,1.9,0,0,0,.2-.521c.109-.43.213-1.044.219-1.122a41.5,41.5,0,0,1,.639-5.043,89.641,89.641,0,0,0,1.355-14.111c.582-13.485,1.364-27.118,2.685-40.537a.5.5,0,0,0-.987-.1c-1.323,13.438-2.107,27.089-2.689,40.591a88.609,88.609,0,0,1-1.337,13.954,43.324,43.324,0,0,0-.656,5.165A8.942,8.942,0,0,1,144.238,282.338Zm.343-.162a.707.707,0,0,1,.113.007.562.562,0,0,1,.112.036A.478.478,0,0,0,144.581,282.176ZM64.453,82.163a21.673,21.673,0,0,1-3.11-4.3q.091.508.188,1.016c1.215,6.34,2.62,12.611,4.02,18.907,4.092,18.412,6,37.25,10.006,55.679,1.172,5.388,2.29,10.757,3.768,16.074.256.923.465,1.925.693,2.932.029-.057.05-.1.06-.124.55-1.281,1.032-2.562,1.455-3.892,1.033-3.248,1.79-6.579,2.812-9.824.783-2.489,2.108-4.854,2.787-7.353,3.169-11.673,4.654-23.392,5.812-35.4.675-7,2.08-14.111,2.322-21.135a25.192,25.192,0,0,0-.5-4.824,6.188,6.188,0,0,0,.841-1.079,35.493,35.493,0,0,1,.648,5.937c-.242,7.045-1.649,14.175-2.326,21.2-1.163,12.061-2.658,23.833-5.842,35.562-.682,2.51-2.011,4.889-2.8,7.389-1.022,3.247-1.778,6.579-2.813,9.828-.433,1.361-.925,2.672-1.488,3.983-.034.077-.2.394-.337.685-.045.1-.1.234-.12.295a.5.5,0,0,1-.125.353c.115.426.24.848.381,1.256l.028-.041c.347-.491,1-1.134,1.142-1.335,1.356-1.911,2.746-3.769,4.155-5.65,5.207-6.953,10.4-13.779,13.588-21.955a102.234,102.234,0,0,0,5.651-18.281c2.234-12.3,1.135-25.233,1.087-37.626-.013-3.579.343-7.137.629-10.7.116-1.451,1.1-1.341.982.144-.283,3.51-.632,7.017-.618,10.547.047,12.453,1.141,25.452-1.1,37.807a103.348,103.348,0,0,1-5.7,18.464c-3.224,8.262-8.457,15.164-13.718,22.19-1.4,1.874-2.789,3.725-4.14,5.629-.114.16-.538.591-.89,1.012a6.2,6.2,0,0,0-.372.526.493.493,0,0,1-.247.439c.036.076.072.151.109.225a.5.5,0,0,1-.019.479l.038.409a6.583,6.583,0,0,1-.051,1.131c-.114,1.362.179,2.729,0,4.082a93.368,93.368,0,0,0-.419,12.541,23.693,23.693,0,0,0,4.706,14.045c1.16,1.664,2.809,2.91,4.006,4.553,3.738,5.128,7.807,10.054,14.283,11.649a.5.5,0,1,1-.236.963c-6.716-1.653-10.975-6.711-14.849-12.029a17.6,17.6,0,0,0-1.6-1.845l-.06.014a8.133,8.133,0,0,1-1.177.044,28.364,28.364,0,0,1-4.113.038c-.346-.032-.695-.046-1.044-.057a1.767,1.767,0,0,0,.013.225,10.35,10.35,0,0,1,.137,1.64c.012,1.612-.148,3.226-.18,4.838-.095,4.863-.565,9.819-.933,14.671-.665,8.772-1.255,17.5-1.543,26.3-.218,6.612-1.338,12.6,2.315,18.482a.5.5,0,0,1-.843.523c-3.765-6.06-2.688-12.224-2.464-19.038.289-8.809.88-17.555,1.545-26.341.367-4.833.836-9.77.931-14.615.031-1.6.192-3.208.179-4.81a9.176,9.176,0,0,0-.123-1.482c-.007-.041-.012-.093-.016-.152a85.982,85.982,0,0,1-1.53,13.639c-1.476,6.494-6.415,12.239-11.022,16.773-6.926,6.813-13.729,13.223-22.779,17.178-5.355,2.34-12.2,5.477-18.263,4.448a29.492,29.492,0,0,1-3.246-.588,3.672,3.672,0,0,1-1.976-1.124.5.5,0,1,1,.81-.574,2.676,2.676,0,0,0,1.437.743,28.2,28.2,0,0,0,3.141.564c5.883,1,12.506-2.108,17.7-4.378,8.936-3.905,15.643-10.249,22.48-16.976,4.48-4.408,9.316-9.972,10.752-16.286,1.4-6.177,1.272-12.575,1.936-18.842.194-1.838.329-3.658.638-5.486.057-.332.066-.859.135-1.332a2.7,2.7,0,0,1,.277-.921,24.509,24.509,0,0,1-.411-4.449,94.39,94.39,0,0,1,.428-12.676c.177-1.336-.118-2.687,0-4.034a5.608,5.608,0,0,0,.051-.959c-.007-.084-.063-.641-.047-.748l.006-.035a13.024,13.024,0,0,1-.485-1.212.5.5,0,0,1-.923.31c-1.62-2.837-4.363-5.324-6.185-8.126a181.945,181.945,0,0,1-16.643-31.465c-1.916-4.781-3.49-9.613-5.25-14.443-.578-1.589-1.239-3.142-1.739-4.758a16.323,16.323,0,0,1-.371-2.642.583.583,0,0,1,.015-.077.755.755,0,0,1,.062-.412c.144-.332.627-1.036.676-1.142a26.512,26.512,0,0,1,1.051-2.9,3.619,3.619,0,0,1,.412-.465c.081-.082.181-.188.273-.288-.332-.176-.781-.412-.832-.438-1.134-.563-2.2-1.26-3.323-1.855-.08-.043-.625-.255-.869-.406a.777.777,0,0,1-.307-.321,23.69,23.69,0,0,1-.861-4.353c-.8-3.741-1.5-7.508-2.447-11.215-.79-3.08-1.251-6.226-2.05-9.312-.152-.592-.268-1.189-.378-1.787-.1-.561.844-.879.939-.367.118.637.237,1.275.4,1.905.8,3.087,1.26,6.235,2.05,9.316.954,3.719,1.657,7.5,2.456,11.253a25.447,25.447,0,0,0,.754,4.05c.169.078.713.326.78.361,1.109.59,2.172,1.283,3.3,1.843a11.941,11.941,0,0,1,1.423.786.541.541,0,0,1,.194.443.859.859,0,0,1-.2.448c-.221.283-.776.772-.862.915a26.086,26.086,0,0,0-1,2.8c-.034.075-.275.441-.477.777-.067.11-.144.263-.18.332a.226.226,0,0,1,0,.026.5.5,0,0,1-.008.279c.039.308.244,1.872.331,2.153.495,1.6,1.15,3.139,1.724,4.71,1.756,4.821,3.325,9.644,5.238,14.415A180.858,180.858,0,0,0,73.6,167.349c1.83,2.816,4.583,5.319,6.213,8.172-.614-1.854-.946-3.931-1.444-5.721-1.482-5.336-2.605-10.722-3.781-16.128C70.578,135.243,68.672,116.406,64.58,98c-1.4-6.306-2.906-12.377-4.121-18.726-.292-1.518-.513-3.046-.691-4.565a8.83,8.83,0,0,0-.241-1.383s-.034-.211-.059-.428a22.108,22.108,0,0,1-.607-2.751,4.286,4.286,0,0,1-.05-.974.59.59,0,0,1,.2-.363.5.5,0,0,1,.634.019.351.351,0,0,1,.056.466,2.06,2.06,0,0,0-.005.222c.012.223.05.464.061.544a21.4,21.4,0,0,0,.6,2.7,1.014,1.014,0,0,1,.083.158,5.715,5.715,0,0,1,.237,1.031,19.064,19.064,0,0,0,3.709,6.842v-.28A14.518,14.518,0,0,1,64.63,79a.529.529,0,0,1,.187-.268.5.5,0,0,1,.691.094.493.493,0,0,1,.059.511c-.029.168-.194,1.075-.194,1.171a5.759,5.759,0,0,0,.336,2.5c.238.517.662,1.095.975,1.684a3.52,3.52,0,0,1,.454,1.389A11.838,11.838,0,0,1,67.045,88a3.976,3.976,0,0,0,.334,2.409.5.5,0,1,1-.879.459,4.515,4.515,0,0,1-.479-2.506,16.909,16.909,0,0,0,.126-2.212,3.064,3.064,0,0,0-.5-1.266c-.3-.507-.635-1-.843-1.453A4.4,4.4,0,0,1,64.453,82.163Zm176.2,196.751a.352.352,0,0,0,.019.051.326.326,0,0,0,.029.055A.5.5,0,0,1,240.657,278.914Zm.876-2.769c-.13-.021-.753-.121-.846-.139a19.686,19.686,0,0,0-3.024-.137c-.063.016-.476.127-.691.171-.031.655-.069,1.315-.126,1.967a13.514,13.514,0,0,1,2.913-.063c.329.032.652.124.979.162a1.511,1.511,0,0,1,.324.115C241.231,277.531,241.4,276.839,241.533,276.145ZM84.417,215.5c.142,1.283-.32,2.807-.309,4.132.04,5.152-.547,10.263-.925,15.4-.6,8.109-.3,16.228-.734,24.34-.208,3.848-.273,7.7-.543,11.546-.116,1.656-.442,3.741.015,5.366a.5.5,0,0,0,.956-.269c-.429-1.523-.089-3.477.019-5.027.27-3.848.336-7.709.544-11.562.437-8.107.134-16.218.732-24.32.381-5.16.969-10.3.928-15.476-.011-1.358.448-2.919.3-4.235a.5.5,0,0,0-.986.11ZM61.6,269.4c-.127.042-1.649.535-1.75.573a28.9,28.9,0,0,0-2.842,1.271c-2.773,1.378-5.488,2.835-8.182,4.363a.5.5,0,1,0,.49.863c2.677-1.518,5.376-2.967,8.133-4.336a27.867,27.867,0,0,1,2.745-1.231c.107-.04,1.5-.474,1.776-.581a.543.543,0,0,0,.349-.6.5.5,0,0,0-.6-.37A.558.558,0,0,0,61.6,269.4Zm-.188.18a.463.463,0,0,0-.071.2.5.5,0,0,0,.01.165v0a.492.492,0,0,1,.062-.371ZM37.528,267.3c10.437-.216,20.858-2.074,31.121-3.848a.5.5,0,1,0-.17-.977c-10.213,1.765-20.584,3.618-30.972,3.833a.5.5,0,0,0,.021.992Zm68-31.341c.059,11.225,2.822,21.849,9.94,30.8a.5.5,0,1,0,.776-.616c-6.974-8.773-9.666-19.188-9.723-30.189a.5.5,0,0,0-.993,0ZM29.49,135.755c0,.081-.021.355-.044.55a6.368,6.368,0,0,0-.065.765,48.275,48.275,0,0,1,.082,4.975c-.076,6.18-.86,12.434-.336,18.611.982,11.594-.808,23.046-1.732,34.567-1.152,14.359-2.829,28.576-4.762,42.843-.629,4.638-.668,9.457-1.447,14.048a.5.5,0,1,0,.979.165c.781-4.6.821-9.431,1.451-14.079,1.936-14.286,3.616-28.52,4.768-42.9.929-11.575,2.719-23.081,1.731-34.731-.52-6.144.264-12.365.341-18.513a49.409,49.409,0,0,0-.087-5.077c-.015-.157.118-.895.115-1.233a.738.738,0,0,0-.2-.532.5.5,0,0,0-.8.539ZM4.478,247.643a.5.5,0,0,0-.9.159.518.518,0,0,0,.111.447,8.889,8.889,0,0,0,.811.654,15.218,15.218,0,0,0,2.777,1.757c3.382,1.705,7.434,1.574,10.99.939a2.032,2.032,0,0,0,.816-.362,2.329,2.329,0,0,1,.723-.438.5.5,0,1,0-.249-.96,2.337,2.337,0,0,0-.773.39,1.707,1.707,0,0,1-.69.394c-3.355.6-7.181.76-10.37-.849a14.336,14.336,0,0,1-2.605-1.646C5.064,248.086,4.653,247.8,4.478,247.643Zm236.255,4.229a.609.609,0,0,1-.089.018.478.478,0,0,1-.093,0A.431.431,0,0,0,240.733,251.872Zm-8.556-70.925a.506.506,0,0,0-.032-.095.775.775,0,0,0-.077-.139.463.463,0,0,0-.329-.2.476.476,0,0,0-.379.1.485.485,0,0,0-.156.564,6.385,6.385,0,0,1,.265.75c.116.624.277,1.242.4,1.865.335,1.676.589,3.389.971,5.052,1.173,5.105,2.042,10.184,2.941,15.345a236.955,236.955,0,0,1,2.842,24.882c.472,7.156.1,14.327.195,21.489a.5.5,0,0,0,.992-.013c-.1-7.179.277-14.368-.2-21.542a237.369,237.369,0,0,0-2.854-24.986c-.9-5.179-1.775-10.274-2.951-15.4-.38-1.655-.631-3.36-.966-5.027-.123-.618-.283-1.231-.4-1.851A7.353,7.353,0,0,0,232.177,180.947ZM4.05,244.608a.5.5,0,0,0-.92.372,2.065,2.065,0,0,0,.976.861c.894.465,2.3.889,2.711,1.074a21.81,21.81,0,0,0,12.94,1.856.5.5,0,1,0-.185-.974,20.829,20.829,0,0,1-12.351-1.788c-.405-.181-1.781-.593-2.656-1.048a2.781,2.781,0,0,1-.409-.251A1.418,1.418,0,0,1,4.05,244.608Zm.5,3.266v.091A.685.685,0,0,0,4.554,247.874ZM.467,215.713v0c.074.431.33,2.662.342,2.835a42.123,42.123,0,0,1-.461,6.35c-.439,4.962-.221,10.039-.291,15.023a23.512,23.512,0,0,0,.091,4.354A4.467,4.467,0,0,0,1.5,246.955a.5.5,0,1,0,.653-.746,4.033,4.033,0,0,1-1.119-2.782,33.026,33.026,0,0,1,.013-3.488c.069-4.96-.15-10.012.287-14.95a42.966,42.966,0,0,0,.462-6.5c-.012-.178-.276-2.489-.354-2.935a.63.63,0,0,0-.161-.347.494.494,0,0,0-.6-.065A.5.5,0,0,0,.467,215.713ZM62.761,228a16.742,16.742,0,0,1-2.569,3.211,66.01,66.01,0,0,1-10.27,9.276.5.5,0,1,0,.6.787,66.975,66.975,0,0,0,10.421-9.418,18.032,18.032,0,0,0,2.736-3.484.5.5,0,0,0-.921-.372ZM35.005,238c7.031-1.182,14.01-4.37,20.214-7.752,4.983-2.718,9.963-5.432,13.76-9.741a.5.5,0,0,0-.745-.656c-3.719,4.222-8.61,6.864-13.49,9.526-6.11,3.332-12.979,6.48-19.9,7.644a.5.5,0,0,0,.165.979Zm89.338-33.294a.483.483,0,0,0-.081.22c-.031.261-.069.512-.117.754-.02.082-.042.163-.064.242a.441.441,0,0,0-.019.147c-.556,2.352-1.87,3.836-3.049,5.728a86.843,86.843,0,0,1-7.976,10.37,13.589,13.589,0,0,1-5,3.289,6.947,6.947,0,0,1-1.851.454c-.153.016-.526.038-.757.051a.5.5,0,0,0-.561-.022.557.557,0,0,0-.286.422.493.493,0,0,0,.261.511.833.833,0,0,0,.358.091,8.956,8.956,0,0,0,1.091-.066,7.99,7.99,0,0,0,2.115-.521,14.673,14.673,0,0,0,5.383-3.565q.636-.746,1.264-1.486c.169.283.373.574.4.619.765,1.182,1.544,2.355,2.307,3.539A27.111,27.111,0,0,0,121.3,229.4c2.815,2.935,5.351,5.943,9.041,7.829a.5.5,0,0,0,.452-.883c-3.589-1.835-6.04-4.778-8.777-7.633a26.094,26.094,0,0,1-3.411-3.763c-.764-1.186-1.542-2.36-2.309-3.542l-.49-.788a.443.443,0,0,0-.021-.152,71.8,71.8,0,0,0,6.075-8.144c1.3-2.092,2.729-3.729,3.259-6.426.727-2.93.3-6.986.213-9.928-.157-5.293.149-10.743.524-16.029,1.137-16.058,3.078-32.077,4.411-48.124.551-6.639.894-13.262,1.606-19.89a22.672,22.672,0,0,1,1.208-5.653c.084-.224.15-.575.24-.915a1.243,1.243,0,0,1,.233-.566.5.5,0,0,0-.676-.726,1.919,1.919,0,0,0-.456.826c-.113.367-.178.787-.27,1.035a23.607,23.607,0,0,0-1.266,5.893c-.713,6.635-1.056,13.266-1.608,19.914-1.334,16.05-3.274,32.074-4.413,48.136-.376,5.319-.683,10.8-.525,16.129C124.412,198.552,124.772,201.976,124.343,204.706ZM121,234.881a9.524,9.524,0,0,0,2.647,2.12.5.5,0,0,0,.511-.851,8.546,8.546,0,0,1-2.388-1.9.5.5,0,1,0-.77.626Zm-5.328-13.932-.018.016.031-.032Zm34.183-4.189a.318.318,0,0,0,.016.032c0,.078-.016.612,0,.754a1.786,1.786,0,0,1-.483,1.684,2.321,2.321,0,0,1-1.731.345c-.133-.015-.35-.017-.553-.049a1.559,1.559,0,0,1-.19-.05.494.494,0,0,0-.582-.144c-2.55-2-4.185-5.018-5.842-7.73a15.818,15.818,0,0,1-1.534-2.493,6.091,6.091,0,0,0-.649-1.077c-.011-.052-.05-.248-.075-.325a.638.638,0,0,0-.168-.269.54.54,0,0,0-.293-.137.528.528,0,0,0-.4.108.5.5,0,0,0-.105.694.434.434,0,0,0,.061.067,1.656,1.656,0,0,0,.125.367,5.391,5.391,0,0,1,.576.919,16.655,16.655,0,0,0,1.617,2.662c1.761,2.884,3.523,6.083,6.281,8.152a.5.5,0,0,0,.485.062,1.335,1.335,0,0,0,.216.1,4.527,4.527,0,0,0,.922.132,3.3,3.3,0,0,0,2.465-.562,2.7,2.7,0,0,0,.843-2.563c-.012-.108.011-.325.012-.524a2.1,2.1,0,0,0,1.188-.756c1.348-1.542,1.092-3.231.266-4.867-.737-1.459-1.941-2.869-2.615-4.049-.481-.84-.859-1.715-1.278-2.584a15.2,15.2,0,0,1-1.406-3.024c-.017-.071-.131-.568-.159-.8a.466.466,0,0,0-.007-.182.5.5,0,0,0-.988.115,9.362,9.362,0,0,0,.188,1.089,16.239,16.239,0,0,0,1.478,3.23c.429.89.819,1.784,1.31,2.645.667,1.166,1.863,2.559,2.591,4,.639,1.265.916,2.574-.127,3.766a1.108,1.108,0,0,1-.648.438,1.149,1.149,0,0,1-.87-.433c-.435-.4-.835-.932-1.215-1.312a37.711,37.711,0,0,1-4.864-6.777,2.811,2.811,0,0,0-.8-.811,1.9,1.9,0,0,1-.539-.5.5.5,0,1,0-.825.55,2.526,2.526,0,0,0,.636.643,2.242,2.242,0,0,1,.687.639,38.7,38.7,0,0,0,5,6.953,14.617,14.617,0,0,0,1.629,1.654A2.45,2.45,0,0,0,149.85,216.76ZM133.5,210.153a1.884,1.884,0,0,0,.121.28c.193.3.419.558.626.841.625.849,1.065,1.8,1.722,2.629a25.232,25.232,0,0,0,6.973,6.236.5.5,0,1,0,.511-.85,24.3,24.3,0,0,1-6.707-6c-.65-.819-1.082-1.761-1.7-2.6-.194-.262-.4-.507-.584-.78-.012-.034-.085-.25-.122-.325a.607.607,0,0,0-.2-.243.506.506,0,0,0-.376-.082.515.515,0,0,0-.364.243A.5.5,0,0,0,133.5,210.153ZM1.174,216a.518.518,0,0,1-.1.041.659.659,0,0,1-.105.018A.5.5,0,0,0,1.174,216Zm-.521-.032a.465.465,0,0,0,.1.054.486.486,0,0,0,.093.027A.474.474,0,0,1,.653,215.966Zm.522.031.022-.012Zm.316-3.168a8.412,8.412,0,0,1-.461-3.107c0-1.81.258-3.741.265-5.242.023-5.38-.021-10.816-.134-16.186-.132-6.241.444-12.377.585-18.6.2-8.607.214-17.369,1.164-25.925.469-4.215,1.894-8.225,2.708-12.374.967-4.925,1.428-9.932,2.331-14.847a.5.5,0,0,0-.975-.18c-.9,4.911-1.364,9.914-2.33,14.837-.819,4.175-2.248,8.212-2.72,12.454C.97,152.244.95,161.035.754,169.672.613,175.91.037,182.059.169,188.314c.113,5.362.157,10.79.134,16.162-.006,1.5-.266,3.434-.265,5.246A9.379,9.379,0,0,0,.573,213.2a.5.5,0,1,0,.918-.375ZM80.91,202.182c0,.019-.006.038-.008.056-.307,1.806-.438,3.606-.631,5.424-.143,1.357-.25,2.721-.344,4.086.157-.008.339-.017.427-.013.536.015,1.075.024,1.61.074a27.387,27.387,0,0,0,3.97-.041c.039,0,.2,0,.389,0a15.191,15.191,0,0,1-1.514-1.8A27.333,27.333,0,0,1,80.91,202.182Zm57.018,6.043a.5.5,0,0,1-.072.038.44.44,0,0,1-.075.025A.4.4,0,0,0,137.928,208.225Zm-39.8-1.726c.154.009.38.023.477.018.3-.016,1.27-.075,1.495-.095,1.654-.148,3.3-.391,4.936-.658,4.375-.71,8.742-1.262,13.153-1.69a.5.5,0,0,0-.1-.987c-4.432.43-8.82.984-13.215,1.7-1.616.262-3.236.5-4.867.647-.219.021-1.164.078-1.458.093-.165.009-.5-.041-.676-.026a.691.691,0,0,0-.343.117.514.514,0,0,0-.216.34.543.543,0,0,0,.116.449A.5.5,0,0,0,98.131,206.5Zm48.636-5.437a.529.529,0,0,1-.121.115.492.492,0,0,1-.151.068l-.012,0,.012,0a.456.456,0,0,0,.272-.183l0-.007Zm-41.6-3.45c2.938,0,5.931,1.353,8.854,1.739a.5.5,0,1,0,.129-.984c-2.964-.391-6-1.745-8.982-1.747a.5.5,0,1,0,0,.992Zm39.6-25.241a2.887,2.887,0,0,0-.145,1.751c.211,1.465.906,3.488,1.051,4.216a67.048,67.048,0,0,1,.961,13.406.5.5,0,1,0,.992,0,68.042,68.042,0,0,0-.98-13.6c-.143-.716-.833-2.714-1.043-4.162a4.22,4.22,0,0,1-.052-.751.716.716,0,0,1,.063-.34.5.5,0,1,0-.847-.518Zm71.245,7.042c.586-.059,1.575,0,2.058-.085,1.477-.256,2.925-.453,4.42-.575a.5.5,0,0,0-.081-.989c-1.524.124-3,.325-4.508.586-.447.077-1.335.033-1.923.076a1.635,1.635,0,0,0-.813.224.569.569,0,0,0-.236.463.7.7,0,0,0,.279.544.494.494,0,0,0,.7-.048A.483.483,0,0,0,216.017,179.413ZM224,100.17a.485.485,0,0,0,.021-.143.6.6,0,0,0-.062-.3.457.457,0,0,0-.489-.259.486.486,0,0,0-.442.42,6.808,6.808,0,0,0-.01,1.182c.1.607.208,1.217.347,1.817.438,1.9.636,3.751.9,5.68.768,5.687.57,11.91.416,17.633a200.647,200.647,0,0,0,1.264,25.657c.452,4.43.427,9.135,1.3,13.5.894,4.448,2.435,8.667,3.439,13.083a.5.5,0,1,0,.966-.219c-1-4.408-2.539-8.62-3.432-13.061-.87-4.329-.841-9-1.289-13.4a199.386,199.386,0,0,1-1.259-25.529c.155-5.776.35-12.056-.426-17.793-.264-1.961-.467-3.839-.912-5.771-.133-.577-.242-1.164-.335-1.75A5.174,5.174,0,0,1,224,100.17ZM81.208,177.353a.5.5,0,0,1-.178.119.486.486,0,0,1-.166.033H80.8a.457.457,0,0,0,.405-.151Zm49.908-1.813c1.283-.635,3.353-.206,4.659.19a.5.5,0,1,0,.288-.95c-1.509-.457-3.905-.863-5.387-.129a.5.5,0,1,0,.44.889ZM80.475,173.5a.445.445,0,0,1,.042.1.411.411,0,0,0-.033-.092Zm49.683.046a1.791,1.791,0,0,0,.81-.271c.5-.281,1.092-.775,1.405-.927,1.834-.893,4.2-2.036,6.289-1.9a.5.5,0,0,0,.066-.991c-2.249-.15-4.813,1.034-6.79,2-.283.138-.789.536-1.259.836a3.2,3.2,0,0,1-.371.208.416.416,0,0,1-.15.054.5.5,0,1,0,0,.992Zm-120.33-8.2a71.954,71.954,0,0,0,6.917,5.255.5.5,0,0,0,.586-.8,71.153,71.153,0,0,1-6.825-5.177.5.5,0,1,0-.678.723ZM141.67,158.1c.044.3.124.829.169,1.037a13.8,13.8,0,0,0,.9,2.652c1.209,2.819.927,5.384,1.518,8.347a.5.5,0,0,0,.973-.195c-.606-3.033-.342-5.656-1.579-8.544a12.823,12.823,0,0,1-.838-2.471c-.063-.29-.119-.934-.2-1.25a.9.9,0,0,0-.172-.367.5.5,0,0,0-.542-.166.579.579,0,0,0-.383.361A.5.5,0,0,0,141.67,158.1Zm63.16,11.045a.488.488,0,0,0,.245.086.5.5,0,0,0,.529-.461.57.57,0,0,0-.483-.586,6.328,6.328,0,0,0-1.116-.052,35.864,35.864,0,0,0-4.852.728.5.5,0,1,0,.179.976,34.634,34.634,0,0,1,4.716-.712Zm-.217-.417c0,.017,0,.032,0,.048s0,.031.006.046A.49.49,0,0,1,204.613,168.732ZM79.013,89.263a1.762,1.762,0,0,0,.931.168l.061-.011c0,1.2.043,2.4.13,3.608.424,5.908.588,11.893.75,17.816.227,8.342.045,16.717.383,25.052.4,9.938.806,20.032.38,29.965a.5.5,0,0,1-.992-.043c.425-9.9.023-19.97-.379-29.882-.338-8.34-.155-16.719-.384-25.064-.16-5.909-.325-11.879-.747-17.774C79.053,91.812,79.006,90.538,79.013,89.263ZM11.466,160.37a9.458,9.458,0,0,1,.685.706c.756.9,1.667,2.179,1.832,2.363a.5.5,0,0,0,.738-.663c-.212-.235-1.631-2.248-2.407-2.988a1.722,1.722,0,0,0-.49-.354.645.645,0,0,0-.4-.036.5.5,0,0,0,.046.972Zm138.411-2.226a.464.464,0,0,0-.158-.01.5.5,0,0,0-.444.543.578.578,0,0,0,.22.424.554.554,0,0,0,.36.122.967.967,0,0,0,.5-.194,3.453,3.453,0,0,1,.549-.4,8.157,8.157,0,0,1,1.688-.365,32.53,32.53,0,0,1,7.058.035,57.8,57.8,0,0,1,18.642,5.219.5.5,0,0,0,.417-.9,58.807,58.807,0,0,0-18.967-5.3,33.368,33.368,0,0,0-7.273-.034,9.176,9.176,0,0,0-1.89.413,1.884,1.884,0,0,0-.466.274C150.045,158.019,149.954,158.086,149.877,158.144Zm7.446,2.747c2.391-.156,5.14,1.262,7.26,2.158a.5.5,0,0,0,.386-.915c-2.248-.949-5.177-2.4-7.711-2.233a.5.5,0,0,0,.065.99ZM138.846,120.6c-.71,3-2.36,5.762-3.016,8.822a30.551,30.551,0,0,0,.616,16.519c1.087,3.126,3.013,6.025,4.284,9.091a.5.5,0,1,0,.916-.38c-1.263-3.049-3.182-5.929-4.263-9.037a29.561,29.561,0,0,1-.583-15.985c.654-3.052,2.3-5.8,3.011-8.8a.5.5,0,1,0-.965-.227ZM82.483,134.149h0c.027.388-.053,1.887-.04,2.063a.482.482,0,0,0,.216.387.464.464,0,0,0,.534.021.475.475,0,0,0,.221-.272,10.217,10.217,0,0,0,.124-1.037.493.493,0,0,0-.069-.3c.007-.281.011-.554.01-.733a1.315,1.315,0,0,0-.068-.462.5.5,0,0,0-.928.334ZM19.072,93.984a.5.5,0,0,0-.9.022.592.592,0,0,0,.167.659c.455.46,3.077,2.038,3.392,2.35,1.741,1.726,2.707,4.276,3.576,6.518,3.363,8.675,3.919,18,4.015,27.189a.5.5,0,1,0,.991-.011c-.1-9.308-.674-18.749-4.081-27.536-.917-2.367-1.964-5.042-3.8-6.865C22.135,96.015,19.362,94.176,19.072,93.984Zm136.877,23c-.034.2-.095.543-.116.679a14.361,14.361,0,0,1-.454,1.865c-.446,1.474-1.112,2.852-1.695,4.274a.5.5,0,0,0,.918.377c.595-1.452,1.271-2.859,1.726-4.364a14.967,14.967,0,0,0,.483-1.994c.032-.193.122-.625.147-.839a.921.921,0,0,0,0-.257.475.475,0,0,0-.353-.4.5.5,0,0,0-.625.311A.494.494,0,0,0,155.949,116.986Zm46.75.118a1.9,1.9,0,0,1-.388-.62,3.946,3.946,0,0,1-.086-.732,1.306,1.306,0,0,0-.1-.425.513.513,0,0,0-.243-.227.489.489,0,0,0-.376-.015.542.542,0,0,0-.339.356.491.491,0,0,0,.072.478,5.114,5.114,0,0,0,.143.917,5.779,5.779,0,0,0,1.307,1.694l.026.03c.016.832.033,1.659.009,2.472a.5.5,0,0,0,.992.029c.078-2.654-.311-5.467.408-8.061a.5.5,0,1,0-.956-.264A16.274,16.274,0,0,0,202.7,117.1Zm-77.183-1.729c-.065.484-.259,1.878-.372,2.478a5.351,5.351,0,0,1-1.319-.132c-1.086-.2-2.283-.562-2.948-.651-1.526-.206-3.069-.189-4.6-.4a70.2,70.2,0,0,0-7.233-.579.5.5,0,1,0-.035.99,69.088,69.088,0,0,1,7.132.573c1.528.212,3.073.194,4.6.4.654.088,1.83.443,2.895.643a4.894,4.894,0,0,0,2.048.063.508.508,0,0,0,.349-.363c.064-.2.269-1.232.394-2.091a6,6,0,0,0,.091-1.237.574.574,0,0,0-.285-.446,5.206,5.206,0,0,0-2.12-.534c-1.052-.072-2.177.028-3.07-.023-2.475-.14-4.948-.6-7.434-.786-.41-.03-2.036.044-3.1-.05a5.064,5.064,0,0,1-.648-.116.5.5,0,0,0-.689.712.925.925,0,0,0,.352.224,3.627,3.627,0,0,0,.9.168c1.072.094,2.7.021,3.118.051,2.491.183,4.969.648,7.45.787.748.043,1.656-.02,2.55,0A5.57,5.57,0,0,1,125.516,115.375Zm-43.043.709a7.567,7.567,0,0,0,.024,1.657.648.648,0,0,0,.617.556.625.625,0,0,0,.606-.532,4.989,4.989,0,0,0-.176-1.988.919.919,0,0,0-.089-.148.419.419,0,0,0-.1-.176.459.459,0,0,0-.535-.137.474.474,0,0,0-.309.317,1.223,1.223,0,0,0-.045.348C82.464,116.017,82.468,116.052,82.473,116.084Zm63.853-6.724a18.949,18.949,0,0,1-2.786,5.6,13.836,13.836,0,0,1-1.142,1.746.5.5,0,0,0,.716.688,14.949,14.949,0,0,0,1.239-1.866,19.957,19.957,0,0,0,2.927-5.895.5.5,0,0,0-.954-.272Zm-97.364,5.645a.456.456,0,0,0,.106.069.362.362,0,0,0,.1.033A.465.465,0,0,1,48.962,115.005Zm.7-.856a.5.5,0,0,1,.093.208.351.351,0,0,0-.047-.14.426.426,0,0,0-.046-.068.2.2,0,0,0-.024-.027ZM37.229,79.51l-1.137.32c-1.268.39-2.5.868-3.743,1.327-4.911,1.809-10.62,2.07-15.092,4.914-1.865,1.188-4.364,2.718-5.656,4.572-1.373,1.97-1.737,4.53-2.3,6.807A116.551,116.551,0,0,0,7,113.548a.5.5,0,0,0,.988.1,115.171,115.171,0,0,1,2.285-15.961c.531-2.163.843-4.605,2.146-6.477,1.223-1.755,3.609-3.178,5.376-4.3,4.412-2.807,10.054-3.036,14.9-4.821,1.227-.453,2.441-.926,3.692-1.309a10.966,10.966,0,0,0,1.365-.417A.549.549,0,0,0,38.024,80a.5.5,0,0,0-.8-.493Zm98.227,13.565a.694.694,0,0,0,.025.148c.088.3.627,1.753.68,1.893.8,2.053,1.389,4.273,2,6.391a.5.5,0,0,0,.614.339l.014-.005.01.006a.5.5,0,0,0,.686-.143c2.319-3.542,6.757-4.739,10.485-6.1,1.895-.694,3.782-1.531,5.642-2.318,1.9-.8,3.915-1.332,5.866-1.993.671-.228,1.309-.544,1.978-.77.23-.077.459-.164.68-.263l.279-.123a.5.5,0,0,0,.275-.2.486.486,0,0,0,.082-.325.479.479,0,0,0-.2-.349.468.468,0,0,0-.437-.08c-.051.015-.357.15-.4.172-.194.086-.394.162-.6.23-.669.226-1.307.541-1.98.769-1.972.669-4.014,1.207-5.933,2.019-1.844.781-3.716,1.612-5.6,2.3-3.756,1.376-8.159,2.661-10.663,6.047-.57-1.989-1.134-4.044-1.882-5.96-.05-.129-.609-1.693-.65-1.806a.46.46,0,0,0-.043-.133.494.494,0,0,0-.221-.228.483.483,0,0,0-.092-.247,6.012,6.012,0,0,0-3.61-2.4,19.535,19.535,0,0,1-2.57-.815c-2.166-.94-3.813-2.684-5.906-3.765a19.565,19.565,0,0,0-3.053-.818c-1.817-.574-3.647-1.066-5.486-1.561a4.8,4.8,0,0,1-1.613-.685c-.189-.135-.623-.552-.7-.594a.475.475,0,0,0-.579.056.507.507,0,0,0-.048.714.482.482,0,0,0,.209.167c.149.135.425.383.542.465a5.745,5.745,0,0,0,1.931.836c1.825.49,3.642.978,5.443,1.549a18.488,18.488,0,0,1,2.9.752c2.113,1.092,3.781,2.846,5.968,3.793a20.669,20.669,0,0,0,2.688.86,5.108,5.108,0,0,1,3.083,2.03A.475.475,0,0,0,135.456,93.075Zm-51.8,5.672a.5.5,0,0,0-.3-.543l.01-.1a.5.5,0,0,0-.334-.627.511.511,0,0,0-.631.388c-.035.155-.124,1.041-.124,1.152a8.285,8.285,0,0,0,.007,1.909.75.75,0,0,0,.523.568.612.612,0,0,0,.481-.074.773.773,0,0,0,.313-.426,4.705,4.705,0,0,0,.086-1.383C83.679,99.252,83.66,98.789,83.659,98.747ZM207.313,85.964a.5.5,0,0,0-.888.439,1.281,1.281,0,0,0,.627.557,13.207,13.207,0,0,0,1.47.512,43.11,43.11,0,0,1,4.331,1.99,21.239,21.239,0,0,1,9.208,8.841.5.5,0,1,0,.872-.473,22.241,22.241,0,0,0-9.646-9.26,43.771,43.771,0,0,0-4.432-2.032c-.219-.079-.761-.216-1.191-.391A3,3,0,0,1,207.313,85.964ZM82.7,98.411l0,0-.015-.008Zm-.17-.125a.488.488,0,0,0,.076.07.5.5,0,0,0,.078.048A.515.515,0,0,1,82.529,98.286Zm0,0-.015-.019Zm76.4-2.812a.5.5,0,0,0-.76.542.533.533,0,0,0,.153.249.858.858,0,0,0,.421.185,12.644,12.644,0,0,0,1.56.075,39.967,39.967,0,0,0,4.919-.038.5.5,0,1,0-.062-.99,39.206,39.206,0,0,1-4.8.038c-.04,0-.676.007-1.152-.028C159.107,95.5,158.985,95.482,158.927,95.474Zm17.365.125a24.9,24.9,0,0,1,3.173-.471c3.55-.7,7.091-1.446,10.636-2.161a.5.5,0,1,0-.2-.972c-3.544.715-7.084,1.46-10.632,2.16-.278.055-2.19.214-3.042.427a1.942,1.942,0,0,0-.46.169.666.666,0,0,0-.231.215.5.5,0,0,0,.752.633Zm-39.883-2.391a.472.472,0,0,1-.088.148.506.506,0,0,1-.15.117l-.006,0,.006,0a.462.462,0,0,0,.238-.265l.006-.014v-.006Zm27.4-3.395a.5.5,0,0,0,.2.256.519.519,0,0,0,.065.037A.455.455,0,0,1,163.809,89.813Zm.044-.408a.463.463,0,0,0-.066.183.49.49,0,0,0,0,.15A.486.486,0,0,1,163.853,89.405Zm-1.9-15.943c.183.288.492.7.531.77a14.181,14.181,0,0,1,1.628,3.036,27.289,27.289,0,0,1,1.011,7.233,10.482,10.482,0,0,1-.307,4,.5.5,0,1,0,.936.329,11.421,11.421,0,0,0,.363-4.351,28.287,28.287,0,0,0-1.051-7.489,15.2,15.2,0,0,0-1.722-3.251c-.035-.06-.318-.428-.491-.687a28.037,28.037,0,0,0,4.164-2.448.5.5,0,0,0-.576-.807,29.169,29.169,0,0,1-6.884,3.571,13.02,13.02,0,0,1-6.285,1.158,3.644,3.644,0,0,1-1.959-.652c-.1-.088-.569-.765-.827-1.032a.784.784,0,0,0-.507-.261.5.5,0,0,0-.22.941c.058.067.269.308.406.487a7.206,7.206,0,0,0,.51.625,4.624,4.624,0,0,0,2.473.876,13.962,13.962,0,0,0,6.753-1.212Q160.945,73.909,161.956,73.462ZM76.907,78.805a.5.5,0,0,0-.641-.738.66.66,0,0,0-.238.27,3.081,3.081,0,0,0-.174.594,10.484,10.484,0,0,0-.156,2.116,22.252,22.252,0,0,0,.374,4.846,6.8,6.8,0,0,0,1.415,3.012.5.5,0,0,0,.747-.654,5.833,5.833,0,0,1-1.2-2.579,21.273,21.273,0,0,1-.347-4.625,9.577,9.577,0,0,1,.134-1.914C76.835,79.09,76.89,78.873,76.907,78.805ZM94.7,77.8a2.338,2.338,0,0,1,1.075,2.377,25.087,25.087,0,0,0-.088,3.445,3.871,3.871,0,0,0,.433,1.152,1.962,1.962,0,0,1,.345,1.246,2.927,2.927,0,0,1-.39.947,4.114,4.114,0,0,0-.516,1.287.5.5,0,0,0,.979.164,3.162,3.162,0,0,1,.408-.977,3.89,3.89,0,0,0,.5-1.281,2.6,2.6,0,0,0-.322-1.6,3.881,3.881,0,0,1-.46-1.1,24.6,24.6,0,0,1,.1-3.279,3.263,3.263,0,0,0-1.618-3.266.5.5,0,1,0-.448.886ZM83.02,80.614c.04,1.472.095,2.882.04,4.362a7.936,7.936,0,0,1-.212,2.4.5.5,0,0,0,.93.349,9.037,9.037,0,0,0,.274-2.712c.056-1.5,0-2.933-.041-4.427a.5.5,0,1,0-.991.028Zm100.5-68.155c.81.005,1.622.022,2.436.046,2.846.081,5.86.282,8.47,1.587a29.645,29.645,0,0,1,7.24,5.246,21.436,21.436,0,0,1,4.177,5.183c1.809,3.375,3.606,7.411,3.726,11.336a24.864,24.864,0,0,1-.373,4.372c-.006.043-.032.14-.067.268l-.02.076a2.9,2.9,0,0,0-.97,1.517,10.535,10.535,0,0,1-.006,1.587.5.5,0,0,1,.665.717,2.212,2.212,0,0,0-.446,1.058,1.082,1.082,0,0,0,.257.905,2.106,2.106,0,0,0,.505.274,1.326,1.326,0,0,1,.546.479,2.053,2.053,0,0,1,.173,1.293c-.041.371-.136.765.281,1.117a.5.5,0,0,1-.642.757,1.8,1.8,0,0,1-.654-1.708c.015-.17.04-.341.049-.507a.769.769,0,0,0-.069-.46c-.021-.037-.071-.051-.115-.076-.079-.044-.165-.085-.249-.125a1.941,1.941,0,0,1-.541-.357,2.561,2.561,0,0,1,.112-3.247c-.891.4-1.674-.2-2.334,1.067a2.808,2.808,0,0,0-.2.511c-.857-.314-1.767.926-2.511.8-.981-.164-1.233-1.149-2.436-.408a2.059,2.059,0,0,0-.584.522,1.022,1.022,0,0,0-.934-.464c-.895.149-1.59,1.207-2.32,1.3-1.475.184-3.716-2.342-5.062.015-.471.823.757,1.323.525,2.174-.207.758-1.067,1.148-.744,2.116.36,1.082,1.9.593,2.67.758.893.192,1.3.847,2.319.773.779-.055,1.149-.875,1.693-1.3.3-.233.9-.067,1.269-.233a1.983,1.983,0,0,0,.488-.318c1.8,1.268,3.6,2.284,5.684.828a6.836,6.836,0,0,0,.656-.485c1.579.828,3.481,1.621,4.9.632l-.013,0a.494.494,0,0,1-.594-.372,2.217,2.217,0,0,1,.256-1.584,2.858,2.858,0,0,0,.59-1.62.5.5,0,0,1,.452-.538.508.508,0,0,1,.294.067c0-.022,0-.042,0-.064,0,.022,0,.042,0,.064a.5.5,0,0,1,.243.384,3.161,3.161,0,0,1-.552,1.892,1.576,1.576,0,0,0-.316,1.176.5.5,0,0,1-.119.448c1.046,1.72,2.463,3.292,2.888,5.33,1.457,6.993-2.632,15.822-10.258,16.826a21.316,21.316,0,0,1-8.567-.442,6.79,6.79,0,0,1-2.219-1.116c-.336-.258-.71-1.278-.9-.9a3.742,3.742,0,0,0-.164,1.025.49.49,0,0,1,.141.048.556.556,0,0,1,.272.34c.082.258.2,1.419.326,1.93a13.211,13.211,0,0,0,2.179,4.753c2.369,3.113,6.53,4.106,10.029,5.39a.5.5,0,1,1-.342.931c-3.668-1.346-7.992-2.456-10.477-5.721a14.289,14.289,0,0,1-2.354-5.12c-.11-.457-.28-1.669-.3-1.842a.5.5,0,0,1,.251-.677c-.212-.246-.424-.5-.636-.752a32.1,32.1,0,0,1-6.651-12.626c-.371-1.388-.979-2.746-1.236-4.165-.084.078-.15.137-.188.168a9.779,9.779,0,0,1-3.084,1.811.5.5,0,0,1-.327-.937,8.868,8.868,0,0,0,2.788-1.647,10.163,10.163,0,0,0,.966-.976.5.5,0,0,1,.244-.325c.008-.014.014-.026.02-.035a18.092,18.092,0,0,0,1.386-2.465c1.11-2.713,2.12-8.384-1.693-9.746a3.643,3.643,0,0,0-2.079.278c-2.482.584-4.634,3.327-6.159,5.234a16.864,16.864,0,0,1-1.663,2.248c-.47.068-1.424-1.209-1.693-1.524-2.761-3.22-3.287-7.822-4.6-11.7-.5-1.479-.808-3.009-1.339-4.48a11.164,11.164,0,0,0-.57-1.309,3.093,3.093,0,0,1-.267-.584l0,0c-2.989-1.565-6.282-2.152-9.252-3.8-.9-.5-1.749-1.437-2.6-1.863-.159-.079-.727.525-.833.615-.056.049-.377.312-.339.294-2.959,2.959-3.435,7.664-4.034,11.656-.171,1.142-.1,2.483-.307,3.7.007.072.011.144.015.219.013.405-.027.857,0,1.128a41.767,41.767,0,0,0,.676,4.733.491.491,0,0,1-.04.331.551.551,0,0,1,0,.134.494.494,0,0,1-.2.322c-.1.113-1.019,1.125-1.063,1.165a20.921,20.921,0,0,0-2.442,2.247,2.321,2.321,0,0,0-.7,1.566,1.186,1.186,0,0,0,.564.771c.383.29.836.517,1.154.72A2.822,2.822,0,0,1,147,55.144a35.729,35.729,0,0,1,.591,4.892.2.2,0,0,0,.034-.012c.483-.177,1.109-.471,1.208-.509,1.705-.662,3.237-1.7,4.922-2.4a.5.5,0,0,1,.383.916c-1.693.708-3.232,1.746-4.946,2.412-.122.046-1.021.465-1.523.615.046.584.1,1.168.167,1.754a43.632,43.632,0,0,0,2.03,8.931.5.5,0,1,1-.938.323,44.573,44.573,0,0,1-2.076-9.139c-.3-2.539-.285-5.063-.823-7.571a1.936,1.936,0,0,0-.924-1.412,10.577,10.577,0,0,1-1.48-.981,1.956,1.956,0,0,1-.692-1.257,3.3,3.3,0,0,1,.927-2.289,22.107,22.107,0,0,1,2.547-2.356c.041-.037.7-.8.982-1.087a43.963,43.963,0,0,1-.674-4.754c0-.036-.006-.075-.008-.117-6.485-.442-4.218-10-2.041-13.7a24.4,24.4,0,0,1,1.641-2.5,18.078,18.078,0,0,0-4.432,5.724.5.5,0,0,1-.884-.45,18.48,18.48,0,0,1,9.181-8.86,17.121,17.121,0,0,1,2.252-1.278,17.588,17.588,0,0,1,2.388-.833c.393-.122,1.624-.181,1.214-.223l4.8-1.862c5.142-1.439,10.124-3.406,15.433-4.21a44.875,44.875,0,0,1,6.658-.451ZM92.348,71.444a4.622,4.622,0,0,1,1.335.48,12.4,12.4,0,0,1,2.036,1.843,8.749,8.749,0,0,0,2.391,1.875,17.9,17.9,0,0,0,4.641,1.312,17.145,17.145,0,0,1,4.419,1.238,18.868,18.868,0,0,1,3.579,2.781.5.5,0,1,0,.636-.761A19.805,19.805,0,0,0,107.6,77.3a18.108,18.108,0,0,0-4.669-1.32,16.889,16.889,0,0,1-4.389-1.229,7.741,7.741,0,0,1-2.115-1.677,13.454,13.454,0,0,0-2.2-1.98,6.179,6.179,0,0,0-1.912-.644.718.718,0,0,0-.7.377.5.5,0,0,0,.738.618Zm-27.6,8.02a.493.493,0,0,0,.187.138.447.447,0,0,0,.2.028A.494.494,0,0,1,64.745,79.464ZM58.316,68.526a.494.494,0,0,0,.482-.156.645.645,0,0,0,.2-.5.488.488,0,0,0-.241-.386.528.528,0,0,0-.359-.07,1.4,1.4,0,0,0-.39.149c-.441.229-1.29.785-1.661,1.043-1.219.844-2.381,1.709-3.626,2.515-3.627,2.347-8.045,3.484-11.493,5.947a.5.5,0,0,0,.576.807c3.436-2.455,7.841-3.582,11.456-5.922,1.254-.81,2.424-1.682,3.651-2.532C57.218,69.211,57.888,68.766,58.316,68.526ZM91.127,76.3a16.37,16.37,0,0,0,1.966-3.922.433.433,0,0,1,.557-.276.456.456,0,0,1,.267.577A17.158,17.158,0,0,1,92.306,76.1,5.264,5.264,0,0,0,91.127,76.3Zm71.636-3.11a.451.451,0,0,1-.026.064c-.011.02-.023.041-.036.061A.5.5,0,0,0,162.763,73.186ZM95.7,66.646a.5.5,0,0,0-.511-.169,3.475,3.475,0,0,1-1.632-.265,38.128,38.128,0,0,1-5.051-2.453.5.5,0,0,0-.418.9,39.028,39.028,0,0,0,5.186,2.5c.135.04.285.083.442.126a4.288,4.288,0,0,0-1.625,1.854.5.5,0,1,0,.892.434,3.637,3.637,0,0,1,3.618-2c1.684-.03,3.549.37,5.142.3,3.326-.153,5.279-1.892,7.382-4.258a9.482,9.482,0,0,0,1.984-4.536,26.041,26.041,0,0,0,.138-7.5,22.389,22.389,0,0,1-.117-2.666c0-.093-.022-1.08-.063-1.268a.5.5,0,1,0-.984.17.444.444,0,0,0,.015.063c.007.148.041.962.039,1.032a23.547,23.547,0,0,0,.125,2.785,24.958,24.958,0,0,1-.128,7.2,8.5,8.5,0,0,1-1.75,4.063c-1.915,2.154-3.66,3.787-6.688,3.926-1.583.073-3.438-.327-5.113-.3A8.234,8.234,0,0,0,95.7,66.646Zm97.019-11.68a.5.5,0,0,0-.076-.886.614.614,0,0,0-.41-.022.63.63,0,0,0-.394.354,1.517,1.517,0,0,0-.108.446,4.1,4.1,0,0,1-.046.421,12.479,12.479,0,0,0-.167,4.113,13.936,13.936,0,0,0,5.157,10.061.5.5,0,0,0,.6-.787,12.953,12.953,0,0,1-4.774-9.36,11.515,11.515,0,0,1,.141-3.787,3.5,3.5,0,0,0,.062-.472C192.715,55.023,192.717,54.994,192.722,54.966Zm8.3-1.354a.506.506,0,0,0-.1-.225.494.494,0,0,0-.7-.083.5.5,0,0,0-.169.585,1.862,1.862,0,0,0,.268.454c.228.3.577.7.612.744a6.428,6.428,0,0,1,1.149,2.323A20.568,20.568,0,0,1,202.578,65a.5.5,0,1,0,.987.09,21.52,21.52,0,0,0-.523-7.948,7.388,7.388,0,0,0-1.323-2.666A10.285,10.285,0,0,1,201.024,53.612Zm4.643,1.487a1.042,1.042,0,0,1,.295.649,3.575,3.575,0,0,1-.055,1.125,11.09,11.09,0,0,1-1.292,3.317.5.5,0,0,0,.842.526,11.3,11.3,0,0,0,1.515-4.4,2.386,2.386,0,0,0-.641-1.954.5.5,0,1,0-.664.736ZM71.005,46.915l.044.036a8.087,8.087,0,0,1,.627,1.123A16.231,16.231,0,0,0,73.8,51.012a.5.5,0,1,0,.732-.668,15.248,15.248,0,0,1-1.994-2.76,8.622,8.622,0,0,0-.745-1.289,2.688,2.688,0,0,0-.327-.281.848.848,0,0,0-.287-.137.484.484,0,0,0-.35.048c-.323-.167-.729-.345-.834-.414a7.3,7.3,0,0,1-1.719-1.991,11.8,11.8,0,0,1-.779-8.183c1.392-5.105,6.766-5.491,10.03-1.955,1.391,1.507,1.147,4.171,2.462,5.485.052-.074,1.428-.016,1.821-.712,1.187-2.1,1.352-4.685,1.884-6.989,1.178-5.108,3.579-13.185,8.291-16.184,4.593-2.923,10.812,2.537,15.466,1.609v0c.737-.412,1.254-2.2,1.473-2.963A10.026,10.026,0,0,0,106.279,3.48c-1.289-1.29-2.983-1.692-4.643-2.232a9.963,9.963,0,0,0-1.607-.391,5.779,5.779,0,0,1-.725-.2,6.227,6.227,0,0,1,.839.6A9.952,9.952,0,0,1,101.1,2.5c.116.074.183.151.178.233-.062-.076-.121-.154-.178-.233a10.7,10.7,0,0,0-2.649-.658A90.524,90.524,0,0,0,89.132.26c-6.062-.472-12.438-.5-18.181,1.678C68.974,2.69,67.687,4.49,65.8,5.29c-2.724,1.152-6.32,1.554-8.428,3.745a13.528,13.528,0,0,0-1.727,2.722c-1.238,3.179-2.434,6.178-2.722,9.627a64.024,64.024,0,0,0,3.091,24.942c1.474,4.542,3.811,8.811,4.878,13.446,0,0-.009.467,0,.519,0,.024,0,.048.008.071a15.279,15.279,0,0,0,1.281-1.219C65.566,55.43,69.213,51.653,71.005,46.915Zm38.363,6.743a27.85,27.85,0,0,1-7.214-2.352.5.5,0,1,0-.425.9,29.041,29.041,0,0,0,7.5,2.439.5.5,0,0,0,.144-.983Zm91.586.3q-.019.029-.042.057a.511.511,0,0,1-.052.052A.448.448,0,0,0,200.954,53.957Zm4.792-6.9a1.255,1.255,0,0,1,.148.118,2,2,0,0,1,.385.557,1.4,1.4,0,0,1-.025.772,3.242,3.242,0,0,0-.084.815,1.582,1.582,0,0,0,.337.89c.072.095.149.184.219.276a.544.544,0,0,1,.13.235.792.792,0,0,1-.111.467.5.5,0,0,0,.9.421,1.825,1.825,0,0,0,.2-.969,1.41,1.41,0,0,0-.291-.7c-.079-.107-.169-.207-.251-.319a.627.627,0,0,1-.144-.353,3.187,3.187,0,0,1,.1-.747,2.105,2.105,0,0,0-.048-1.118,2.9,2.9,0,0,0-1.046-1.251.829.829,0,0,0-1.01.117.5.5,0,0,0,.589.791Zm-22.734-2.868a1.65,1.65,0,0,0-1.312.247,5.829,5.829,0,0,0-1.227,1.142,10.25,10.25,0,0,0-2.339,5.739.5.5,0,1,0,.987.092,9.244,9.244,0,0,1,2.1-5.18,5.853,5.853,0,0,1,.822-.826.851.851,0,0,1,.7-.258.5.5,0,1,0,.265-.956Zm21.195,5.182a1.493,1.493,0,0,1-.77,1.47.5.5,0,1,0,.566.814,2.435,2.435,0,0,0,1.184-2.439.5.5,0,0,0-.98.155Zm-9.774-1.148a4.628,4.628,0,0,1,.576.211c.463.293.44.76.437,1.228a4.781,4.781,0,0,0,.113,1.406.5.5,0,1,0,.95-.285,5.945,5.945,0,0,1-.075-1.453,1.94,1.94,0,0,0-.894-1.734,2.862,2.862,0,0,0-.961-.359.913.913,0,0,0-.646.134.5.5,0,0,0,.5.852Zm4.348-.937c.135.025.306.067.359.2a1.075,1.075,0,0,1-.031.606,3.589,3.589,0,0,0-.128,1.082,1.515,1.515,0,0,0,.4.831c.1.128.244.237.181.49a.5.5,0,1,0,.962.24,1.265,1.265,0,0,0-.157-1.073,4.146,4.146,0,0,0-.256-.332.488.488,0,0,1-.138-.265,3.709,3.709,0,0,1,.152-.974,1.8,1.8,0,0,0-.058-.974,1.486,1.486,0,0,0-1.124-.811c-.04-.007-.315-.024-.382-.027a.488.488,0,0,0-.38.083.465.465,0,0,0-.209.406.472.472,0,0,0,.128.33.461.461,0,0,0,.287.158C198.427,47.262,198.735,47.281,198.781,47.283Zm1.853.625a2.043,2.043,0,0,0,1.1,1.514,2.607,2.607,0,0,0,2.365-.379.5.5,0,1,0-.527-.842,1.618,1.618,0,0,1-1.431.317,1.124,1.124,0,0,1-.541-.841.5.5,0,1,0-.965.231Zm-90.292.257a.456.456,0,0,0,.162.054.5.5,0,0,0,.163-.006A.5.5,0,0,1,110.342,48.165Zm101.611-4.519.08.022a1.72,1.72,0,0,1,1.382,1.424,5.261,5.261,0,0,1-.025,2.04.5.5,0,1,1-.968-.22,3.664,3.664,0,0,0,.087-.923,3.478,3.478,0,0,0-.062-.676c-.139-.611-.56-.659-.959-.764a2.244,2.244,0,0,1-1.3-.731,1.632,1.632,0,0,1-.319-.9c-.013-.134-.018-.271-.034-.406a.648.648,0,0,0-.112-.343c-.133-.171-.3-.125-.436-.142a1.172,1.172,0,0,1-.506-.177.5.5,0,1,1,.547-.828.2.2,0,0,0,.092.021c.073.01.147.016.222.026a1.221,1.221,0,0,1,.864.491,1.7,1.7,0,0,1,.323.914c.013.136.019.274.034.409a.594.594,0,0,0,.1.316,1,1,0,0,0,.521.319c.1.031.2.057.295.084h0c.056.014.112.028.167.044l-.069-.024Zm.24,3.817.013-.016.013-.015Zm.066-.07-.023.021.028-.025Zm-13.3-.665a.506.506,0,0,1-.044.243.5.5,0,0,1-.162.2A.453.453,0,0,0,198.958,46.728Zm-127.721.1a.452.452,0,0,0,.125-.066.48.48,0,0,0,.1-.095A.49.49,0,0,1,71.237,46.832Zm39.139-10.969c.061.078.378.481.412.519.507.563.894,1.217,1.4,1.777a14.59,14.59,0,0,1,1.9,2.346,1.975,1.975,0,0,1,.1,2.315c-.851,1.107-2.19,1.775-3.09,2.843a.5.5,0,0,0,.76.639c.908-1.08,2.257-1.76,3.117-2.879a2.658,2.658,0,0,0,.28-2.781,12.112,12.112,0,0,0-2.335-3.149c-.506-.558-.892-1.212-1.4-1.775-.048-.052-.412-.538-.521-.629a.5.5,0,0,0-.442-.115.5.5,0,0,0-.186.889Zm42.065,5.874a.635.635,0,0,0-.073-.015.47.47,0,0,0-.539.3,3.579,3.579,0,0,0-.065.381l0-.013c-.025.206-.055.412-.077.617a7.625,7.625,0,0,0-.09,1.537.991.991,0,0,0,.477.818.522.522,0,0,0,.344.04.568.568,0,0,0,.375-.291,3.7,3.7,0,0,0,.212-.862,12.889,12.889,0,0,0-.027-1.819,1.373,1.373,0,0,0-.087-.393.517.517,0,0,0-.265-.261A.548.548,0,0,0,152.441,41.737Zm-.575.73a.45.45,0,0,1-.044-.1.54.54,0,0,0,.044.108Zm-81.4-5.72.475-.527a2.326,2.326,0,0,1,1.966-.44c1.827.35,2.486,1.806,2.65,3.531a.5.5,0,0,0,.989-.094c-.209-2.188-1.135-3.967-3.452-4.411a3.291,3.291,0,0,0-2.779.644,5.309,5.309,0,0,0-.821.968.624.624,0,0,0-.029.449.524.524,0,0,0,.343.342.5.5,0,0,0,.63-.309A.515.515,0,0,0,70.467,36.747Zm35.1-2.1a.494.494,0,0,0-.105-.433.483.483,0,0,0-.351-.18.492.492,0,0,0-.427.181.868.868,0,0,0-.146.3c-.075.251-.162.762-.167.793a6.311,6.311,0,0,0-.034,2.043,1.837,1.837,0,0,0,.235.62.617.617,0,0,0,1.06-.048,2.906,2.906,0,0,0,.2-.866,6.349,6.349,0,0,0,0-1.882A.93.93,0,0,0,105.568,34.643Zm47.922.33a5.2,5.2,0,0,1,3.382-.354,8.334,8.334,0,0,1,4.855,2.478.5.5,0,0,0,.782-.611,9.4,9.4,0,0,0-5.472-2.846,6.209,6.209,0,0,0-4.042.472.5.5,0,0,0,.5.861Zm-42.747.976.022,0Zm63.885-13.035a5.646,5.646,0,0,0,1.378,2.609,25.371,25.371,0,0,0,3.155,2.935c4.442,3.7,9.064,6.575,15.1,6.36a.5.5,0,1,0-.034-.992c-5.777.206-10.18-2.589-14.43-6.131a24.207,24.207,0,0,1-3.033-2.811,4.633,4.633,0,0,1-1.155-2.124.5.5,0,0,0-.981.154Zm-67.263-5.276c.316.8.912,1.467,1.159,2.3,1.353,4.617,1.274,9.332,1.378,14.079a.5.5,0,1,0,.992-.021c-.106-4.836-.039-9.635-1.419-14.338-.254-.865-.861-1.557-1.187-2.387a.5.5,0,0,0-.923.363Zm76.812,11.081a4.757,4.757,0,0,0,2.756.982,28.8,28.8,0,0,0,4.208-.181.5.5,0,0,0-.061-.989,27.808,27.808,0,0,1-4.064.182,3.763,3.763,0,0,1-2.188-.743.5.5,0,0,0-.651.749Zm-77.9-3.6.018.011-.025-.016a.524.524,0,0,0-.1-.048l-.307-.164a3.739,3.739,0,0,0-.745-.123,6.069,6.069,0,0,0-1.954.178,12.133,12.133,0,0,0-5.067,3.063.5.5,0,0,0,.66.742,11.169,11.169,0,0,1,4.656-2.844,5.053,5.053,0,0,1,1.629-.15,2.805,2.805,0,0,1,.533.084l.174.1c1.006.669.942-.549.576-.808l-.136-.072a.442.442,0,0,0-.169-.028.333.333,0,0,1,.15.018l.019.01A.471.471,0,0,1,106.276,25.116Z" fill="#323232" fill-rule="evenodd"/></g></svg>