<?xml version="1.0" encoding="UTF-8" standalone="no"?><svg xmlns="http://www.w3.org/2000/svg" xmlns:xlink="http://www.w3.org/1999/xlink" fill="#000000" height="493.8" preserveAspectRatio="xMidYMid meet" version="1" viewBox="-0.3 -0.1 494.2 493.8" width="494.2" zoomAndPan="magnify"><g data-name="Layer 31" id="change1_1"><path d="M131.09,17.48a3.88,3.88,0,0,1-4-3.76c-.07-2.35,1.77-4.05,4.38-4.06a3.79,3.79,0,0,1,3.87,3.7A4.22,4.22,0,0,1,131.09,17.48ZM89.9,51.89a4.69,4.69,0,0,0-1.42-1.61,40.16,40.16,0,0,1-7.71-9.75,6,6,0,0,1-.93-2.3A1.75,1.75,0,0,1,82,36.11a6.2,6.2,0,0,1,2.28,1c2.09,1.25,4.15,2.54,6.24,3.79a94,94,0,0,0,24.3,10.75A50.39,50.39,0,0,0,128.5,53.4,22.8,22.8,0,0,0,141,49.71c2.4-1.59,4.78-3.2,7.2-4.77s4.85-3.54,7.6-4.82A11.81,11.81,0,0,0,158.29,38a11.35,11.35,0,0,1,3-2.42c.15.91-.41,1.42-.78,2A39.36,39.36,0,0,1,154,45c-11,9.56-23.43,16.21-37.9,18.62-13.76,2.29-26.91.51-39.19-6.36a46.59,46.59,0,0,1-17-16.07,6.91,6.91,0,0,1-.5-.82,2,2,0,0,1,3-2.67,26.26,26.26,0,0,1,2.12,1.66,63.92,63.92,0,0,0,21.1,11.5A14.92,14.92,0,0,0,89.9,51.89Zm308.3,4.29c-.12-.29.09-.47.21-.69.56-1.1.42-1.6-.57-2.19A2.61,2.61,0,0,0,394,54.51c-1.76,3.62.57,7.75,4.86,8.32,3.24.43,6.46.8,9.45,2.51,1.32-4.77,4.54-7.78,8.44-10.19a34.08,34.08,0,0,1,9-3.72c2.73-.76,5.58-.72,8.35-1.12.7-.1,1.39-.23,2.08-.35s1.25-.28,1.88-.4a4.7,4.7,0,0,0,2.05-.82c-.76,0-1.14.06-1.51.11a76.85,76.85,0,0,1-20.27-.36,98.09,98.09,0,0,1-10.81-2.56,25.51,25.51,0,0,0-7.57-1,8.4,8.4,0,0,0-4.84,1.6,2.83,2.83,0,0,0-1.41,2.57c.76-.05,1.39-.11,2-.11a5.6,5.6,0,0,1,4.45,1.86,3.93,3.93,0,0,1,1,3.54C400.9,56,399.81,56.65,398.2,56.18ZM278.6,76c-.13-.23-.15-.38-.24-.43-5.44-3.22-9.31-7.91-12.41-13.33A49.13,49.13,0,0,0,262,56.31,10.55,10.55,0,0,0,258,52.89c-2.89-1.25-5.35,0-5.8,3.15a8.2,8.2,0,0,0,1.58,6.52,35.3,35.3,0,0,0,20.9,13A12,12,0,0,0,278.6,76Zm140.22,2.54c-.28,0-.86,0-1.42-.15a2.8,2.8,0,0,1-2.68-2.58,9,9,0,0,1,.5-5.09,16.38,16.38,0,0,1,3.28-5.15,37.57,37.57,0,0,1,16.41-10.27,7.34,7.34,0,0,1,2.46-.41c.59,0,1,.3.87,1a14.05,14.05,0,0,1-.4,2.26,37.48,37.48,0,0,1-10.08,16.32,16.62,16.62,0,0,1-5.1,3.36A9.77,9.77,0,0,1,418.82,78.52Zm-17.46-5.29a2.68,2.68,0,0,1,2.86,2.86,2.87,2.87,0,0,1-2.91,3.07,2.8,2.8,0,0,1-2.92-2.84A3.05,3.05,0,0,1,401.36,73.23Zm39.35-20.78a45.4,45.4,0,0,1-8.11,1.34,26.66,26.66,0,0,0-7.3,1.57,19.07,19.07,0,0,0-12.24,13.31,2.82,2.82,0,0,0,0,2,12.72,12.72,0,0,1,.92,7c-.17,1.48-.13,1.51,1.34,1.42,2.06-.12,4.17-.31,6.06.56a5.08,5.08,0,0,0,4.41-.06c.88-.37,1.79-.69,2.64-1.14,5.95-3.11,9.12-8.2,10.36-14.65C439.54,60.1,439.43,56.29,440.71,52.45ZM419.92,91.63a3.22,3.22,0,0,1-3,3.11,2.93,2.93,0,0,1-3-2.84,3,3,0,0,1,3-3A2.81,2.81,0,0,1,419.92,91.63Zm7.92-6.84a32.75,32.75,0,0,1,1.49,3.77,26.63,26.63,0,0,1,.73,4.16,18.73,18.73,0,0,0,.37,2.46,5.85,5.85,0,0,0,8.15,3.92,2.56,2.56,0,0,0,1.12-4c-.48-.69-1.08-1.12-1.93-.54-.31.21-.63.56-1,.19a1.11,1.11,0,0,1-.11-1.26,3,3,0,0,1,3.71-1.59,5,5,0,0,1,3.39,3.4,6.45,6.45,0,0,1,.25,3.21c-.17,1,.16,1.17,1,.75a4.75,4.75,0,0,0,2.08-2.19,10.45,10.45,0,0,0,1-5.22,33.93,33.93,0,0,0-1.71-9,67.86,67.86,0,0,1-2.64-18,67.23,67.23,0,0,1,.64-12.36,25.23,25.23,0,0,0-1.77,7.82,34.94,34.94,0,0,1-3.26,13.33C436.92,78.74,433.64,83,427.84,84.79ZM357.6,107.08a5.3,5.3,0,0,1,5.25,5.47,5.8,5.8,0,0,1-5.9,5.61,5.41,5.41,0,0,1-5.28-5.49A5.83,5.83,0,0,1,357.6,107.08Zm38.29-7a11.21,11.21,0,0,1-1.46,5.11,21.25,21.25,0,0,1-6.29,6.88c-4.06,3-8.61,5.24-13,7.74a3,3,0,0,1-.71.3c-1.08.29-1.78-.39-1.48-1.45a4.44,4.44,0,0,1,.45-1c2-3.57,3.9-7.19,6.13-10.63a29.25,29.25,0,0,1,4.87-5.89,14.55,14.55,0,0,1,7-3.75,11.13,11.13,0,0,1,1.51-.19C395.2,97.11,395.94,97.85,395.89,100.12ZM363.9,129c.5-.07.64-.05.73-.11,5.38-3.09,10.79-6.13,16.11-9.3a51.39,51.39,0,0,0,12.8-10.32c3.06-3.53,5.51-7.4,6.34-12.08.58-3.3-.58-4.45-3.86-3.92-4.71.77-8.56,3.25-12.1,6.28a48.63,48.63,0,0,0-8.58,10C371.19,115.71,368.05,122.46,363.9,129Zm22.17,6.68a5.9,5.9,0,0,1-5.75,5.76,5.3,5.3,0,0,1-5.36-5.32,5.74,5.74,0,0,1,5.79-5.85A5.43,5.43,0,0,1,386.07,135.64Zm31.13,78.47a4.06,4.06,0,0,0-.17.55,5.52,5.52,0,0,0,0,.57,35.37,35.37,0,0,0,13,23.77,8.63,8.63,0,0,0,6.6,2c3.44-.32,4.89-2.91,3.44-6a11.19,11.19,0,0,0-3.66-4.13,71.37,71.37,0,0,0-6.75-4.37,36.8,36.8,0,0,1-9.16-7.51A29.49,29.49,0,0,1,417.2,214.11Zm8.39-113.19c-.66.59-1.12,1-1.62,1.43a7.51,7.51,0,0,1-4.59,1.75,4.66,4.66,0,0,1-4.66-2.73,5.6,5.6,0,0,1,1.09-6.09,2.3,2.3,0,0,1,.73,1.65,11.56,11.56,0,0,0,.35,1.88c.62,2,2,2.56,3.84,1.51a5.5,5.5,0,0,0,2.69-4,7.79,7.79,0,0,0-7.91-9.49,15.23,15.23,0,0,0-5.25,1,3.68,3.68,0,0,0-2.51,2.64,31.6,31.6,0,0,0-1.08,5.84,29.51,29.51,0,0,1-5.94,16,26.83,26.83,0,0,0-3,4.94,13,13,0,0,0-1,8.43,24.36,24.36,0,0,0,3.27,8.36c2.26,3.55,5.65,5,9.76,5.08a3,3,0,0,0,2.38-1.05,7.88,7.88,0,0,0-.91-11.27,2.32,2.32,0,0,0-2.27-.68c-.33.9,0,1.79-.06,2.68,0,.44,0,.93-.51,1.16a1,1,0,0,1-1.21-.33,7.83,7.83,0,0,1-2.35-4.51,3.78,3.78,0,0,1,2.82-4.06,6.66,6.66,0,0,1,4.86.5c5.35,2.46,8.69,9.69,7.14,15.37a10.13,10.13,0,0,1-9.09,7.64c-5.62.51-10.25-1.63-14.25-5.41a9.46,9.46,0,0,0-2-1.8c-.05.91-.09,1.64-.12,2.38A20.82,20.82,0,0,1,391.53,150c-3.12,5.14-7.61,8.1-13.76,7.93a10.49,10.49,0,0,1-8.67-4.59,7.79,7.79,0,0,1-1.45-6,3,3,0,0,1,1.71-2.43c.49.17.44.44.4.69a7.31,7.31,0,0,0,6.15,8.49,10.26,10.26,0,0,0,9.32-3,13.79,13.79,0,0,0,4-8.72,32.05,32.05,0,0,0-.32-8.8A70.6,70.6,0,0,0,386.21,123c-.24-.75-.55-.91-1.23-.47-6.59,4.22-13.77,7.35-20.54,11.25a55.51,55.51,0,0,0-10.89,7.5,11.92,11.92,0,0,1-1.87,1.33c-.36.24-.8.51-1.22.14s-.15-1,.09-1.37a9.12,9.12,0,0,1,1.23-1.72c3.62-3.87,6.2-8.46,8.72-13.06,2.33-4.27,4.52-8.62,6.83-12.9,1.15-2.13,2.42-4.2,3.72-6.43a69.13,69.13,0,0,0-10.22-2.84,29.24,29.24,0,0,0-11.82-.24c-4.85,1.08-8.4,3.73-9.81,8.69a8.41,8.41,0,0,0,1.44,7.82,6.53,6.53,0,0,0,6.74,2.69,2.09,2.09,0,0,1,.56,0c.05,0,.1.07.21.15,0,1-.77,1.37-1.51,1.7a5.46,5.46,0,0,1-3.39.25,10.15,10.15,0,0,1-7.81-8.31c-.91-4.69.57-8.73,3.62-12.24s6.95-5.12,11.38-5.83c1.7-.27,3.41-.3,5.32-.41A5.2,5.2,0,0,0,354.31,97c-3.5-3.56-5.74-7.7-5.81-12.78-.11-7.79,6.16-12.77,13.73-10.94a14.63,14.63,0,0,1,8.22,5.34,7.8,7.8,0,0,1,1.88,5.51c-.25,3.3-3,4.93-6,3.54a9.6,9.6,0,0,1-2.71-1.79,1.15,1.15,0,0,1-.43-1.2c.17-.48.65-.56,1.11-.61.94-.11,1.91.26,2.85-.08a6.06,6.06,0,0,0-4.27-4.85,9.51,9.51,0,0,0-6.87,1,3.52,3.52,0,0,0-2,3.47c.26,3.91,1.67,7.23,5.15,9.35a24,24,0,0,0,9.69,3.45A12.62,12.62,0,0,0,376,95.3,29.6,29.6,0,0,0,381.36,92c4.63-3.56,10-5.07,15.69-5.6a29.16,29.16,0,0,0,6-1.21,3.1,3.1,0,0,0,2-1.87,13.58,13.58,0,0,0,1.11-6.94A7.76,7.76,0,0,0,395.66,70a5.06,5.06,0,0,0-3,2.57c-.87,1.76-.4,3,1.46,3.59.84.27,1.75.34,2.62.54.36.08.83.1.92.56s-.31.68-.64.83a5.93,5.93,0,0,1-6-.13c-1.82-1.2-2.13-3.08-1.88-5.1a7.48,7.48,0,0,1,2.36-4.51c.6-.58.61-1,0-1.53a9.65,9.65,0,0,1-2.94-4.43c-.3-.9-.76-1-1.6-.74a10,10,0,0,1-8.23-1.54,19.27,19.27,0,0,1-4.23-3.88c-.91-1.08-1.79-2.18-2.67-3.28a20.86,20.86,0,0,0-9.55-6.84A48.48,48.48,0,0,0,342,43.58a43.08,43.08,0,0,0-11.29,2.13,22.85,22.85,0,0,0-6,3,10.05,10.05,0,0,0-2.7,2.7c-1.45,2.32-.59,4.21,2.14,4.49a8,8,0,0,0,5-1.15,26.33,26.33,0,0,0,3-2.33c.68-.55,1.54-1.53,2.28-1s0,1.66-.4,2.42c-1.77,3.37-4.14,6-8.18,6.59a9.25,9.25,0,0,1-7.33-2c-.52.06-.58.49-.73.82a43.55,43.55,0,0,1-8.32,11.92,35.05,35.05,0,0,1-21.62,10.63,37.53,37.53,0,0,1-28.76-8.11,36,36,0,0,1-6.67-6.33,18.38,18.38,0,0,1-3.63-8.16,9.65,9.65,0,0,1,1-6.33,6.77,6.77,0,0,1,7.79-3.48,11.43,11.43,0,0,1,5.55,3.26,40.93,40.93,0,0,1,5.18,6.9,55.78,55.78,0,0,0,5.06,7.23,43.59,43.59,0,0,0,3.25,3.27c5.95,5.37,12.69,5.67,19.69,2.71,5.19-2.19,9.09-6.12,12.41-10.62.07-.09.05-.23.08-.37-.43-.44-1-.19-1.44-.2a20.3,20.3,0,0,1-9.59-2.41,5.34,5.34,0,0,1-2-1.7c-.42-.64-.22-1.14.51-1.25a7.6,7.6,0,0,1,1.72,0c1.73.12,3.45.28,5.17.42a17.75,17.75,0,0,0,7.75-.94,5.06,5.06,0,0,0,2.72-2c.73-1.19.58-1.92-.5-2.82a11.59,11.59,0,0,0-5.92-2.51,75.59,75.59,0,0,0-8.23-.63c-15.62-.53-31.24-.55-46.87-.28-11.33.21-22.66.38-34,.44-5.76,0-11.53-.12-17.27-.65a33.13,33.13,0,0,1-4.74-.74,5,5,0,0,1-.56-.11c-.59-.22-1.36-.3-1.41-1.1s.7-1,1.31-1.15,1.12-.28,1.68-.4a33.17,33.17,0,0,1,6.88-.61c26.19-.36,52.38-.93,78.57-.41,7,.14,13.95.41,20.93.65a45.2,45.2,0,0,1,4.78.46,17,17,0,0,1,7.79,3c.61.45,1.27.86,2,1.34a24.82,24.82,0,0,1,4.14-3.93,31,31,0,0,1,11.19-4.88,57.82,57.82,0,0,1,29.8.83,27.3,27.3,0,0,1,14.74,10.17A23.09,23.09,0,0,0,381.92,55a4.34,4.34,0,0,0,5,.76,2.71,2.71,0,0,0,1.58-1.58.45.45,0,0,1,.08-.17,7.94,7.94,0,0,0,1.49-5.32c-.17-2.61,1.23-4.64,3.39-6.09a13.44,13.44,0,0,1,8.61-2.11,28.77,28.77,0,0,1,8.6,1.86c8.89,3.34,18,3.46,27.27,2.32,2.8-.34,5.6-.62,8.36-1.22s3.85.56,3.33,3.38A103.12,103.12,0,0,0,447.77,65a47.22,47.22,0,0,0,2.56,16.23,38.52,38.52,0,0,1,2.19,8.73,14.54,14.54,0,0,1-1.45,8.77A7.62,7.62,0,0,1,443,103a2.75,2.75,0,0,0-2.31.56,7.82,7.82,0,0,1-1.49.86,4,4,0,0,0-1.84,5.64,7.21,7.21,0,0,0,1.66,2.1,36.31,36.31,0,0,0,3.23,2.72c5.77,4.07,9.19,9.69,11,16.41a57.84,57.84,0,0,1,.37,28.69c-1.39,5.84-3.88,11.12-8.64,15a2,2,0,0,0,.65,1.24c2.74,3.54,3.73,7.65,4,12,.64,11.13.71,22.27.86,33.41.24,18,0,36-.39,54-.1,4.74-.09,9.48-.15,14.22a30.91,30.91,0,0,1-.87,7.42c-.18.72-.28,1.77-1.18,1.79-1.05,0-1.13-1.09-1.3-1.87a68.6,68.6,0,0,1-1.23-12.79c-.37-14,.1-27.92.26-41.88.19-16.26.34-32.53-.29-48.79a72.84,72.84,0,0,0-.75-8.6,11,11,0,0,0-2.54-5.3,1.6,1.6,0,0,0-2.36-.46,4.87,4.87,0,0,0-2.26,2.76,16.11,16.11,0,0,0-1,7c.1,2,.34,4.08.43,6.13,0,.78.47,1.94-.45,2.26-1.09.38-1.67-.75-2.16-1.53a19,19,0,0,1-2.76-9.29c0-.75,0-1.51,0-2.17-.32-.22-.51-.16-.66-.05-4.26,3.18-8,6.89-10.27,11.75-3.17,6.68-3.2,14.35,2.59,20.52a41,41,0,0,0,7.95,6.61q3.17,2,6.25,4.13a20.76,20.76,0,0,1,3.36,2.86,12.48,12.48,0,0,1,2.35,3.48c2.26,5.11-.66,10.05-6.25,10.57a14,14,0,0,1-6.74-1.15,18.58,18.58,0,0,1-5.93-3.84c-6.08-5.94-10.77-12.77-12.36-21.25C409,203.26,413,190.66,425,180.93a40.26,40.26,0,0,1,9.47-5.92c.25-.59-.15-.83-.34-1.13a9.49,9.49,0,0,1,1.18-12,12.77,12.77,0,0,1,5.3-3.34c.36-.11.78-.27,1.09,0s0,.84-.19,1.21a15.09,15.09,0,0,1-2,2.57,9.06,9.06,0,0,0-2.28,5.57c0,.26,0,.52,0,.77.17,2.91,2.18,3.92,4.62,2.3a12,12,0,0,0,3.6-4.2A30.37,30.37,0,0,0,449,155.94a52.6,52.6,0,0,0-1.33-23.2,22.5,22.5,0,0,0-8.19-12,29,29,0,0,1-5.65-5.19,10,10,0,0,1-2.25-9.69c.16-.62,0-.94-.6-1.15A11.45,11.45,0,0,1,425.59,100.92Zm50,261.16a4.26,4.26,0,0,1,4-4.31,3.79,3.79,0,0,1,3.75,3.83c0,2.57-1.69,4.54-4,4.5A3.93,3.93,0,0,1,475.63,362.08Zm-34.41,41.07a6.41,6.41,0,0,0,.51,2.72,64.08,64.08,0,0,0,11.8,22.46c.65.8,1.32,1.58,1.89,2.43a2.1,2.1,0,0,1-.09,2.81,2,2,0,0,1-2.65.1,44.66,44.66,0,0,1-7-5.1,51.46,51.46,0,0,1-16.12-29.65c-2.88-15.85.32-30.67,7.88-44.68a81.33,81.33,0,0,1,10.19-14.63,41,41,0,0,1,8.65-7.56c.3-.19.59-.53,1.18-.26,0,.65-.56,1-1,1.46a35.59,35.59,0,0,0-5,6.51c-2.37,3.95-5,7.73-7.65,11.51-3.64,5.21-4.59,11-4.09,17.19a66,66,0,0,0,5.71,21.22A124.44,124.44,0,0,0,454,405.4c.81,1.31,1.59,2.63,2.36,4a4.33,4.33,0,0,1,.67,2,1.74,1.74,0,0,1-2.19,1.94,7.71,7.71,0,0,1-2.29-1,40.68,40.68,0,0,1-9.74-7.73A5.17,5.17,0,0,0,441.22,403.15ZM177.15,34.87a3.05,3.05,0,0,0,1.61-1c1.51-1.18,3-2.4,4.52-3.57,7.31-5.58,15.65-8.25,24.75-8.86,7.43-.49,14.85-.44,22.28-.26,11.07.28,22.16.24,33.23.61,10.31.34,20.6.85,30.89,1.44,2.56.15,5.12.16,7.68.16q65.52.15,131,.89c10.18.1,20.37.08,30.54.56a4.32,4.32,0,0,1,3,1,4.23,4.23,0,0,1,1.54,3c0,1.66.16,3.32.19,5,.55,30,.73,59.94.92,89.91.12,18.76.25,37.52.27,56.28,0,9.94.23,19.85.83,29.76.84,13.88,1.12,27.77,1.28,41.67.11,9.79.5,19.59.14,29.39a67.25,67.25,0,0,1-1.66,13.7c-1.72,7-5.33,13-9.87,18.47-.69.84-1.38,1.68-2.06,2.53-.07.08,0,.24,0,.4.41.39.95.2,1.43.23,6.15.39,10.44,3.45,13,9a20.22,20.22,0,0,1,1,2.7,25,25,0,0,0,11.07,14.45,42.63,42.63,0,0,0,5.94,3.13c3.22,1.37,3.11,3.83.52,5.63A17,17,0,0,1,478.38,354c-1.35-.22-2.17-.18-2.93,1.14a12.42,12.42,0,0,1-4.58,4.29,29.24,29.24,0,0,1-20.51,3.72,8.62,8.62,0,0,1-1.3-.35c-.85-.3-1.51-.8-1.37-1.81s.91-1.17,1.72-1.22A16.09,16.09,0,0,0,453,359c8.2-2.43,13-8.25,15.82-16a20.65,20.65,0,0,0,.76-11.55,16.73,16.73,0,0,0-.91-2.92,10.38,10.38,0,0,0-14.86-5.24,22.58,22.58,0,0,0-6.59,5.23A174.65,174.65,0,0,0,430,352.84c-7.77,13.69-10.42,28.33-8.59,43.89A114.73,114.73,0,0,0,437.39,443,104.45,104.45,0,0,0,451,460.61c2.41,2.57,4.82,5.13,7.17,7.76a30.27,30.27,0,0,1,5.47,8.3,13.09,13.09,0,0,1,.72,9.37c-1.08,3.35-3,6-6.62,6.82s-6.67-.62-9.1-3.33-3.74-6.37-4.45-10.06a41.56,41.56,0,0,1-.63-9.18A32.27,32.27,0,0,0,441,456.82a14.55,14.55,0,0,0-1.78-3.17A117.35,117.35,0,0,1,418,403.52a87.56,87.56,0,0,1-1.21-22,73,73,0,0,1,7.6-27.39,158.34,158.34,0,0,1,15.94-24.64q5.75-7.58,12-14.73c2-2.31,4-4.68,5.87-7.11a40.16,40.16,0,0,0,8.27-22.94c.3-5.19,0-10.37-.13-15.55-.29-12.1-.73-24.2-.95-36.3q-1.65-91.81-2-183.65c0-6,0-11.91,0-17.87,0-1.76,0-1.76-1.8-1.76-44.89.16-89.78-.44-134.67-.9-24.14-.25-48.28-.68-72.42-1.13-13.12-.25-26.24-.72-39.36-1.08a68.31,68.31,0,0,0-11.87.69,37,37,0,0,0-16.09,6.4A89.9,89.9,0,0,0,179,40.15a275.46,275.46,0,0,1-25.57,20,131.31,131.31,0,0,1-12.82,7.73,74,74,0,0,1-42.53,8.32A117.74,117.74,0,0,1,44.76,57.62c-1.46-.93-2.89-1.9-4.26-2.95-4.51-3.42-9.71-4.78-15.22-5.1-3.2-.19-6.41.07-9.6-.37a26.65,26.65,0,0,1-9.15-2.71,12.55,12.55,0,0,1-5.37-5.06,8.22,8.22,0,0,1,3-11.38,12.23,12.23,0,0,1,10-1.4,24.38,24.38,0,0,1,8.59,4.56A95.64,95.64,0,0,1,30.27,40,132,132,0,0,0,42.63,50.65,112.54,112.54,0,0,0,87.48,70.26a89.6,89.6,0,0,0,19.26,1.94A66.87,66.87,0,0,0,136.52,65a118.83,118.83,0,0,0,16.95-10.52c2.77-2.06,5.46-4.25,8.27-6.25a31.57,31.57,0,0,0,6.8-7,11.3,11.3,0,0,0,2.51-7.67,9.8,9.8,0,0,0-5.5-8.63,17.59,17.59,0,0,0-10.45-1.75,25.82,25.82,0,0,0-17.36,9.61c-2.49,3-3.64,6.57-4.37,10.31-.07.38,0,.78-.11,1.15a1.33,1.33,0,0,1-1.16,1.12,1.43,1.43,0,0,1-1.47-.7,5.37,5.37,0,0,1-.73-2.17A29.5,29.5,0,0,1,133,23.35a15.22,15.22,0,0,1,5.46-6.07,1.42,1.42,0,0,0,.77-1.83A17.75,17.75,0,0,1,141,3.54,8.07,8.07,0,0,1,143.25.68a2.37,2.37,0,0,1,3.78.61,15.81,15.81,0,0,1,1,1.87,48.06,48.06,0,0,0,3.33,6.05,24.82,24.82,0,0,0,13.93,10.26,18.32,18.32,0,0,1,4.58,1.93,14.19,14.19,0,0,1,7,10.71C177,33,177,33.88,177.15,34.87Z" fill="#ffe888"/></g></svg>