<?xml version="1.0" encoding="UTF-8" standalone="no"?><svg xmlns="http://www.w3.org/2000/svg" xmlns:xlink="http://www.w3.org/1999/xlink" fill="#ffe888" height="416.4" preserveAspectRatio="xMidYMid meet" version="1" viewBox="-0.2 0.0 493.7 416.4" width="493.7" zoomAndPan="magnify"><g id="change1_1"><path d="M493.1,210.9c-8,4.7-15.8,9.7-24,14c-20,10.5-41.3,17.2-63.7,20.6c-17,2.6-34,3-51.1,1.2c-18-1.9-35.5-5.9-52.5-12.3 c-0.3-0.1-0.6-0.2-0.9-0.3c4,3.6,8.1,6.9,11.7,10.6c18.8,19.4,28.1,42.5,27.6,69.6c-0.3,16.7-4.3,32.7-9.2,48.6 c-5.4,17.3-10.8,34.5-16.2,51.7c-0.2,0.6-0.5,1.2-0.7,1.8c-0.3,0-0.7,0-1,0c-0.5-0.5-0.9-1.2-1.5-1.4c-4.1-1.6-6.7-4.7-8.7-8.4 c-1.7-3.1-3.2-6.3-4.7-9.5c-3-6.3-8-9.4-14.9-9.3c-7.2,0-12.5-3.1-16.1-9.4c-2.4-4.3-4.5-8.7-8.5-11.9c-5.1-4-11-5.7-17.4-5.8 c-1.3,0-1.8,0.6-2.2,1.7c-2.5,6.5-3,13.2-1.8,20.1c0.1,0.5-0.2,1.2-0.3,1.7c-0.6-0.2-1.3-0.3-1.7-0.6c-7.1-6.3-15.5-10.7-23.9-15 c-9.2-4.6-18.4-9.1-26.3-15.7c-12.7-10.6-21.1-23.9-25.3-39.8c-0.4-1.3-1.1-2.6-1.8-4.2c0.5-0.2,1.4-0.6,2.5-0.9 c22.6-6.8,40.2-20.3,52.3-40.6c2.9-4.9,5.3-10,8.1-14.9c2.5-4.3,5.4-8.4,8.2-12.7c-3.6,1.1-7.2,2.1-10.8,3.1 c-17.6,5-35.5,8.3-53.8,9.9c-15.3,1.3-30.5,1.4-45.8,0.3c-9-0.7-18-1.5-26.8-3.2C60.2,244,30,233.5,1.8,217.6 c-1.5-0.8-2-1.8-1.7-3.3c0.1-0.8,0.1-1.5,0.2-2.6c0.2,0.5,0.5,0.9,0.6,1.3c0.1,0.4,0,0.9,0.2,1.2c0.3,0.3,0.8,0.5,1.1,0.7 c0.2-0.1,0.4-0.2,0.6-0.4c-0.8-1.9-1.7-3.9-2.5-5.8c0.1-0.1,0.3-0.2,0.4-0.3c1,1.6,2,3.3,3.1,5.2c1.9-4.4-0.9-6.7-3.9-8.9 c0.2-0.2,0.4-0.3,0.6-0.5c1.2,1,2.5,1.9,3.8,3c0.4-1.2,0.8-2.5,1.2-3.7c0,0-0.1,0.1-0.1,0.1c2.4-2.9,5.1-5.6,9.1-6.1 c1.6-0.2,3.5-0.1,5,0.5c0.9,0.3,1.6,1.7,2,2.7c0.2,0.4-0.8,1.4-1.4,1.9c-0.3,0.2-1.5-0.3-1.6-0.6c-0.1-0.7,0.2-1.4,0.9-2.1 c0.1,0.7,0.1,1.3,0.2,2c0.3-0.2,1-0.4,1-0.4c-0.2-0.8-0.2-1.9-0.7-2.4c-1.7-1.5-4.6-0.4-4.5,1.9c0.1,2,0.9,4.1,1.9,5.9 c1.4,2.5,3.1,4.8,2.2,8c2.7,1.1,5.3,2.4,8,3.3c1.3,0.4,3.1,0.7,4.3,0.2c1.2-0.5,2.7-1.9,2.9-3.1c0.2-1.1-0.7-3-1.7-3.6 c-1-0.6-2.9-0.6-4,0c-0.8,0.4-1.1,2.1-1.2,3.3c0,0.3,1.5,1.2,1.8,1c0.8-0.5,1.3-1.5,2.4-2.8c-0.3,1.3-0.2,2.5-0.7,2.9 c-0.7,0.6-2,0.9-2.8,0.6c-2.1-0.7-2.5-3.4-0.8-5.1c1.5-1.5,3.4-2,5.4-1c2,1,2.9,2.7,2.6,4.8c-0.3,2.3-1.8,4-4,3.9 c-2.5-0.1-5-1-7.6-1.6c-2.2-0.5-4.3-1.4-6.6-1.7c-1.1-0.1-2.3,0.8-3.3,1.8c3.1-1.9,5.7-0.3,8.3,0.9c0.7,1.9,1.5,3.8,2.1,5.8 c0.6,2,1.9,3.2,3.8,3.7c0.8,0.2,2.2,0.3,2.6-0.1c0.6-0.7,1.1-2.1,0.9-3c-0.2-0.8-1.4-1.8-2.2-1.9c-0.8,0-1.8,0.9-2.6,1.6 c-0.1,0.1,0.5,1,0.7,1.5c0.6-0.6,1.3-1.1,2.6-2.2c-0.5,1.4-0.7,2.8-1.3,3c-0.7,0.3-2.3-0.2-2.7-0.8c-1.2-2,0.1-3.3,1.5-4 c-1.8-1.2-3.6-2.4-5.5-3.6c0.5,0.1,1,0.1,1.4,0.4c5,3.5,11.2,2,13.3-3.5c0.6-1.5,0.5-3.3,0.5-5c0-1.2-0.2-2.5-0.2-3.7 c0.1-2.1,1.4-3.7,3.3-4c1.5-0.2,3.4,0.3,4.7,1.1c1.7,1.1,2.1,3.3,1.2,5.1c-0.5,1-1.8,2.1-2.8,2.2c-0.9,0-2.5-1.2-2.6-2.1 c-0.2-1.3,0.8-2.4,2.5-2c0,0.2,0.1,0.4,0,0.5c-0.5,0.6-1,1.2-1.6,1.7c0.5,0.4,1.2,1.1,1.5,1c0.8-0.4,2.1-1.1,2.1-1.7 c0-1.3-0.2-3.1-1-3.9c-0.8-0.8-2.9-1.3-3.9-0.8c-1.2,0.6-1.9,2.4-2.7,3.7c-0.1,0.2,0,0.5,0,0.7c1,8.5-0.2,10.6-7.9,13.6 c3.4,2,3.8,3.8,1.3,7.5c4.2,1.7,8.3,3.3,12.2,4.9c0.7-1.6,1.1-3.1,2.1-4.3c1.1-1.3,2.8-1.6,4.1-0.3c0.5,0.6,0.8,1.9,0.5,2.6 c-0.2,0.6-1.4,0.8-2.3,0.7c0.6-0.6,1.2-1.2,1.6-1.9c0.1-0.1-0.8-1.1-1-1c-1,0.2-2.1,0.5-2.7,1.1c-1.4,1.6-0.8,3.7,1.3,4.2 c1.6,0.4,3.5,0.6,4.9,0.1c5.3-1.9,9.2-1.5,12.7,4.3c1-2.3,0.4-4.6-2-6c-1.7-1.1-3.8-1.6-5.5-2.6c-1.9-1.1-3.9-2.2-5.4-3.7 c-1.5-1.5-1.6-3.6-0.2-5.4c1.2-1.7,2.9-2.7,5.1-2c2.1,0.7,3.2,2.2,3.4,4.4c0.1,1.9-0.8,3.4-2.7,3.5c-1,0.1-2.5-0.9-2.9-1.8 c-0.6-1.2,0.2-2.4,2.2-2.9c-0.4,0.6-0.5,0.9-0.7,1c-1.1,0.9-1.2,2-0.1,2.6c0.7,0.3,2.1,0.1,2.7-0.5c1.3-1.3,1-2.9-0.1-4.2 c-1.3-1.5-2.9-1.8-4.7-0.9c-1.7,0.8-2.6,2.3-2,4.2c0.7,2.4,2.5,3.7,4.7,4.7c2.4,1,4.8,2,7.3,3.1c0.6-4.3,2-8.2,6.3-10.5 c-0.2,0.7-0.5,1.4-0.7,2.1c0,0.2-0.1,0.3-0.1,0.5c-3-0.1-2.9,2.5-4,4.4c1.1,0,1.9,0,2.6,0c-1.4,0.7-3.9,0.6-2.9,3 c1.3-0.6,2.5-1.3,3.8-2c0.6,0.8,1.1,1.6,1.7,2.5c0.7-0.8,1.2-1.4,1.7-2.1c-0.3-0.5-0.6-0.9-0.9-1.4c0.1-0.1,0.1-0.1,0.2-0.2 c1.7,1,3.2,2.5,5.4,1l0,0c1.2,1.6,2.5,3.1,3.7,4.7c0,0,0,0,0,0c0,0.6,0.1,1.3,0.1,2c2.6,0.5,5.2,1.3,7.9,1.5 c1.8,0.1,3.9-0.4,5.6-1.2c1.8-0.9,2.1-3.5,0.9-5.2c-1.1-1.7-3.7-2.3-5.2-1c-0.9,0.8-1.2,2.3-1.4,3.6c-0.1,0.4,1.2,1,1.9,1.5 c0.6-0.9,1.2-1.9,2.1-3.2c-0.1,1.2,0.1,2.7-0.4,3.1c-0.7,0.6-2.3,0.8-3.2,0.4c-1.4-0.6-2-2.1-1.4-3.7c0.8-1.9,3-3.2,5.2-2.9 c2,0.3,3.7,2.1,3.8,4.2c0.2,2.1-1.1,4.5-3.3,4.9c-2.4,0.4-4.8,0.2-7.2,0c-1.8-0.1-3.5-0.7-5.3-0.7c-2.2,0-3.9,1-4.7,3.3 c2.4-2.1,5-2.5,7.8-1.2c0.1,0.1,0.3,0.2,0.4,0.3c1.5,2,3,3.9,4.4,5.7c0.8-1.6,1.5-2.9,2.1-4.3l-0.1,0.1c4.6-0.3,6.3,1.2,5.6,5.5 c4.7,0.7,9.3,1.3,13.5,1.9c1.1-1.8,1.7-3.4,2.8-4.5c0.5-0.5,2.2-0.3,3.1,0.1c0.5,0.2,0.9,1.6,0.7,2.3c-0.2,0.6-1.2,1-2.3,1.8 c0.6-1.5,0.9-2.3,1.3-3.1c-0.7-0.2-1.7-0.8-1.9-0.5c-0.8,0.8-1.4,1.8-1.8,2.9c-0.1,0.2,1.1,1.3,1.7,1.4c2.7,0.3,5.3,0.5,7.8-1.5 c3.3-2.6,7.1-1.9,10.2,1.1c0.3,0.3,0.6,0.5,1,0.8c0.3-3.1-1.5-5.2-5-5.7c-2.6-0.4-5.3-0.4-7.8-1.1c-1.7-0.5-3.4-1.9-4.6-3.3 c-1.2-1.4-0.9-3.5,0.5-4.7c1.1-1,3-2,4.2-1.7c1.5,0.3,3.1,1.8,3.8,3.3c0.4,0.8-0.5,2.8-1.4,3.7c-0.5,0.5-2.6,0.3-3.2-0.4 c-0.5-0.6-0.1-2.1,0-3.2c0-0.1,0.4-0.2,0.9-0.3c-0.2,0.5-0.3,0.8-0.3,1c0.2,0.9,0.5,1.7,0.7,2.5c0.8-0.6,2.2-0.9,2.5-1.7 c0.6-1.6-0.2-3-1.8-3.9c-1.7-0.9-3.2-0.5-4.5,0.7c-1.3,1.3-1.8,3.2-0.5,4.4c1.5,1.4,3.5,2.6,5.5,3.1c2.6,0.7,5.3,0.7,8,0.9 c0.1-2.1-0.1-4.3,0.4-6.4c0.5-2.3,1.1-4.8,3.8-5.8c-0.3,0.8-0.6,1.6-0.9,2.3c1.6,0.6,3.1,1.1,4.5,1.7c3.6,2,8.2,2.8,9.6,7.6 c3-0.4,6-0.5,8.9-1.3c1.7-0.4,3.3-1.7,4.4-3.1c1.3-1.6,0.1-4.3-1.9-5.1c-2.2-0.9-4.5,0.2-5.1,2.4c-0.1,0.5-0.3,1.1-0.1,1.4 c0.4,0.7,1,1.5,1.7,1.9c0.4,0.2,1.6-0.2,1.7-0.5c0.3-0.8,0.1-1.7,0.4-3c0.3,0.8,1.1,2.1,0.9,2.5c-0.7,0.9-2,1.9-2.9,1.8 c-2.3-0.2-3.3-3.1-1.9-5.2c1.1-1.7,2.8-3,4.7-2.3c1.5,0.6,2.9,2,3.7,3.4c1,1.9,0.1,4-1.7,4.9c-2.4,1.1-5,1.7-7.6,2.3 c-1.4,0.4-3,0.2-4.4,0.7c-2.2,0.7-3.9,2-3.9,4.8c1.7-2.8,4-4.2,7.3-3.4c0,0,0-0.1,0-0.1c1.6,1.1,3.3,2.1,4.7,3.4 c1.9,1.8,4.2,1.9,6.4,1.4c0.7-0.2,1.7-1.8,1.6-2.7c-0.2-1.8-1.7-2.8-3.4-2.2c-0.9,0.3-1.3,1.7-2,2.5c0.5,0.4,1.1,0.8,1.6,1.1 c0.2-0.6,0.5-1.1,0.6-1.7c0.1-0.2-0.2-0.6-0.3-0.8c0.3-0.1,0.5-0.2,0.8-0.3c0.2,0.8,0.8,1.7,0.6,2.4c-0.2,0.6-1.4,1.4-2,1.3 c-0.8-0.1-2-1-2-1.6c-0.1-1.1,0.6-2.2,0.9-3.3c0.2-0.2,0.4-0.4,0.6-0.5c4.6-0.3,6.2,1.3,5.5,5.8c3.8-0.4,7.5-0.8,11.2-1.1 c-0.9-3.4-0.2-6.1,1.8-6.3c1-0.1,2.6,0.7,3.1,1.5c0.7,1.3-0.3,2.2-2.2,2.6c0.6-0.8,1.1-1.2,1.1-1.5c-0.1-0.6-0.6-1.2-1-1.8 c-0.8,0.9-2,1.7-2.2,2.7c-0.1,0.7,1.2,2.5,1.8,2.5c2.3-0.1,4.6-0.4,6.3-2.5c3.7-4.5,7.4-4.9,12.3-1.8c0.1-2.4-1.5-4.1-4.1-4.3 c-1.8-0.1-3.6,0.1-5.4,0.3c-2.8,0.2-5.6,0.7-8.1-0.9c-1.6-1.1-2.5-2.6-2.2-4.6c0.3-2,1.5-3.5,3.5-4c2.1-0.5,3.9,0.3,4.9,2 c0.6,1,0.6,2.5,0.2,3.6c-0.2,0.7-1.6,1.4-2.5,1.5c-0.7,0-1.8-0.8-2.2-1.5c-0.3-0.6,0.2-1.6,0.3-2.4c0.2,0.1,0.5,0.1,0.7,0.2 c-0.1,0.3-0.2,0.6-0.1,0.8c0.4,0.7,0.8,1.5,1.2,2.2c0.7-0.6,2.1-1.2,2.1-1.8c-0.1-1.2-0.7-2.9-1.5-3.2c-1.2-0.5-3.3-0.5-4.2,0.3 c-0.9,0.7-1.5,2.8-1.3,4c0.5,2.3,2.6,3.1,4.8,3.1c3.4-0.1,6.9-0.4,10.4-0.6c-1.9-5.1-2.3-9.9,1.6-14.3c-0.2,1.2-0.3,2.4-0.6,4.2 c1.2-0.5,2.2-0.9,3.3-1.3c1.6,0.8,3.1,1.7,4.7,2.4c2.3,1,4.6,1.9,6.9,2.8c0,0-0.1-0.1-0.1-0.1c0.2,0.6,0.4,1.2,0.6,1.9 c2.9-1,5.6-1.7,8.2-3c1.5-0.7,2.9-2.1,3.9-3.5c1.2-1.8,0.1-4.1-2.1-5c-1.9-0.8-4.3,0.1-4.8,2c-0.3,1.1,0.4,2.5,0.9,3.7 c0.1,0.3,1.6-0.1,2.4-0.2c-0.1-1-0.2-2.1-0.3-3.3c1.2,0.6,2,1.5,1.4,3.1c-0.6,1.6-2.1,2.2-3.4,1.4c-1-0.7-2-2.2-2.1-3.4 c-0.2-2.1,1.3-3.5,3.2-4.1c2-0.6,3.7,0,5,1.7c1.4,1.8,1.6,3.9,0.1,5.4c-1.5,1.5-3.4,2.7-5.4,3.7c-1.8,0.9-3.9,1.2-5.7,2.1 c-2.6,1.2-3.4,2.8-3.1,5.4c2.8-5.1,5-5.7,10.3-3c1.4,0.7,2.9,1.3,4.5,1.5c-0.7-0.8-1.7-1.5-1.9-2.3c-0.1-1,0.5-2.1,0.8-3.1 c0.3-0.2,0.6-0.5,0.8-0.7c4-0.6,5,0.1,6.1,4.5c2.1-0.8,4.3-1.3,6.3-2.3c1.8-0.8,2.6-4.6,1.7-7.4c-0.7-2-1.5-4-2.6-5.8 c-4.2-7.4-3.5-14.4,1.4-21.1c0.2-0.3,0.4-0.7,0.7-1c0-0.1,0-0.1,0.1-0.3c-6.8-0.4-13.6-0.7-20.1-1.1c2.4,1.7,5.1,3.6,7.8,5.5l0.1,0 c-0.9-0.3-1.8-0.4-2.6-0.8c-2.8-1.4-5.5-2.9-8.3-4.1c-1.8-0.7-3.8-1-5.6,0.4c0.2,0.1,0.3,0.3,0.4,0.3c1.8,0.1,3.2,1,2.5,2.9 c-0.3,0.9-2,1.9-2.9,1.7c-1.8-0.2-2.8-1.9-2.3-3.7c0.4-1.3,1.5-2.3,2.3-3.5c-5.1-1.1-10.5-2.1-15.8-3.4 c-24.4-5.8-46.9-15.9-68.3-28.8c-31.5-19-58.7-43.2-83.2-70.4C26.8,80.6,14.4,65.4,1.7,50.5c-1.9-2.2-1.2-4.4,1.5-5.4 c6-2.3,11.3-5.6,15-11C13.6,25.5,9,16.9,4.4,8.3c-1-2-2.1-3.9-2.9-6c-0.3-0.7,0-1.5,0-2.3c0.5,0.5,1.2,0.9,1.6,1.6 c6.9,12.4,13.5,25,20.7,37.2c17.8,30,38.8,57.6,64.1,81.7c27.1,25.8,57.5,46.5,92.4,60.2c17.6,6.9,35.8,11.5,54.5,14.1 c0.2,0,0.5,0,0.8,0c-1.6-3.3-4.1-5.6-6.9-7.6c-4.3-3.1-8.8-5.8-12.9-9c-7.9-6.2-9.6-15.8-4.6-23.4c3.7-5.6,10.6-8.1,18.5-6.5 c3.9-10,11.2-15,21.8-13c9.5,1.8,13.8,8.9,14.8,18.5c4.9-0.2,9.8-0.5,14.7-0.7c2.6-0.1,5.2-0.1,7.8,0.2c2.4,0.2,3.9,1.6,3.6,4.5 c4.5-0.4,8.3,0.5,9,5.7c2.3,0.3,4.4,0.4,6.5,0.8c3.4,0.7,5.8,3.1,6.2,5.9c0.5,3.4-1.3,5.4-3.9,7c-7.6,4.6-15.2,9.1-22.8,13.6 c-1.1,0.7-2.4,1.1-3.7,1.7c-0.2-0.3-0.3-0.5-0.5-0.8c1.5-1.1,2.9-2.4,4.6-3.4c6.2-3.8,12.6-7.4,18.8-11.1c1.1-0.7,2.3-1.3,3.3-2.1 c3.5-2.7,3.2-6.9-1.1-8.3c-3-1-6.3-0.9-9.8-1.3c0,0.1,0-0.5,0.1-1.1c0.4-2.5-1-4.4-3.5-4.6c-2.6-0.2-4.8,0.6-6.7,2.5 c-2.4,2.5-4.8,5-7.2,7.4c-0.3,0.3-0.7,0.5-1.5,0.4c0.3-0.6,0.6-1.3,1-1.7c2.5-2.8,4-6.3,7.2-8.5c0.9-0.6,1.2-2.2,1.8-3.3 c-1.2-0.5-2.3-1.3-3.5-1.3c-8,0.3-16.1,0.4-24.1,1.2c-5.9,0.5-9.1,4.1-9.8,10c-0.4,3.7-0.1,7.4-0.6,11c-0.4,3.3-1.3,6.5-2.2,9.7 c-0.1,0.5-1.1,0.8-1.8,1.3c0-0.7,0-1.4,0.1-2.1c0.6-2.9,1.6-5.8,1.9-8.8c0.5-4.2,0.3-8.6,1.1-12.7c1.1-5.7,4.7-9.4,10.7-10.4 c0.7-0.1,1.7-1.1,1.7-1.7c0-7.2-6.2-14.2-13.2-15.4c-7.8-1.4-15.5,2.7-18.2,9.7c-0.3,0.9,0,2-0.2,2.9c-0.2,1.1-1,2.1-1,3.1 c0.2,3.1,0.7,6.1,1.1,9.4c-2.9-3.6-3.3-7.7-3-11.9c-5.8-2.9-14.2,0.4-17.4,6.9c-2.8,5.7-2.1,12.3,2.4,16.9c2.8,2.8,6.1,5.2,9.4,7.5 c5.3,3.7,10.9,7,14,13.1c0.3,0.5,1.2,0.6,1.8,1c0.1-0.5,0.2-1.1,0.3-1.6l0,0c4.6-3.5,9.5-6.4,15.8-6.2c1.9-8,5.1-15.2,11.5-20.6 c-4.3,6.3-7.1,13.1-7.6,20.9c1.8,0.6,3.5,1.2,5.6,1.9c-0.2-1.7-0.4-3.3-0.6-5.5c-0.9,1.6-1.5,2.7-2.1,3.7c-0.2-0.1-0.4-0.2-0.6-0.3 c0.7-1.7,1.5-3.3,2.2-5c0.3,0,0.5,0,0.8,0c0.4,2.2,0.9,4.3,1.3,6.6c2.2-3.9,4.8-7.4,9.3-9.2c-2.7,4.1-5.2,8.2-5.7,13.4 c2-0.2,3.3-0.9,4.3-2.5c3.4-5.9,7.7-11.1,12.7-15.6c0.4-0.4,1.2-2.2,1.8,0c0,0,0.1-0.1,0.1-0.1c-1.9,3-3.9,6-5.5,9.2 c-1.3,2.5-2.1,5.3-3.1,7.9c2.4,1.8,4.5,1.9,7.4,1c21.5-7,43-14.4,63.4-24.3c40.7-19.6,76.3-46,107.1-79 c6.2-6.7,12.1-13.7,17.9-20.8c5.7-7.1,11-14.5,16.5-21.8c0.2,0.3,0.4,0.7,0.6,1.2c0,0.2,0,0.3,0,0.5c-2.1,2.1-3.1,4.3-2.4,7.5 c1,4.5-2.7,7.3-7.1,5.5c-1.9,2.5-3.8,5.1-5.9,7.5c-2.2,2.5-4.2,4.8-1.7,8.4c1.1,1.5,0.1,3.1-1.1,4.4c-1.3,1.3-2.8,1.2-4.3,0.6 c-0.9-0.4-1.7-0.9-2.8-1.5c-0.5,0.9-1,1.8-1.4,2.6c-1.6,1.4-3.2,2.9-4.6,4.2c1.3,3.4,4.3,6.5,1,9.4c-2.8,2.4-5.4,0.1-7.1-1.5 c-2.4,2.3-4.7,4.5-7,6.7c3,4.8,3.4,7.7,1,9.6c-3.9,3.2-6.4-0.5-9.2-2.4c-1.6,1.5-3.2,3-5,4.4c-1.1,0.9-1.3,1.7-0.6,2.9 c1.3,2.3,1.8,4.7,1.1,7.3c-0.2,0.5-0.8,1-1.3,1.3c-3.9,2-6.7,0.3-8.9-2.8c-2.1,1.8-4.1,3.4-6.1,5c1,2.4,2,4.7,2.7,7 c1.1,3.9-1.6,7-5.4,6.1c-1.5-0.3-2.8-1.5-4-2.6c-1-1-1.6-2.4-2.4-3.7c-2.5,1.8-4.8,3.5-7,5.1c0.7,2.3,1.5,4.3,2,6.4 c0.5,2.5-0.8,4.9-3,5.9c-2,1-4.2,0.4-5.9-1.7c-1-1.2-1.7-2.7-2.6-4.1c-2.3,1.5-4.5,2.9-6.7,4.4c0.7,2.3,1.5,4.4,2,6.5 c0.6,3.3-0.6,5.5-3.1,6.4c-2.2,0.8-4.4-0.3-6-3.1c-0.8-1.3-1.3-2.7-2.1-4.3c-3.2,2-6.3,3.8-9.3,5.7c-0.5,0.2-1.1,0.5-1.5,0.7 c0.6,1.4,1.3,2.5,1.4,3.6c0.1,1-0.6,2-0.9,3c-1.1-0.4-2.4-0.5-3.1-1.2c-0.8-0.7-1.1-2-1.9-3.4c-0.3,0.7-0.7,1.1-0.6,1.3 c1.2,2.1,2.2,4.2,3.7,6c0.6,0.7,2.5,1.1,3.2,0.7c0.8-0.5,1.5-2.1,1.4-3.2c-0.2-1.7-1.1-3.4-1.6-5.1c-0.2-0.8-0.1-1.7-0.2-2.5 c2.3,3.7,4.1,7.4,2.2,12c0.5-0.3,1-0.6,1.8-1c-2.4,2.8-3.3,2.8-5.9,1.5c-3.4-1.7-4.8-4.9-6.4-8.1c-3.2,1.6-6.3,3.2-9.2,4.6 c0.7,2,1.4,3.6,1.8,5.4c0.5,2.4-0.1,5-1.8,6.4c-2.3,1.8-4.5-0.1-6.5-1.6c-0.8-2-1.6-4-2.5-6.1c-1.5,0.7-3,1.3-4.5,1.9 c-1.5,0.6-2.9,1.3-4.4,1.9c2.4,5.8,2.2,8.8-0.8,9.9c-0.9,0.3-2.6,0.5-3,0c-1.7-2-3-4.2-4.6-6.7c-1.9,0.7-4.4,1.7-7,2.7 c0.4,1.2,0.7,2.1,0.8,2.4c1.8-0.6,3.6-1.8,5.1-1.5c3.2,0.6,3.1,4,4,6.6c3.4-0.9,6.8-1.9,10.1-2.8c-0.3-1.8-0.6-3.3-0.7-4.8 c-0.1-2,0-4,2.2-5c2.2-1.1,3.7,0.1,5.2,1.5c0.6,1.8,1.2,3.7,1.9,5.7c3.6-1.3,7.1-2.6,10.7-4c-0.8-2.2-1.5-4.2-2.2-6.2 c-0.6-1.9-0.3-3.6,1.6-4.7c1.8-1.1,3.9-1.2,5.5,0.3c1.2,1.1,2.1,2.5,3,3.8c0.6,0.8,0.9,1.8,1.4,2.8c3.4-1.7,6.5-3.2,9.7-4.8 c-3.5-5.5-3.8-9-0.7-10.7c0.9-0.5,2.2-0.9,3.3-0.7c3.7,0.6,4.9,3.9,6.4,7c3.1-1.8,6.1-3.6,8.8-5.1c-0.6-2.7-1.3-5.1-1.7-7.5 c-0.3-1.7,0-3.6,1.9-4.4c2-0.9,3.6,0,4.8,1.5c1.2,1.5,2.2,3.2,3.3,5c2.9-2,5.8-4,8.3-5.9c-1.2-2.8-2.7-5.3-3.3-7.9 c-0.4-1.5-0.1-4.1,0.9-4.7c1.4-0.9,3.7-0.7,5.5-0.3c1.2,0.2,2.3,1.5,3.3,2.4c1,1,1.8,2.3,2.8,3.5c2.7-2.3,5.4-4.5,7.6-6.4 c-1.1-2.8-2.4-5.2-3-7.7c-0.3-1.3,0.2-3.4,1.1-4.1c0.9-0.7,3-0.5,4.2,0c2.2,1,4,2.7,6.2,4.2c2.1-2.2,4.3-4.5,6-6.3 c-1-2.5-2.3-4.8-2.6-7.2c-0.2-1.2,1-3.3,2.2-3.9c1-0.6,3-0.2,4.3,0.5c1.4,0.7,2.4,2.1,3.7,3.3c2.6-3,5.2-5.9,7.8-8.8 c-1.9-3.2-5-6.2-1.7-9.6c3.1-3.2,5.6,0.1,8.2,1.9c1-1.5,1.8-3,2.9-4.3c1-1.3,2.2-2.4,3.4-3.7c0.4-0.9,0.4-1.5-0.4-2.4 c-0.6-0.7-0.3-2.3-0.4-3.5c1-0.1,2.1-0.2,3.1-0.2c0.5,0,1.1,0.3,1.6,0.5c0-0.8-0.2-1.3-0.5-1.6c-1.8-2-3.9-2.5-5.4-1.4 c-1.7,1.3-1.7,3.6,0,5.9c0.7,0.9,1.3,1.9,1.9,2.8c-4-1.4-5.7-6.4-3.2-9.6c3.2-1.2,5.8-0.1,7.8,2.7c2.9-4.3,5.5-8.2,8-12 c-2.9-3.7-3.4-6.4-1.6-8.3c0.5-0.5,1.5-1.2,2.1-1.1c1.4,0.3,2.8,1,4.1,1.5c2-3.2,4.1-6.6,6.2-9.9c0,1,0,2,0,3 c-0.4,0.5-0.8,0.9-1.2,1.5c-10,17.8-21.4,34.6-34.7,50.1c-22.5,26.3-48.8,47.9-79.8,63.6c-20.9,10.6-42.8,18.1-65.9,21.9 c-7.2,1.2-14.6,1.9-21.9,2.8c0.6,0.8,1.5,1.6,2.3,1.5c3.5-0.3,7-0.7,10.5-1.3c1.9-0.3,3.8-1,5.6-1.5c-1.3,0.9-2.7,1.6-4.2,1.9 c-4.2,0.8-8.5,1.4-12.9,2.1c1.5,2.3,0.5,6,3.9,7.7c-0.6,0-1.1-0.1-1.8-0.1c0.8,2.2,4.3,3.2,8.3,2.7c-2-0.8-4.3-1.7-6.6-2.6 c5.7,0.9,11.3,1.9,15.7,2.6c-1.6,0.2-4.6,0.8-7.6,0.9c-3.1,0.1-6.1-0.4-9.2-0.7c-0.5,3.2,1.1,4.7,4.1,5.3c3.8,0.8,7.6,1.8,11.3,2.6 c-2.3,1.2-3.1,1.1-14.6-1.6c0,1,0,1.9,0,2.7c1,0.1,1.8,0.2,2.6,0.3c12.3,2.8,24.7,4.5,37.2,5.1c21.1,1,42-0.9,62.5-5.9 c13.7-3.3,27-7.8,39.9-13.7c0.8-0.4,2.3-0.4,1.6-2c0.6-0.9,1.3-1.7,2.1-2.8c0.8-0.2,1.9-0.6,3-0.9c-1.2,1.3-2.3,2.6-3.9,4.4 c19.6-9.4,37.1-20.9,52.9-35.2c1.1,3.6-2.2,4.2-3.5,6.1c1.4,1.6,2.8,3.2,4.2,4.8c0,0.7,0,1.3,0,2c-1.3-1.7-2.5-3.4-3.9-5 c-0.9-1.1-1.9-1.2-2.5,0.2c1,0.9,2.1,1.7,3,2.6c1.2,1.4,1.5,3.1,0.5,4.7c-1.1,1.7-2.8,1.7-4.4,0.9c-1.6-0.7-3.1-1.5-4.5-2.5 c-1.2-0.9-1.9-0.9-2.7,0.5c2.1,2.8,4.8,4.7,8,5.9c2.3,0.9,4.4,0.9,6.5-0.6c0,0.5,0,1,0,1.5c-2.3,1.4-4.8,1.3-7,0.1 c-3.1-1.7-6-3.7-9.4-5.8c-2.4,1.7-5.3,3.7-8.3,5.9c3.3,3.2,5.2,6.8,5.8,11.1c0.6,4.2-2.5,7.4-6.5,6.1c-3.2-1.1-6.1-3.1-8.9-4.9 c-1-0.6-1.5-1.9-2.3-2.9c0.2-0.2,0.4-0.4,0.7-0.6c1,1,1.8,2.3,2.9,3.1c2.3,1.6,4.7,3.3,7.3,4.3c3.7,1.4,6.6-1.3,6-5.2 c-0.6-3.6-2.1-6.7-4.5-9.4c-1.1-1.3-2-1-2.9,0.2c3.4,4.6,3.9,6.7,1.5,8.3c-0.8,0.6-2.3,1.2-2.9,0.8c-2.2-1.2-4.2-2.8-6.5-4.5 c-4.3,2.4-9.3,5-13.8,7.5c1.3,3.9,2.7,7.5,3.5,11.2c0.9,3.8-1.6,6.3-5.5,6.3c-4.9-0.1-11-5.2-12-10.1c0-0.1,0.2-0.2,0.5-0.4 c0.7,1.1,1.4,2.2,2.1,3.2c2,3.1,4.7,5.2,8.3,6.2c3.3,0.9,5.6-0.7,5.7-3.8c0-4.4-2-8.1-4.3-11.8c-0.4,0.4-0.6,0.9-0.5,1.3 c0.3,0.8,0.9,1.6,1.2,2.4c0.7,1.9,1.1,3.9-0.8,5.4c-1.9,1.4-4,1.2-5.7-0.2c-1.4-1.2-2.4-2.8-3.7-4.4c-5.5,2.1-11.2,4.3-16.9,6.5 c0.3,1.2,0.6,2.2,0.8,3.2c0.2,1,0.4,2.1,0.5,3.2c0.1,3.3-1.2,5.8-3.5,6.7c-2.6,1-5.6,0.1-7.6-2.7c-1.4-2-2.4-4.2-3.7-6.4 c-3.2,0.8-6.5,1.6-9.9,2.5c0.2,0.9,0.4,1.6,0.4,2.3c-0.1,3,0.2,6.1-0.4,9c-0.7,3.3-4.2,4.2-6.7,1.9c-1.6-1.5-2.8-3.4-3.9-5.3 c-1-1.7-1.5-3.7-2.3-5.6c-2.7,0.4-5.4,0.8-8.1,1.2c0,2.3,0.1,4.4,0,6.5c-0.1,2.9-1.4,5.1-3.4,5.4c-2.6,0.4-4.4-1-5.7-3.1 c-0.7-1.2-1.2-2.5-1.7-3.8c-0.5-1.3-0.8-2.6-1.3-4c-2.5,0.1-4.9,0.2-7.2,0.3c-0.4,2.4-0.5,4.6-1.1,6.8c-0.5,1.8-1.5,3.3-3.7,3.5 c-2.2,0.1-3.5-1.2-4.3-3c-0.5-1.2-0.9-2.5-1.2-3.7c-0.2-1.1-0.2-2.2-0.4-3.6c-2.1,0-4.1,0.1-6,0c-1.7-0.2-2.5,0.2-2.7,2.1 c-0.1,1.3-0.6,2.8-1.4,3.9c-0.8,1.1-2.2,2.3-3.3,2.3c-0.8,0-2.1-1.7-2.4-2.9c-0.6-1.9-0.6-4-0.8-6.1c-3.3-0.4-6.6-0.8-9.8-1.1 c-0.6,1.4-1,2.7-1.8,3.7c-0.8,0.9-2,2.1-3,2c-1-0.1-2.2-1.3-2.8-2.4c-0.8-1.4-1-3.1-1.5-4.8c-1-0.2-2-0.4-3.2-0.6 c0,0.7,0,1.1,0,1.9c-0.8-0.8-1.3-1.5-1.9-1.7c-1.1-0.4-3.1-0.7-3.2-0.5c-0.7,2.1-2.2,2.7-4.4,2.9c0.7,0.9,1.5,1.6,2.4,1.8 c0.6,0.1,1.5-0.4,1.9-0.8c2.7-2.8,5.6-2.4,6.5,1.5c0.7,3,2.4,3.7,4.7,4.3c1.3,0.3,2.6,0.9,3.9,1.3c0.8-1.6,1.4-3.2,2.4-4.6 c1.9-2.6,5.2-2.3,6.5,0.7c0.6,1.4,0.9,3,0.8,4.5c-0.1,1.9,0.8,2.4,2.4,2.7c1.4,0.3,2.8,0.8,4.2,0.9c0.7,0,1.6-0.5,2-1.1 c1.1-1.4,1.8-3.1,3-4.5c1.8-2.2,4.1-1.8,5.1,0.9c0.6,1.7,0.7,3.5,1.3,5.2c0.2,0.7,0.9,1.7,1.5,1.9c2.5,0.5,5.1,0.7,7.5,1 c0.9-2.1,1.5-4,2.5-5.6c2.2-3.7,5.6-3.7,7.6,0.1c1,2,1.5,4.2,2.3,6.6c2.7,0,5.5,0,8.1,0c0.7-2.4,1.1-4.6,1.9-6.8 c0.6-1.8,1.7-3.4,4-3.6c2.3-0.2,3.9,1,5,2.9c0.8,1.4,1.5,2.9,2.1,4.4c0.9,2.2,2.1,3.6,4.8,2.8c1.1-0.3,2.4-0.2,3.7-0.2 c1.5,0,1.8-0.7,2-2.1c0.2-2.6,0.5-5.3,1.3-7.7c1.1-3,4.1-3.9,6.9-2.3c1.2,0.7,2.4,1.8,3.3,2.9c1.6,2.1,2.9,4.3,4.4,6.7 c3.4-0.7,7-1.4,10.7-2.2c-0.1-0.7-0.2-1.3-0.3-1.8c-0.4-3.2-1.2-6.3-1.1-9.5c0-5.4,4.3-7.9,9.2-5.6c1.5,0.7,2.9,1.6,4.1,2.7 c2.7,2.7,5.3,5.5,8.1,8.5c4.4-1.7,9.2-3.5,14.1-5.4c-0.6-0.9-1-1.5-1.4-2.1c-2-3.1-3.1-6.5-3.1-10.2c0.1-2.7,0.7-5.4,3.4-6.6 c2.8-1.2,5.1,0,7.2,1.9c1.1,1,2.1,2.1,3,3.3c1.6,2.3,3.1,4.8,4.7,7.4c4.9-2.8,9.9-5.7,14.6-8.3c-1.2-3.1-2.4-5.6-3.2-8.2 c-0.7-2.5-0.2-4.9,2-6.7c2-1.6,4.3-2,6.7-1c1.6,0.6,3,1.7,4.4,2.5c0,0.3,0,0.7,0,1c-1.2-0.8-2.4-1.7-3.7-2.4 c-2.4-1.2-4.8-1.1-6.9,0.5c-2,1.6-2.3,3.9-1.6,6.1c0.8,2.5,2.1,4.9,3.3,7.5c1.3-0.9,2.2-1.4,3-2c-0.6-1.1-1.1-2-1.5-2.9 c-0.8-1.9-0.5-3.6,1.3-4.8c1.6-1.1,3.1-0.5,4.5,0.6c0.6,0.5,1.1,0.9,1.7,1.4c0,0.3,0,0.7,0,1c-0.6-0.5-1.2-1.1-1.8-1.6 c-1.3-1.2-2.8-1.6-4.2-0.5c-1.4,1.1-1.1,2.6-0.2,4c0.4,0.7,1,1.2,1.5,1.9c1.6-1,3.2-1.9,4.7-2.8 C493.1,208.9,493.1,209.9,493.1,210.9z M9.8,205.5c0.2,0.9,0.5,1.8,0.7,2.8c1-0.7,1.6-1.2,2.6-2c-0.7-0.5-1.2-1-1.8-1.4 c-0.3-0.4-0.5-0.7-0.8-1.1c1.3-1.5,0.9-2.7-0.8-4.1c-1.1,1.3-2.2,2.5-3.3,3.8c0.1,0.2,0.2,0.4,0.3,0.5c1.3-0.1,2.5-0.2,3.8-0.3 c-1.5,0.3-2.9,0.6-4.6,1c-0.1,0.5-0.4,1.3-0.5,1.6C7,206.1,8.4,205.8,9.8,205.5z M133.6,240.5c0.8,0.6,1.6,1.2,2.4,1.8 c0.4-0.9,0.8-1.6,1.3-2.8c-1.1,0-1.9,0-2.7,0c-0.2-0.5-0.3-0.9-0.5-1.4c-0.7-1-1.4-2.1-2.1-3.1c-0.3,0.1-0.6,0.2-0.9,0.3 c-0.4,1.6-0.7,3.3-1.2,5.3c1.1-0.3,1.7-0.5,2.3-0.7c-0.7,0.5-1.3,1-2.1,1.5c0.2,0.8,0.5,1.6,0.5,1.9 C131.6,242.5,132.6,241.5,133.6,240.5z M242,355.9c1.4,1,2.9,1.9,4.4,3c0-1.2,0-2.1,0-2.9C244.8,355.9,243.4,355.9,242,355.9 c0.7-0.1,1.4-0.4,2.1-0.5c2.1-0.3,3.9-1,4.9-3c0.4-0.4,0.8-0.7,1.3-1.1c-0.5,1-1.1,2.1-1.6,3.1c3.5,0.5,2.3,3.1,2,4.8 c1.4-0.6,2.7-1.2,4.1-1.8c0.2,0.6,0.7,1.2,0.5,1.7c-0.2,0.6-0.9,0.9-1.4,1.4c0.2-0.8,0.6-1.4,0.9-1.9c0-0.1-0.6-0.6-0.7-0.5 c-0.8,0.5-1.6,1.1-2.7,1.8c1.7,0.8,2.7,1.5,3.9,1.7c0.9,0.1,1.9-0.4,2.8-0.6c1.3,1.4,2.6,2.8,3.9,4.3c1.3-1.9,0.2-3-1.5-4.1 c-3.1-1.9-3.5-2.7-2.9-6.2c0.2-0.4,0.4-0.9,0.6-1.3c0.2,0.2,0.3,0.3,0.5,0.5c-1.5,3.9-1,5,4.3,7.7c0.2-0.5,0.5-1,0.7-1.5 c0.2-0.2,0.3-0.3,0.5-0.5c0.2,0,0.4,0,0.6,0c-0.1,0.4-0.3,0.9-0.3,1.1c1,0.5,1.9,1,3,1.5c0.4-0.7,0.8-1.4,1.1-2 c0.2,0.1,0.4,0.2,0.6,0.3l0,0c0.9,1,2.7,2,0.1,2.9c0.5,0.8,0.9,1.4,1.3,2.1c-0.3,0.2-0.6,0.4-0.9,0.5c0.7,1.5,1.3,2.9,2,4.4 c0.7,1.5,1.7,2.5,3.5,0.8c-0.4,0.8-0.9,1.6-1.4,1.5c-0.7,0-1.6-0.4-2-0.9c-0.7-1-1.1-2.2-1.8-3.2c-1.1-1.5-2.2-1.3-2.8,0.3 c-2.3,1.4-1.5,2.8,1.4,6.9c0.7-0.4,1.4-0.8,2.1-1.2c0.8,1.6,1.9,3.2-0.2,4.6c2.5,3.4,4.6,4.9,8.5,5.5c2.9,0.5,5.9,0.6,9,0.9 c-0.7-2.1-1.8-3-3.9-2.8c-2.1,0.2-4.2,0.2-6.3,0.3c-1.5,0.1-3.2-0.1-3.1-1.9c0.1-1.1,1.4-2.3,2.4-3.2c0.4-0.3,1.5,0,2.2,0.3 c0.2,0.1,0.3,1.2,0.1,1.4c-0.5,0.5-1.2,0.7-1.9,1c0-0.1-0.1-0.2-0.1-0.3c0.6-0.4,1.1-0.8,1.7-1.3c-0.2-0.3-0.3-0.6-0.5-0.9 c-1,0.5-2,0.9-2.9,1.6c-0.3,0.2-0.3,1.6,0,1.7c0.9,0.4,1.9,0.7,2.9,0.7c1,0,1.9-0.3,2.9-0.5c3.8-0.8,6.1,0.3,7.7,3.8 c1.4-2.1,1.2-3.5-0.8-4.6c-1.1-0.6-2.4-0.9-3.7-1.4c-2.7-1.1-3.1-2.1-2.2-4.9c0.1,0,0.2-0.1,0.3-0.1c0.2,0.1,0.7,0.3,0.7,0.3 c-1,2.8-0.8,3.4,1.9,4.3c1.6,0.6,3.2,1.2,4.9,1.9c0.2-0.6,0.5-1.2,0.7-1.9c0.1-0.1,0.2-0.3,0.3-0.4c0.9-0.5,1.7-1,2.6-1.5 c-0.6,0.9-1.3,1.8-1.8,2.5c0.8,0.2,1.7,0.5,2.7,0.6c0.7,0.1,1.5,0.1,2.2,0.2c-0.6,1.3-3,2.4-0.5,4.2c1.1-1.4,2.1-2.7,0.4-4.2 c-0.4-1.4-0.8-2.8-1.2-4.2c1,0.3,2.1,0.5,3.3,0.8c0.3,1.2,0.8,3,1.2,4.3c-0.6,0.7-1.4,1.2-1.3,1.5c0.2,1,3.6,1.9,4.6,1.5 c1.1-0.5,2.3-0.9,3.4-1.4c0.1,0.2,0.2,0.4,0.2,0.6c-1.4,1.3-2.9,2.6-4.5,4c-0.4-0.3-0.9-0.7-1.4-1.1c-0.1,0.1-0.3,0.2-0.4,0.3 c1.5,1.6,2.9,3.3,4.4,4.9c-1.4-0.9-2.6-2.1-3.8-3.1c-1.7-1.4-2.7-1.2-3.9,0.8c2.7-0.7,4.3,0,5.8,2.7c0,1.8,0,3.5,0,5.3 c0.2,0,0.4-0.1,0.6-0.1c0.6-0.9,1.1-1.9,1.7-2.8c3.7,1.2,5.5,0,6-3.9c0.1-0.7,0.1-1.5,0-2.2c-0.2-2,0-3.7,2.3-4.4 c-5.7-7.8-12.8-13.7-21.4-17.6c-6.7-3.1-12.4-7.5-16.8-13.6c-5.4-7.6-13.3-10.2-21.6-10.6c-0.9,1.2-1.5,2.1-2.3,2.8 c-0.2,0.2-1.1-0.1-1.2-0.4c-0.2-0.4-0.1-1.1-0.1-2c0.5,0.9,0.8,1.4,1.1,1.8c0.3-0.2,0.9-0.5,0.9-0.7c0-0.5-0.3-1.4-0.5-1.4 c-1.2-0.1-2.3,0.1-3.5,0.2c0.2,0.9,0.1,2.1,0.6,2.7c1.6,1.9,2.7,3.7,1,6.1c0.5-1.8,0.4-3.5-0.9-5.1c-0.9-1.1-1.6-2.5-2.5-4 c-7.6,0.5-15.7,1-23.7,1.5c0,3.2-0.1,3.6-2.7,6.5c0.6-1.1,1.3-2.2,1.8-3.4c0.6-1.4,0.7-2.9-1.1-3.4c-1.5-0.4-3-0.4-4.6-0.6 c-2.2,5.8-1.8,14.7,1,20.2c0.8-0.3,1.6-0.6,2.3-0.8c0.2-1.9-0.8-4.2,2.1-4.6c0.6,1.1,1.8,2.2-0.1,3.4c0-0.9,0.1-1.6,0.1-2.3 c-0.3,0-0.6-0.1-0.9-0.1c-0.2,1.1-0.3,2.1-0.5,3.2c0.2,0.1,0.5,0.3,0.7,0.4c1.3-0.7,2.8-1.2,3.9-2.2c1.8-1.7,3.5-2.6,5.6-0.6 c-0.1-2.7-0.9-3.4-3.3-3c-2.2,0.4-4.2,0.1-6-1.3c-0.1-0.1-0.3-0.3-0.4-0.4c0-0.8,0-1.7,0-3.2c1,4.4,2.9,5.1,8.5,3.9 c0.3-1.6,0.7-3,1-4.5c-0.1,0.9-0.5,1.9,1.1,1.8c0.4,0,0.8,0.6,1.2,0.9c-0.6,0.6-1.6,1.1-1.6,1.7c0,0.9,0.7,1.9,1,2.8 c0.3-0.1,0.7-0.2,1-0.3c-0.2-1.4-0.4-2.9-0.6-4.3c0.5-0.9,1-1.9,1.6-2.8c0.6,0,1.2,0,1.8,0.1c0.4,0.1,0.7,0.1,1.4,0.2 c-0.6,0.7-1,1.1-1.5,1.7c0.9,0.2,1.6,0.3,2.2,0.5c-2.4,1-2.7,1.8-1.5,5c0.6-2,1-3.5,1.5-5c0.6,0.1,1.1,0.2,1.7,0.3l-0.1-0.1 c0,0.3,0,0.8,0.1,0.9c1.5,0.5,8-1.9,8.9-3.2c0.8-1.3,0.3-2.7-1.2-3c-0.7-0.1-1.4,0.1-2.1,0.1c0-0.2,0.1-0.5,0.1-0.7 c1.2,0.3,2.6,0.2,3.4,0.9c0.6,0.5,0.3,2,0.4,3c0,0.4-0.2,0.7-0.3,1.1c-2.5,0.8-5,1.6-7.6,2.4c-1.6,0.5-3.1,1-3.8,2.6 C239.2,356.9,240.6,356.4,242,355.9z M296.4,237.6c1,0.8,2,1.6,3.1,2.5c0.8-1,1.4-2,2.2-3.1c-1.2-0.9-2.3-1.6-3.5-2.4 c-1.5-1.1-3-2.1-4.5-3.1c-1.6,3.3-3,6.5-4.5,9.6l0.1-0.1c-0.5,0.7-1.1,1.4-1.6,2.1l0.1,0c-2.6,1.9-5.2,3.8-7.5,5.5 c4,5.8,8.5,11.6,12.4,17.8c3.9,6.3,6.5,13.2,8.2,20.5c1.6,7.1,3.1,14.2,1.8,21.5c-0.6-3.9-0.8-7.8-1.4-11.7 c-2.4-17.8-9.9-33.3-22.2-46.4c-0.4-0.4-1-1.1-1.5-1c-2.4,0.1-4.8,0.3-7.2,0.5c1.1,3.1,2.3,6.1,3,9.1c0.7,3.2,1.2,6.5,1.3,9.7 c0.1,3.2-0.1,6.4-0.8,9.5c-0.7,3-2,5.9-3.1,8.9c-0.3-0.1-0.5-0.2-0.8-0.3c0.3-1,0.6-2,0.9-3c2.5-7.6,3.7-15.4,1.7-23.2 c-1.3-5.1-1.8-10.8-7.4-13.3c-2.7,1.3-5.2,2.6-7.9,3.9c0.4,2,0.9,4.1,1.2,6.2c0.3,2,1.2,2.4,3,1.9c3.9-1,4.4-2.7,1.9-5.7 c-0.5-0.6-1.2-1.1-1.7-1.8c-0.3-0.4-0.3-0.9-0.5-1.4c0.2-0.1,0.3-0.3,0.5-0.4c0.6,0.4,1.4,0.7,1.8,1.3c1.8,2.6,3.9,5.2,5.1,8 c3.5,8.8,2.7,17.7-1.3,26c-3.6,7.6-8.3,14.7-12.5,21.9c-0.5,0.8-1,1.6-1.7,2.8c2.8-0.3,5-0.5,7.2-0.7c2.4-0.1,4.8-0.1,6.1-2.7 c-0.3,0.7-0.6,1.4-0.9,2.1c11.3,0.4,16.5,0,28.4,7.8c0.4-3.6,0.8-7.1,1.2-10.6c0.2,3.4-0.2,6.7-0.4,10c-0.1,0.7,0,1.7,0.4,2.2 c3.1,3.4,6.2,6.8,9.5,10c1.4,1.4,3.1,2.5,4.9,3.9c3.4-12.5,3.7-24.7,2.3-37c0.7,3,1.2,5.9,1.3,8.9c0.4,9-0.1,18-2.3,26.9 c-0.2,0.7,0.2,2,0.7,2.2c3.6,1.7,7.2,3.1,10.9,4.7c0.4-0.8,0.5-1.1,0.5-1.3c2.7-15.1,3.8-30.3,1.1-45.5 c-3.8-21.4-12.8-39.9-30.6-53.2c-0.5-0.4-0.8-1.1-1.1-1.6c0.2-0.2,0.4-0.3,0.5-0.5c1,0.6,2,1.2,3.1,1.8 C296,237.2,296.2,237.4,296.4,237.6z M189,244.9c-0.7,0.8-1.4,1.7-2.5,3c2.4-0.4,4.1-0.7,5.7-1.1c0.6-0.1,1.1-0.7,1.6-1 c0.8,0.1,1.5,0.3,2.8,0.5c-2.3-2.3-5.1-3.1-7.2-2.4C189.2,244,189.1,244.6,189,244.9z M78.7,242.8c1.9-1.9,4-1.4,5.6,1.2 c0.5,0.9,1.3,1.6,2,2.4c0.2-0.2,0.3-0.3,0.5-0.5c-1.5-2.4-2.8-5-6.1-5.4c-1.7-0.2-3.5,1.3-4.6,3.7c0.8-0.4,1.3-0.6,1.9-0.9 c0.3,0.4,0.6,1.1,1,1.2c1.7,0.5,3.4,0.8,5.2,1.2C83.1,242.4,82.1,241.9,78.7,242.8z M193.3,235.5c0.1,1.1,0.1,2.1,0.2,3.2 c1-1.6,1.7-2.9,2.6-4.1c0.7-0.9,1.7-1.7-0.4-2c-0.2-1.8-1.4-2.3-3.5-2.5C192.9,232.1,191.1,234,193.3,235.5z M61.6,239.1 c0.6,0.5,1.1,1,2.2,1.9c-1.6-5.6-5.7-6.9-11.8-4.3c0.1,0.2,0.1,0.5,0.2,0.7c1.2-0.3,2.4-0.6,3.6-1c-0.3,0.4-0.6,0.9-1.1,1.5 c2,0.7,4,1.3,5.9,1.8C60.9,239.9,61.3,239.4,61.6,239.1z M146.1,249.7c0-0.2,0-0.5,0.1-0.7c1.8-2.2,3.9-2.1,6.3,0.1 c1,0.9,2.1,1.6,3.2,2.4c0.2-0.3,0.4-0.6,0.6-0.9c-1.9-1.3-3.6-2.8-5.6-3.8c-3.1-1.5-6.3,1-6.3,5.3 C145.2,251,145.7,250.3,146.1,249.7c0.1,0.7-0.5,1.8,1.1,1.8c2,0,4,0,6.3,0C150.5,247.5,149.1,247.3,146.1,249.7z M217.1,240.3 c0.9,0,1.8,0.1,2.7,0.1c-2.9-2-5.7-4.6-9.3-2.3c-1.8,1.1-2.3,3-1.9,5.7c1-1.9,1.8-3.2,2.5-4.5c-0.3,1.1-0.7,2.2-1.2,3.7 c2-0.5,3.6-0.8,5-1.3C215.8,241.5,216.4,240.8,217.1,240.3z M14.9,220.7c0.1-0.2,0.1-0.5,0.2-0.7c2.5-2.5,5.6-1.4,6.7,2.2 c0.4,1.4,1.1,2.6,1.7,3.9c0.3-0.1,0.6-0.3,0.8-0.4c-0.8-1.9-1.5-3.8-2.5-5.5c-1.7-3-5.6-3.3-7.9-0.7c-0.3,0.3-0.3,1-0.4,1.5 C14,220.8,14.5,220.7,14.9,220.7c0.2,0.3,0.2,1,0.5,1.2c2,1.1,4,2,6.2,3.1C20.7,219.1,18.7,218,14.9,220.7z M217.9,263.1 c1.9-0.5,3.7-1.1,6.2-1.8c0.5-1,1.4-2.8,2.1-4.6c0.2-0.5,0-1.2-0.3-1.7c-0.8-1.4-1.6-2.6-2.4-3.9c-1.3,1.8-1.2,1.7,0,3.7 c0.6,1,0.8,2.3,1.3,3.4c-1.3,0.4-2.5,1.2-3.8,1.3C218.1,259.8,217.8,260,217.9,263.1c-1.5,0-2.1,1-1.7,2.2c0.6,2,1.7,3.8,2.5,5.7 c2-1.3,2.2-2.1,0.8-4.6C218.9,265.3,218.5,264.2,217.9,263.1z M187.9,186.2L187.9,186.2c-1.5-0.6-3.1-1.3-4.9-2.2 c-0.4,1.9-0.8,3.5-1.1,5.3c3,0.8,5.8,1.6,8.6,2.3C192,187.1,191.9,186.9,187.9,186.2z M246,319.9c-1.5,1.8-3,3.6-4.8,5.8 c3.3-0.4,5.8-0.7,8.4-1.1c0.4-0.1,1-0.4,1.1-0.8c1-2.3,2-4.7,3-7.1c-1,0.1-2,0.2-3.1,0.3C248.6,317.3,246.5,317.3,246,319.9 L246,319.9z M239.8,311c-2.7,2.6-2.8,2.9,0.1,5.5c1.1,1,2.5,1.7,3.9,2.7c1.8-2.6,3.5-4.9,4.9-6.9c-2-1.8-3.8-3.3-5.7-5 C242.1,308.3,240.9,309.7,239.8,311L239.8,311z M230.8,320.8c-1,0.9-2,1.8-2.9,2.7c2,3.4,4.7,5,8.4,5.6c1.7-2.2,3.4-4.4,4.9-6.3 c-2.6-2-4.9-3.9-7.4-5.8C232.7,318.2,231.7,319.5,230.8,320.8C230.7,320.9,230.8,320.8,230.8,320.8z M249.4,299.8 c-0.8,1.1-2.4,2.5-2.2,3.3c0.6,2.2,2.5,3.7,4.9,4.3c2.3-3.6,4.6-7,6.7-10.2c-2-1.5-3.8-2.9-5.7-4.3 C251.9,295.2,250.6,297.5,249.4,299.8C249.4,299.8,249.4,299.8,249.4,299.8z M260.6,293c0.2,0,0.6,0.1,0.7,0 c2.5-4,4.6-8.2,5.9-13.2c-3.4,2-6.2,0.9-8.9-0.8c-0.9,2.7-1.8,5.3-2.4,8c-0.2,0.8,0.1,2,0.6,2.5C257.7,290.8,259.2,291.8,260.6,293 c-1.9-0.9-3.9-1.9-6-2.9c-1.1,2,0.3,3.7,5.3,5.7C260.2,294.8,260.4,293.9,260.6,293z M294.7,194.4c2.8-0.8,2.9,1.9,3.9,3.1 c2.7-0.3,5.1-0.6,7.6-1c0-4.9,0.5-6.1,2.7-6.3c2.1-0.2,2.9,0.9,3.7,5.5c1.1-0.2,2.1-0.4,3.4-0.6c-0.7-0.5-1.2-0.8-1.6-1.1 c1.3-0.3,2.4-0.6,3.5-0.8c-0.1,0.4-0.2,0.8-0.3,1.7c1-0.3,1.8-0.5,2.5-0.6c-0.4-1.4-0.8-2.4-1.1-3.7c-1.2,1.8-2.8,3.1-4.7,1.6 c-1.4-1.1-2.1-3-3.1-4.6c-2.3,0.8-4.7,1.8-7.3,2.7c-0.2,1.6,0.8,4-1.8,4.8c-2.5,0.8-3.9-1-5.3-3.7 C295.8,192.6,295.3,193.5,294.7,194.4c-1.7-1.2-3-1.5-3,1.3c0,0.5-1.1,1.2-1.8,1.3c-0.7,0.1-1.6-0.5-2.3-0.7 c0.1-0.1,0.1-0.3,0.2-0.4c1,0,1.9,0,2.9,0c0-0.2,0-0.4,0-0.5c-1.5,0-3.1,0-5.1,0c1.2,1.5,1.2,1.5,5.9,2.4 C292.8,196.4,293.8,195.4,294.7,194.4z M321.5,366.7c0.2,0.2,0.3,0.4,0.5,0.6c1.1,0.5,2.2,1.2,3.3,1.4c0.6,0.1,1.9-0.4,2.1-0.9 c1.2-3.4,2.3-6.9,3.1-9.6c-3.4-1.5-6.5-2.9-9.6-4.2c-0.6,2.1-1.3,4.7-2.1,7.3C317.9,364.7,318,365,321.5,366.7z M330.4,274.5 L330.4,274.5c-1.1-2.6-2.2-5.3-3.3-7.8c-2.3,1.4-4.3,2.7-6.3,3.9c1,3.3,2.2,6.7,3.1,10.1c1,3.6,1.7,4,5.2,2.6c1-0.4,2.1-1,2.9-1.8 c0.4-0.4,0.9-1.3,0.7-1.8C332.1,277.9,331.2,276.2,330.4,274.5z M211,275.4c1.9-0.2,3.8-0.4,6.3-0.7c0.1-0.4,0.6-1.6,0.3-2.4 c-0.2-0.5-1.6-0.6-2.5-0.8c-0.9-0.2-1.7-0.3-2.8-0.4c-0.7,1.2-1.5,2.4-2.2,3.7c-0.5,1.1-1.3,2.2-1.5,3.4c-0.2,1.2,0.5,3-0.1,3.7 c-0.9,1-2.6,1.2-4,1.6c-0.6,0.2-1.6,0-1.9,0.4c-1.8,1.8-4.4,3.2-2.5,6.6c0.6,1-0.1,3.3-0.9,4.4c-1.2,1.5-3.2,1.5-5,0.5 c-0.8-0.4-1.4-1.3-2.1-1.9c-1.5,1.1-3.1,2.2-4.6,3.4c-0.5,0.4-0.9,1-1,1.5c-0.2,2.5-0.3,5.1-0.5,7.7c-2.3-1.4-5.8-0.6-6.9-3.8 c-4.3,1.9-8.5,3.8-13.2,5.9c1.2,0,1.8-0.1,2.3,0c1.7,0.2,4,0.1,4.2,2.2c0.2,1.4-0.8,3.3-1.8,4.4c-2,2.2-4.3,4-6.7,6.1 c1.4,2.8,2.8,5.8,4.3,8.7c2.6-0.5,4.9-1,7.2-1.4c6.3-1.2,7,2.9,5.9,6.9c-0.8,2.8-2,5.5-3,8.4c0.9,0.9,1.9,2,2.9,3 c3.1-1.4,5.9-2.9,8.9-4.1c2.8-1.1,4.3,0,3.8,2.9c-0.5,3.2-1.6,6.3-2.6,9.7c1.1,0.8,2.7,1.7,4.1,2.7c2.5,1.8,4.6,3,7.8,0.4 c3.3-2.8,7.2-0.7,7.8,3.7c0.2,1.3-0.1,2.7-0.2,4.2c4.6,2.4,9.2,4.9,13.9,7.4c0.1-0.1,0.3-0.3,0.5-0.4c1.3-0.6,2.5-1.2,3.8-1.8 c0.2,1.4,0.3,2.7,0.5,4.1c0.1,0.7,0.4,1.4,0.6,2.1c0.2,0,0.4-0.1,0.6-0.1c0.3-1.7,1-3.4,0.9-5c0-1.3-0.8-2.7-1.3-4 c-1.1,0.5-2.3,0.9-3.4,1.6c-1,0.6-1.8,1.5-2.7,2.3c-0.3-0.3-0.6-0.6-0.8-0.9c1.2-1,2.3-2.2,3.7-3.1c0.9-0.6,2.5-1.5,3.2-1.1 c1.1,0.6,2.2,2.1,2.3,3.3c0.1,2.4-0.5,4.9-0.9,7.8c0.7,0.6,1.9,1.5,3.6,2.8c-0.6-7.2,0.1-13.8,2.9-20.3c-2.1,0.3-3.8,0.5-5.8,0.7 c0.8,0.7,1.4,1.3,2,1.8c-4.7-2.1-5.3-1.9-8.3,2.2c-2.2,3.2-5.3,3.1-7.5-0.3c-1.6,0.7-2.6,0.4-2.6-1.6c0-0.5-0.6-1-0.8-1.5 c-0.8-2.7-1.9-5.4-2.2-8.2c-0.8-9.4,2.5-17.7,8.1-24.9c5-6.5,10.6-12.5,16.3-18.4c8.8-9.3,16.2-19.4,18.7-32.3 c0.7-3.7,1-7.5,1.5-11.3c-2.6,5-5.2,9.9-7.7,14.7c-0.3,0-0.7-0.1-1-0.1c2.9-9.7,2.6-19.3,0.4-28.9c1.1,3.8,2,7.6,2.3,11.4 c0.3,3.9,0.1,7.9,0.1,11.9c5.1-6.1,6.9-18.2,3.5-24.8c-1.2-0.1-2.4-0.2-3.7-0.2c-0.3,0-0.6,0.5-1,0.8l0.1-0.1c-1.1-1-2.2-2-3.5-3.2 c-0.5,8.5-2.5,15.9-9.9,21.4c1.1-3.1,2.2-5.6,2.8-8.3c0.6-2.7,1-5.5,1.1-8.3c0.1-2.7-0.2-5.3-0.4-8c1.7,5.9,1.4,11.8,0.4,17.7 c1.5-2.9,2.7-5.9,3.5-8.9c0.4-1.3,0-2.8-0.1-4.2c0-1.6,0-3.2,0-5.3c0.5,1.1,0.7,1.6,0.9,2.1c0.2-0.1,0.3-0.1,0.5-0.2 c-0.2-0.9-0.4-1.8-0.6-2.7c-1,0.3-1.9,0.6-3,1c0.8,1.8,1.5,3.4,2.2,5.1c-0.2,0.9-0.3,1.8-0.5,2.6c-0.9-2.4-1.3-4.7-2.1-6.9 c-0.2-0.5-1.4-1.1-1.9-0.9c-1,0.4-1.7,1.3-2.7,1.9c-4.5,2.5-8.5,5.3-8.8,11.1c0,0.3-0.3,0.5-0.6,1.1c-0.1-1.2-0.2-2-0.4-3.2 c-1.9,4.1-3.5,7.9-5.3,11.5c-6.7,13.8-15.2,26.2-27.8,35.4c-5.2,3.8-10.9,6.9-17.2,8.7c5.9,17.1,16.4,29.5,33.3,36.2 c0.8,0.3,1.5,0.9,2.2,1.3c-0.1,0.3-0.3,0.6-0.4,0.8c-1.4-0.4-2.8-0.8-4.2-1.1c-1.1,1.2-2,2.6-3.2,3.7c-3.4,2.8-7.5,1.5-8.6-2.7 c-0.4-1.4-0.3-3.1-0.2-4.6c0.1-1.2,0.4-2.4,0.6-3.3c-1.2-1-2.2-1.8-2.9-2.4c-1.9,0.7-3.7,1.5-5.5,1.8c-3.1,0.6-5.7-1.6-5.2-4.5 c0.4-2.3,1.3-4.5,1.9-6.7c-0.4,2.3-0.9,4.6-1.1,7c-0.2,2.4,1.4,3.9,3.6,3.5c1.8-0.3,3.4-1.1,5.2-1.7c-0.1-0.3-0.1-0.5-0.2-0.8 c-0.6,0-1.2,0.1-1.8,0.1c-1.3,0-2.9,0.3-3.9-0.3c-0.6-0.4-0.7-2.3-0.3-3.3c0.8-2.1-0.2-3.2-1.6-4.4c-1.1-1.7-2.1-3.4-2.8-4.6 c-2.8,0.5-5.2,1.2-7.6,1.2c-3.9,0.1-5.6-2.7-3.7-6c1.2-2.2,2.9-4.1,4.4-6.2c-0.4,0.7-0.7,1.4-1.1,2.1c-1,1.8-2.2,3.6-3,5.5 c-0.3,0.7,0,2,0.5,2.7c1.1,1.7,8.1,1.7,9.5-1.1c-0.2-0.1-0.4-0.3-0.6-0.3c-2.1,0.6-4.1,0.7-5.4-1.4c-1.3-2.1,0.5-3.4,1.4-5 c0.4-0.8,0.5-1.9,0.9-3.2c-1.2,0.4-1.7,0.6-2.3,0.8c0.5-0.7,1-1.4,1.2-1.7c-1.2-1.3-2.1-2.3-3-3.2c0.2-0.2,0.4-0.3,0.7-0.5 c0.3,0.6,0.5,1.2,1.1,2.4c0-1.3-0.2-2,0-2.5c0.6-1.1,1.2-2.6,2.3-3.1c0.9-0.4,2.9-0.2,3.5,0.6c1.9,2.3,3.4,1.2,5.1,0 c1.3-0.6,2.6-1.1,3.9-1.7c-1.5-3.2-1.4-5.3,0.2-6.5c1.7-1.3,3.1-0.8,6.3,2.1c2.4-2.2,4.9-4.4,7.4-6.7c-1.4-1.6-2.3-3.5-0.9-5.1 c0.8-1,2.7-1.9,3.7-1.6c2.7,0.8,3.7-0.7,4.8-2.4c0.6-0.9,1.3-1.8,1.9-2.7C211.1,279.4,211.1,279.4,211,275.4z M304.6,400.1 c-0.9-2-1.9-3.9-2.8-5.9c-0.4-0.9-0.5-1.9-1.1-2.6c-0.4-0.5-1.4-0.5-2.1-0.7c-0.1,0.7-0.4,1.6-0.1,2.1c1,2.1,2.2,4.2,3.3,6.3 c1.8,3.2,3.4,6.5,5.4,9.6c1.3,2.1,3.4,3.4,5.6,4c4.1-12.8,8.1-25.5,12-37.6c-3.1-1.5-6-2.8-9-4.2c-0.7,2.1-1.4,4.4-2.3,6.7 c-0.4,1.2-0.4,2,0.5,3.1c1.8,2.2,3.3,4.7,4.9,7.1c0.2,0.4,0,1.4-0.4,1.9c-0.5,0.6-1.3,1-2,1.2c-0.5,0.2-1.5,0.3-1.8,0 c-0.5-0.5-0.8-1.4-0.9-2.1c0-0.3,0.8-0.7,1.4-1.1c-0.2,1.1-0.3,1.8-0.4,2.5c0.4,0,1,0.2,1,0.1c0.3-0.7,0.9-1.7,0.7-2.1 c-0.7-1.1-1.7-2-2.6-2.9c-0.6,0.6-1.5,1.1-1.7,1.7c-0.3,1.3,0,2.8-0.1,4.2c-0.1,3.3-2,5-4.6,4.8c0,1.7,0.5,3.6-0.2,4.9 C306.7,402.2,305.3,401.3,304.6,400.1c0.9-0.1,1.9-0.1,2.9-0.2c-0.3-1-0.4-2-0.9-2.9c-0.1-0.3-1-0.3-1.5-0.2 c-0.1,0-0.2,0.8-0.2,1.2c0.5,0.1,1,0.1,2,0.2C306.1,399,305.4,399.6,304.6,400.1z M243.6,235.4c-1.1,1.8-2.3,3.7-3.6,5.7 c0.6,0.4,1.5,1.3,1.7,1.1c0.9-0.6,1.6-1.6,2.5-2.6c0.2,0.5,0.4,1.3,0.6,1.8c1.5-2.7,3.1-5.6,4.8-8.4c1.8-2.9,4.1-5.6,5.5-8.7 c1.5-3.4,2.5-7.1,3-10.8c1.1-8-4.6-16.3-12.2-18.3c-1.1-0.3-2.8-0.4-3.4,0.2c-7.8,8.1-12.8,16.1-6.3,26.8c2.5,4.1,3.5,8.5,1.4,13.1 c-0.2,0.4-0.4,0.8-0.3,1.2c0.3,0.8,0.7,1.5,1.1,2.3c0.7-0.4,1.8-0.5,2.1-1.1c0.9-1.5,1.4-3.1,2.2-4.7c1-2.2,2-4.3,3.1-6.5 c0.2,0.1,0.4,0.2,0.7,0.3C245.4,229.7,244.5,232.6,243.6,235.4L243.6,235.4z M277.5,195.3c-0.3-0.4-0.6-1.2-0.9-1.2 c-1.6,0.1-3.1,0.4-4.7,0.6c0.5,1.5,0.9,2.6,1.3,3.7c-0.2,0.2-0.5,0.4-0.7,0.6c-3.7-3.8-7.3-7.8-12.8-8.9 c-5.5-1.1-10.5-0.3-15.4,2.8c0.6,0.2,1,0.4,1.4,0.5c7.7,2,12.3,7.1,13.9,14.7c1.4,6.3,0.1,12.4-3.1,18c-1.8,3.3-4.2,6.3-6.2,9.4 c-1.6,2.4-3,4.9-2.7,8c0.3,4.2,4.1,6.5,7.6,4.6c0.3-0.1,0.6-0.2,0.9-0.2c1.3-0.1,2.7,0.1,3.7-0.3c4.7-2,8.2-5.4,10.5-10 c0.9-1.8,1.8-3.6,2.6-5.3c0.7,5.5-2.5,9.3-5.9,12.9c6.6,3.5,14.5,1.5,19.5-4.7c4.5-5.6,5.3-12.2,5.3-19.8c-0.3,1.2-0.4,1.7-0.7,2.6 c-0.2-2.9-0.4-5.4-0.6-8.1c0.3,0.5,0.5,0.7,1,1.6c-0.4-2.3-0.5-3.9-0.9-5.5c-1-4.2-1.9-8.2-4.9-12c-2.2-2.8-4.5-4.2-8.1-5.5 c1.1,1.7,1.9,2.7,2.6,3.8c-0.5,0-1.1,0.1-1.2,0.1C278.6,196.9,278.1,196.1,277.5,195.3z M283.1,341.5c-4-4.4-7.9-8.3-13.1-10.8 c-8.7-4.2-17.8-5.4-27.3-3.1c-1.1,0.3-2.7,0-3.3,0.7c-3.8,4.3-7.3,8.8-11.1,13.5c14.3-0.4,28.5-4.4,41.5,2.9 c0.5-1.1,0.7-2.8,1.5-3.2c0.9-0.5,2.4,0.2,3.8,0.4c0.9-2.4-0.6-4.1-3.7-5.5c3.3-0.2,4.9,1.1,5.2,3.5c0.5,3.4-0.9,5.4-4.2,6.2 c2.2,2.5,4.5,4.9,6.6,7.5c3,3.9,6.6,7,11.1,9.1c7.8,3.7,15,8.2,21,14.4c0.1,0.1,0.3,0,0.5,0c0.9-2.7,1.8-5.4,2.6-8.2 c1.6-5.1,0.5-9.6-3.6-13c-2.2-1.8-4.9-3.1-7.5-4.6c-1.4,2.1-2.6,3.7-3.7,5.3c-0.1-0.1-0.2-0.2-0.3-0.3c0.8-1.6,1.7-3.3,2.6-5.1 c-6.6-2.1-13.2-3.9-17.8-9.3c-1.5,1.7-2.9,3.3-4.3,4.9c-0.1-0.1-0.2-0.2-0.3-0.3C280.5,345,281.7,343.3,283.1,341.5z M39.2,91.6 c4.7,4.9,9.7,10.1,14.6,15.3c3.9-2.1,6.5-5,7.8-9c0.2-0.6,0.3-1.6-0.1-2c-3.6-4.6-7.4-9.1-10.8-13.2C47,85.6,43.2,88.5,39.2,91.6z M16.2,65.5c5.6-1.6,10.3-4.3,13.9-8.7c0.5-0.6,1-1.9,0.6-2.5c-2.3-3.9-4.8-7.7-7.3-11.7c-4.8,5.5-10.6,8.7-17.7,10.2 C9.4,57.3,12.8,61.4,16.2,65.5z M46.3,76.6c-3.5-4.9-6.9-9.7-10.1-14c-4.5,3.6-8.9,7.1-13.4,10.7c3.4,3.8,6.9,7.9,10.5,11.9 C38.5,83.5,42.8,80.9,46.3,76.6z M60,112.9c4.2,3.9,8.7,8.1,13.1,12.2c3.3-2.7,5.2-5.2,5.8-8.1c0.2-0.8,0.1-1.9-0.4-2.4 c-3.7-4.1-7.5-8-11-11.8C65.1,106.1,62.6,109.4,60,112.9z M79.3,130.7c4.4,3.7,9,7.4,14.2,11.7c1.4-3.2,2.7-5.8,3.8-8.6 c0.2-0.5,0-1.4-0.3-1.7c-3.9-3.7-7.9-7.2-11.7-10.7C83.3,124.5,81.4,127.4,79.3,130.7z M99.4,147c4.9,3.4,9.9,7,15.5,10.9 c1-2.9,1.8-5.3,2.5-7.7c0.2-0.5,0-1.5-0.3-1.8c-4.2-3.4-8.6-6.7-12.8-9.9C102.6,141.3,101.1,144,99.4,147z M138.4,171.7 c0.6-2.3,1.2-4.3,1.4-6.3c0.1-0.8-0.3-2.1-0.9-2.5c-4.7-3.1-9.5-6.1-14.2-9c-1,2.7-2,5.3-3.2,8.2 C127,165.2,132.5,168.4,138.4,171.7z M336.5,333.7c-3.9-0.6-7.3-1-10.8-1.5c-0.8,3.9-1.6,8.1-2.4,12.4c-0.1,0.5,0.2,1.3,0.5,1.6 c2.1,2.1,4.6,3.4,7.7,3.1c0.6,0,1.5-0.5,1.6-1C334.4,343.4,335.5,338.4,336.5,333.7z M327.6,312c-0.2,3.6-0.5,7.6-0.7,11.7 c0,0.5,0.3,1.2,0.7,1.4c2.9,1.4,5.8,2.2,9,1.2c0.4-0.1,1-0.7,1.1-1.1c0.3-4.8,0.6-9.7,0.9-14.1C334.7,311.4,331.4,311.7,327.6,312z M467.3,223.3c-1.3-2.2-2.4-4.3-3.7-6.1c-1.4-1.9-3-3.8-4.9-5.1c-3-2.2-6.3-0.8-6.9,2.8c-0.9,5.2,0.6,9.8,4,13.9 c1-0.5,1.9-0.9,2.5-1.2c-0.9-2-2.1-3.8-2.4-5.7c-0.2-1.3,0.5-3.4,1.6-4.2c1.5-1.2,3.1,0,4.1,1.4c1.2,1.7,2.2,3.5,3.4,5.3 C465.7,224,466.3,223.7,467.3,223.3z M335.5,286.8c-3.4,1.5-6.2,2.8-9.2,4.2c0.4,4.1,0.9,8.5,1.4,13.6c2.9-0.3,5.8-0.6,8.7-0.9 c1.3-0.2,1.7-0.9,1.5-2.3C337,296.6,336.3,291.6,335.5,286.8z M424.5,239.2c-0.5-2.3-1.2-4.6-1.3-6.8c0-1.3,0.9-3.2,2-3.8 c0.9-0.5,2.9,0,3.9,0.7c1.8,1.3,3.2,3,4.6,4.7c1.9,2.4,2.3,2.5,5.1,0.6c-1.1-1.4-2-3.1-3.3-4.2c-2.5-2.3-5.1-4.6-8-6.3 c-2.9-1.7-5.9-0.5-6.7,2.2c-1.5,4.6-0.3,9.1,1,13.7C422.8,239.7,423.7,239.5,424.5,239.2z M285.4,322.8c-3-1.6-5.9-3.1-8.8-4.6 c-0.4-0.2-1.4,0.1-1.8,0.6c-2.6,2.7-4.4,5.8-4.8,9.5c3.1,2,6,3.9,9,5.8c0.9-1.7,1.8-3.5,2.8-5.3C282.8,326.9,284,325.1,285.4,322.8 z M2.1,47.9c-0.1,0.2-0.2,0.5-0.2,0.7c1,0.7,2.2,2.2,3.1,2.1c7.1-0.9,12.9-4.3,17.4-9.9c-0.9-1.5-1.8-2.9-2.7-4.5 C14.9,42.1,9.3,46.3,2.1,47.9z M317,360.1c-0.1,0.1,0,0,0.1-0.1c0.8-3,1.7-6,2.5-9c1.1-4.3-1.5-9-6.2-10.8c-0.9,2.5-2,5-2.5,7.6 c-0.4,1.7-0.6,4,0.2,5.4C312.5,355.8,314.9,357.9,317,360.1z M158.3,181c0.5-2,1-3.7,1.3-5.5c0.1-0.6-0.4-1.6-1-1.9 c-3.8-2.1-7.7-4-11.6-6.1c-0.7,2.4-1.3,4.7-2.1,7.4C149.3,176.9,153.6,178.9,158.3,181z M270.2,316.2c-3.3,0-6.4,0-9.4,0 c-0.6,0-1.4,0.1-1.8,0.5c-2,2.2-4.6,4.2-4.3,7.7c3.6,0.7,7.2,1.3,10.5,1.9C266.8,323,268.4,319.9,270.2,316.2z M259.5,263.9 c-0.2,2.7-0.3,5.7-0.5,8.7c0,0.4,0.1,1.1,0.3,1.1c1.6,0.3,3.5,1,4.9,0.5c1.7-0.5,4.1-1.9,4.3-3.3c0.7-3.6,0.2-7.3-1.1-10.3 C264.8,261.7,262.3,262.7,259.5,263.9z M32.6,57.1c-4,5-8.8,8.3-14.9,10.2c1.3,1.4,2.3,2.6,3.3,3.8c5.3-2.2,11-6.8,13.6-10.9 C34,59.2,33.5,58.3,32.6,57.1z M216.5,341.1c3.2,0.3,5.6,0.6,8,0.8c0.5,0,1.1-0.3,1.4-0.6c2-2.2,3.9-4.6,5.5-6.5 c-2.7-1.9-5.3-3.7-8.2-5.8C221.2,332.6,219,336.6,216.5,341.1z M403.7,222.5c1.6,2.6,2.9,5,4.6,7.2c1.3,1.7,3.7,2.1,5.4,1.1 c1.3-0.8,2.6-2.6,2.9-4.1c0.3-2.1-0.4-4.3-0.7-6.5c-0.1-0.4-0.7-0.7-1.1-1c-0.3,0.5-0.9,0.9-1,1.4c-0.1,0.7,0.3,1.4,0.4,2.2 c0.2,1.7,0.2,3.4-1.7,4.2c-1.8,0.7-3.2-0.3-4.2-1.8c-0.7-1-1.2-2.1-1.9-3.3C405.7,222.1,405,222.2,403.7,222.5z M295.8,347.2 c2.6,0.8,4.7,1.5,7,2.2c1.6-3.8,3.1-7.4,4.7-11.1c-2-0.5-3.8-0.8-5.5-1.4c-1.4-0.6-2.3-0.2-2.8,1.1 C298.1,340.9,297,343.9,295.8,347.2z M381,227.4c1,4,2.4,7.4,5.2,10c2.6,2.4,5.6,1.7,6.1-1.6c0.4-3,0-6-0.1-9 c0-0.4-0.7-0.8-1.1-1.2c-0.3,2,0.2,3.5,0,5c-0.2,1.2-1,2.9-1.9,3.2c-0.9,0.3-2.7-0.6-3.4-1.5c-1-1.4-1.5-3.2-2.3-5.1 C382.9,227.2,382.1,227.3,381,227.4z M434.5,236.5c-2.2-2.5-3.9-4.7-6-6.5c-2.2-1.9-4.3-0.9-4.3,1.9c0,2.4,0.7,4.7,1.1,7.2 C428.5,238.2,431.1,237.5,434.5,236.5z M408.4,242.7c-1.4-3.4-2.8-6.6-5.9-8.7c-2.7-1.8-5.3-1.2-6.3,1.8c-0.9,2.6-1.1,5.5-1.7,8.7 c1.8-0.2,2.8-0.3,3.8-0.4c0-1.9-0.3-3.6,0.1-5.1c0.2-1,1.3-2.3,2.2-2.5c1-0.2,2.6,0.5,3.3,1.3c1,1.2,1.4,2.9,2,4.4 c0.1,0.2,0.2,0.4,0.4,0.7C406.9,242.9,407.5,242.8,408.4,242.7z M175.3,187.4c0.3-1.8,0.7-3.2,0.7-4.6c0-0.5-0.5-1.4-1-1.6 c-2.8-1.3-5.6-2.5-8.6-3.8c-0.6,2.1-1.2,4-1.8,6.1C168.1,184.8,171.4,186,175.3,187.4z M176.6,342.1c0.5,0,0.9,0,1.4,0 c0.9-3.2,2-6.4,2.6-9.7c0.4-2.2-1.1-3.7-3.1-3.5c-2.9,0.3-5.7,1.1-8.5,1.7c0,0.3-0.1,0.6-0.1,0.9c0.8,0.2,1.5,0.6,2.3,0.7 c0.9,0,1.8-0.4,2.6-0.4c3.2-0.2,4.3,1.1,3.5,4.1c-0.3,1.3-0.8,2.5-1,3.8C176.2,340.4,176.5,341.2,176.6,342.1z M291.1,326.1 c0.5-1.6,0.9-3.1,1.4-4.7c0.9-3.1,0.7-3.5-2.2-4.7c-0.6,1.6-1.2,3.2-1.8,4.7c0-1.6,1-3.2,0.7-4.5c-0.2-1.2-1.7-2.2-2.9-3.5 c-0.7,2.7-1.1,4.8-1.5,6.2C287,321.9,288.9,323.9,291.1,326.1z M327.7,306.1c0,1,0,2.3,0,3.9c1.5,0.3,2.9,0.8,4.3,0.8 c5,0.3,7-1.7,6-5.5C334.6,305.5,331.2,305.8,327.7,306.1z M368.8,229.2c0,1.8,0.2,3.3-0.1,4.7c-0.2,1-1,1.8-1.6,2.8 c-0.8-0.6-1.9-1-2.4-1.8c-0.8-1.2-1.1-2.7-1.8-4c-0.3-0.6-1.1-0.9-1.6-1.4c-0.2,0.2-0.4,0.4-0.5,0.6c0.7,3.2,1.5,6.3,4.1,8.6 c2.5,2.3,4.9,1.7,5.6-1.6c0.5-2.4,0.3-4.9,0.3-7.3c0-0.2-0.2-0.4-0.3-0.7C369.9,229.1,369.2,229.1,368.8,229.2z M316.8,251.7 c-1.3,1.3-2.4,2.5-3.7,3.8c1.3,2.3,2.9,5.2,4.5,8c0,0.1,0,0.2,0.1,0.2c0.6,0.3,1.2,0.9,1.8,0.8c3.8-0.7,4.7-3,2.5-6 c-0.2-0.3-0.4-0.5-0.6-0.7c0.1,0.2,0.2,0.5,0.3,0.7c-1.3,0.7-2.5,1.7-3.8,1.8c-0.6,0.1-2.1-2-1.8-2.5c0.5-1.2,1.8-2.1,2.8-3.2 c0.2,0.1,0.5,0.2,0.7,0.3C318.4,253.7,317.5,252.5,316.8,251.7z M322.1,347.9c0.1,1.4-0.2,3.4,0.6,4.4c1.1,1.4,3.1,2.5,4.8,3 c3.7,1.1,4.6,0.2,4.5-3.3C328.8,350.6,325.7,349.3,322.1,347.9z M37.3,89.4c4.2-1.7,7.7-4.1,10.6-7.5c1.1-1.3,1.4-2.3,0.2-3.1 c-4.3,2.9-8.5,5.6-12.7,8.4C35.9,87.9,36.6,88.7,37.3,89.4z M197.1,342c-0.1,2.1-0.4,4.1-0.3,6c0,2.1,1.2,3.6,3.2,4.5 c2,0.8,3.3-0.2,4.6-1.4c1-1,1.8-2.1,2.6-3.2c-0.1-0.3-0.2-0.5-0.3-0.8c-0.8,0.2-1.6,0.5-2.3,0.7c-1.4,0.3-3,1.3-4.1,0.8 c-0.8-0.3-1.3-2.4-1.2-3.7C199.2,343.5,199.1,342.6,197.1,342z M190.3,354.3c1-2.9,2-5.6,2.7-8.3c0.6-2.5-0.7-3.7-3.1-2.7 c-2.6,1.1-5,2.5-7.4,3.8c-0.1,0-0.1,0.3-0.2,0.5c0.4,0.4,0.9,0.8,1.3,1.1c1.1-0.8,2-1.7,3.1-2.1c0.7-0.3,1.9-0.4,2.4,0 c0.5,0.4,0.7,1.6,0.5,2.4c-0.3,1.2-0.9,2.4-1.4,3.7C188.9,353.1,189.4,353.6,190.3,354.3z M371.4,245.1c2.1,0.8,2.7,0.2,2.9-1.3 c0.1-1,0.3-2,0.7-2.8c1-2.3,2.9-2.5,4.3-0.5c0.8,1.1,1.2,2.5,2,3.6c0.4,0.6,1.3,1,2,1.4c-0.7-2.8-1.6-5.2-2.9-7.4 c-1.6-2.7-4.8-3.1-6.1-0.6C373,240,372.3,242.5,371.4,245.1z M289.5,332.3c4.6,0.3,5.4,4.3,1.5,7c-1.8,1.2-3.4,1.1-4.9-0.9 c-0.5,0.9-0.8,1.5-1.2,2.3c1.9,1.6,3.8,3,5.5,4.5c1.8-3.8,3.5-7.3,5.2-10.8c-1.5-1.5-3.2-3-5-4.7 C290.3,330.5,289.9,331.4,289.5,332.3z M162.9,319.1c0.3,0.2,0.6,0.3,0.9,0.5c2.4-2.1,4.8-4.1,7-6.4c1.4-1.4,1-3.5-0.7-3.7 c-3.2-0.3-6.5-0.1-9.7,0c0,0.2,0,0.5,0,0.7c1.6,0,3.2-0.2,4.8,0c2.1,0.3,2.6,1.6,1.3,3.2c-0.9,1.2-2.1,2.1-2.9,3.3 C163.2,317.4,163.1,318.3,162.9,319.1z M326.5,326.9c-0.5,3.3-0.3,3.9,3.1,4.6c2.3,0.5,4.7,0.1,7.2,0.1c0.2-1.5,0.4-2.6,0.4-3.2 C333.5,327.8,330,327.4,326.5,326.9z M434.7,211.6c1.3,2.3,2,5,5.1,5.1c0.9,0,2.3-0.8,2.7-1.6c1.1-2.4-0.2-4.3-1.8-6.2 C438.7,209.8,436.8,210.7,434.7,211.6z M350.5,229.4c-0.4,2.1-0.5,3.5-1,4.8c-0.3,0.9-1.3,1.5-1.9,2.2c-0.6-0.7-1.4-1.3-1.8-2.1 c-0.5-0.9-0.4-2.1-0.9-3c-0.3-0.6-1.1-1-1.6-1.5c-0.3,0.2-0.6,0.5-1,0.7c0.8,2.4,1.3,5,2.5,7.2c1.5,2.7,4.6,2.4,5.6-0.5 c0.7-2,0.8-4.1,1.2-6.2C351.5,230.8,351.1,230.4,350.5,229.4z M386.7,151.7c-0.3,0-0.6,0-0.9,0c-0.1,0.5-0.3,1.1-0.2,1.6 c0.2,0.9,0.9,1.7,0.8,2.5c-0.1,1.1-0.6,2.5-1.4,3c-0.5,0.3-2-0.4-2.8-1.1c-0.8-0.6-1.1-1.7-1.7-2.6c-0.5,0.7-0.8,1.4-0.6,1.9 c0.6,1.3,1.1,2.9,2.1,3.8c1,0.9,2.6,1.7,3.9,1.6c2-0.2,2.7-2.2,2.5-3.9C388.1,156.3,387.3,154,386.7,151.7z M308.2,242.5 c-0.8-0.8-2-1.8-3.3-3c-0.7,1.4-1.3,2.5-1.9,3.7c2.4,2.7,4.8,5.4,7.7,8.7c1.2-1.2,2.2-2.3,3.4-3.5c-1.7-1.5-2.7-2.4-3.4-3 c-0.9,0.6-1.6,1.4-2.5,1.6c-0.4,0.1-1.5-1-1.5-1.5C306.8,244.6,307.5,243.8,308.2,242.5z M279.1,192.1c2.1-4.8,4.2-9.4,6.2-14 c-0.1-0.1-0.3-0.2-0.4-0.3c-3.5,4.6-7,9.2-10.9,14.3C276.3,192.1,277.7,192.1,279.1,192.1z M412.5,133c-0.3,2.9,1.6,5.9,4,6.8 c3,1.1,5.8-0.9,5.1-4c-0.5-2.4-1.7-4.6-2.6-6.9c-0.3,0.1-0.6,0.2-0.9,0.2c0.1,0.6,0.1,1.1,0.2,1.7c0.3,1.1,1,2.3,0.8,3.2 c-0.2,1.1-1.1,2.4-2.1,2.8c-0.8,0.3-2.2-0.5-3.1-1.2C413.3,135.2,413.1,134.3,412.5,133z M383.6,170.3c-0.8-4.2-3.1-6.6-5.9-6.3 c-2.1,0.2-2.9,1.6-2.9,3.6c-0.1,2.4,1.8,5.5,3.7,5.7c-0.6-1.8-1.9-3.9,0.4-5.2C381.1,166.9,382.3,168.8,383.6,170.3z M58.4,110.8 c2.7-2.1,4.9-4.8,6.4-8.1c0.8-1.7,0.9-3-0.4-3.7c-2.8,3.3-5.5,6.5-8.1,9.7C56.7,109.1,57.4,109.8,58.4,110.8z M459.8,198.7 c1.7,1.9,2.4,4.8,5.5,4.4c0.9-0.1,2.1-1.2,2.3-2c0.5-2.5-1.1-4-2.9-5.4C463.1,196.6,461.5,197.6,459.8,198.7z M312.4,339.8 c-1.8-1.4-3-0.8-3.7,1.5c-0.9,3.1-1.8,6.2-2.7,9.3c1.3,0.6,2.1,1.1,2.7,1.4C310,347.7,311.2,343.8,312.4,339.8z M294.8,346.9 c1.4-3.8,2.7-7.4,4-11.1c-0.3-0.2-1.1-0.5-2.4-1.2c-1.7,3.7-3.3,7.2-5,10.9C293.1,346.2,294.1,346.7,294.8,346.9z M418.2,147.9 c-0.4-3.2-3.4-6.2-6.5-6.7c-2.3-0.4-3.9,0.9-3.3,3.2c0.6,2.5,1.9,4.8,3,7.2c0.1,0.3,0.9,0.2,1.6,0.3c-0.9-1.8-1.8-3.2-2.1-4.7 c-0.2-0.9,0.1-2.6,0.7-3c0.9-0.5,2.4-0.3,3.3,0.3C416.2,145.2,417,146.5,418.2,147.9z M289.4,327.2c-3.7,2.4-5.7,5.3-6.3,9.1 c-0.2,1,0.4,2.1,0.6,3.2c0.3,0,0.6,0,1,0c1.6-3.2,3.4-6.3,4.9-9.5C289.8,329.2,289.4,328.2,289.4,327.2z M464,224.8 c-1.2-1.9-2.2-3.7-3.5-5.3c-1.3-1.6-2.8-1.5-3.4,0.1c-0.6,1.8,0.3,5.9,2,6.6c1.1,0.4,2.7-0.5,4.1-0.9 C463.4,225.2,463.7,224.9,464,224.8z M480.8,184.3c2.2,1.2,3.9,2.3,5.7,3c0.7,0.3,2.1-0.1,2.5-0.7c0.5-0.6,0.5-1.9,0.2-2.7 c-1.1-2.9-3.6-3.5-6-1.6C482.6,182.9,482,183.4,480.8,184.3z M77.7,129.2c1.7-2.6,3.2-5,4.7-7.3c1.2-1.9,0.8-3.4-0.9-4.2 c-2.1,3.1-4.2,6.1-6.4,9.3C75.7,127.4,76.4,128.1,77.7,129.2z M99.8,134.7c-1.7,3-3.2,5.9-4.8,8.8c0.8,0.6,1.6,1.2,2.8,2.1 c1.2-2.1,2.3-4.1,3.5-6C102.7,137.2,102,135.6,99.8,134.7z M358.1,182.4c0.3-0.1,0.5-0.1,0.8-0.2c-0.2-1.9-2.3-4.3,0.4-5.6 c2.9-1.5,4.1,1.3,5.9,2.8c-1-2.2-2.1-4.3-3.7-6c-0.7-0.7-2.5-0.8-3.5-0.4c-0.9,0.3-2,1.9-1.9,2.7 C356.5,178,357.4,180.2,358.1,182.4z M281.5,337c1.1-2.2,1.8-4.2,2.8-5.9c1.1-1.7,2.5-3.2,3.8-4.8c-0.8-0.8-1.6-1.6-2.6-2.6 c-2.1,3.9-4,7.5-5.8,10.9C280.5,335.6,280.9,336.2,281.5,337z M119.7,150.5c-1,2.7-2,5.4-3.1,8.3c0.9,0.6,1.9,1.3,3.2,2.1 c0.8-1.9,1.6-3.4,2.1-5.1C123,152.3,122.9,152.1,119.7,150.5z M403,140.9c-0.4,0.1-0.8,0.2-1.2,0.2c0.4,1.6,1,3.2,1.1,4.8 c0.1,0.9-0.5,2.5-1.1,2.8c-0.7,0.3-2.1-0.4-2.9-1c-0.8-0.7-1.2-1.9-1.8-2.9c-1.7,0.3-1.9,1.2-1.1,2.6c0.4,0.7,0.7,1.5,1.2,2.1 c1.1,1.5,2.6,2.4,4.5,1.8c1.8-0.6,3-2,2.8-3.9C404.2,145.2,403.5,143.1,403,140.9z M325.9,289.2c6.4-0.8,9.3-3.6,7.7-6.7 c-2.7,1.1-5.4,2.2-8.3,3.4C325.4,286.7,325.7,287.9,325.9,289.2z M361.4,245c-0.9-2.3-1.5-4.6-2.7-6.5c-1.4-2.3-3.6-2.2-5.1,0.1 c-1.1,1.7-1.7,3.6-2.6,5.5c2.6,1,2.1-1.2,2.8-2.1c0.7-0.9,1.7-1.7,2.6-2.5c0.7,0.9,1.3,1.9,1.9,2.8c0.2,0.3,0.2,0.6,0.2,0.9 C358.4,244.9,359.2,245.4,361.4,245z M268.3,327.7c2.1-3.6,4-7,6.2-10.9c-1.5,0.4-3.4,0.3-3.9,1.1c-1.8,2.7-3.2,5.8-4.8,8.8 C267.1,327.2,267.8,327.5,268.3,327.7z M441.4,109.2c2.1,1.8,3.7,4,6.4,3.2c1-0.3,2.1-1.9,2.3-3c0.5-2.4-0.8-4.4-2.8-5.9 c0,2,2.7,4.2-0.2,5.6c-1,0.5-2.6-0.5-4.5-0.9C442.6,108.2,442.1,108.6,441.4,109.2z M317,366c0.1,1.5-0.2,2.9,0.4,3.7 c2,2.3,4.6,3.7,7.8,3.4c0.6-0.1,1-1.3,1.4-1.9C323.4,369.4,320.5,367.9,317,366z M258.5,275.3c0.2,1,0.1,2.2,0.7,2.9 c1.6,1.7,5.3,1.9,7.5,0.2c1-0.8,1.3-2.6,1.9-3.9c-0.2-0.1-0.4-0.3-0.6-0.4C265.2,276.1,262.3,276.5,258.5,275.3z M224.8,327.3 c1.9,3.3,4.9,4.7,8.3,5.6c0.6-0.7,1.1-1.5,1.7-2.1c-1.6-0.9-3.1-1.5-4.4-2.5c-1.3-0.9-2.4-2.1-3.6-3.3 C226,325.8,225.5,326.5,224.8,327.3z M209.4,365.7c0.2-0.1,0.5-0.2,0.7-0.3c-0.2-2.6,0.8-5.6-2.5-7.2c-2-1-4.5,0.1-7.2,3.5 c1.6-0.2,2.6-0.1,3.5-0.4c2.4-1,3.7-0.3,4.2,2.2C208.3,364.2,209,364.9,209.4,365.7z M400.3,243.9c1.2-0.2,2.6-0.3,4-0.5 c0.3,0,0.6-0.2,1.6-0.5c-1.4-2.1-2.5-3.9-3.8-5.7c-0.1-0.2-1.9,0.4-2,0.8c-0.2,1.9-0.1,3.7-0.1,5.6 C399.9,243.7,400,243.7,400.3,243.9z M433.6,116.7c-0.3,0.1-0.6,0.2-1,0.3c0.2,0.6,0.5,1.2,0.4,1.7c0,1.1,0.2,2.7-0.5,3.3 c-0.6,0.6-2.2,0.1-3.3,0c-0.2,0-0.4-0.4-0.6-0.4c-0.4-0.1-1-0.2-1.2,0c-0.3,0.2-0.4,0.9-0.3,1.2c0.6,2,3.3,3.4,5.4,2.8 c2-0.5,3.1-2.6,2.5-4.9C434.8,119.4,434.1,118,433.6,116.7z M384.3,226.9c0.8,2,1.3,3.7,2.3,5.1c0.9,1.5,2.9,1.3,3.2-0.2 c0.3-1.7,0.1-3.5-0.3-5.2c-0.1-0.2-2.1-0.1-3.2,0C385.8,226.6,385.4,226.7,384.3,226.9z M407.2,221.6c0.4,0.8,0.5,1.4,0.8,1.8 c0.9,1.5,1.7,3.6,3.9,2.9c2.4-0.8,1.5-2.9,1.3-4.6c-0.1-0.5-0.4-1.1-0.6-1.7C410.8,220.5,409.1,221,407.2,221.6z M350.5,171.7 c-0.3,0.1-0.6,0.2-0.9,0.3c0.3,1.3,0.8,2.6,0.9,4c0.1,1.5-0.2,3.1-2,3.4c-1.8,0.3-2.7-0.8-3.2-2.3c-0.3-0.9-0.5-1.9-0.8-2.8 c-0.2,0.1-0.4,0.1-0.7,0.2c0,2,0.4,4.1,1.8,5.6c0.8,0.9,2.7,1.8,3.6,1.5c1.2-0.4,2.7-2.1,2.7-3.2 C352,176.2,351.1,173.9,350.5,171.7z M434,134.1c0.2-0.2,0.4-0.4,0.6-0.7c-1.7-1.9-3.7-3.5-6.2-4.3c-2.1-0.7-3.3,0.2-3.3,2.5 c0,3.1,1.7,5.3,3.9,7.2c0.2-0.6,0.3-1.2,0.1-1.6c-0.4-0.7-1-1.3-1.3-2.1c-0.7-1.4-1.4-3.1,0.3-3.9c0.9-0.4,2.5,0.2,3.6,0.8 C432.5,132.4,433.2,133.3,434,134.1z M301.6,327.9c-1-0.9-1.9-1.8-2.8-2.7c-3.4,4.3-3.2,7,0.8,8.3 C300.3,331.7,300.9,329.8,301.6,327.9z M307.5,227.1c0.2,2.2,0.3,4.5,2.6,5.7c0.5,0.2,1.5,0,1.9-0.4c1.2-1.2,2.1-2.7,1.9-5.3 c-0.8,1.1-1.2,1.7-1.7,2.3C312.1,227.7,312.1,227.7,307.5,227.1z M174.9,339.6c0.4,0,0.7-0.1,1.1-0.1c0-2.1,0.5-4.4-0.2-6.3 c-0.2-0.6-3.3-0.3-5.1-0.4c-0.1,0.3-0.2,0.5-0.2,0.8C172,335.6,173.4,337.6,174.9,339.6z M324.4,262.7c-0.8,0.6-1.6,1.4-2.4,1.9 c-0.9,0.6-2,1-3.1,1.6c0.5,1,0.9,1.8,1.2,2.6C325.4,267.8,326.8,265.7,324.4,262.7z M400.4,160.6c0.8-2.7-2.9-7.4-5.3-6.8 c-0.6,0.2-1.3,0.9-1.5,1.4c-0.8,3.1,0.4,5.7,2,8.2c-0.2-1.7-0.8-3.2-1-4.8c-0.1-0.7,0.5-1.9,1-2.2c0.6-0.3,1.8,0.1,2.3,0.6 C398.9,158,399.5,159.2,400.4,160.6z M131,251.5c-2.8-4.2-7.1-4.4-10.8-0.8c2.9,0.3,5.6,0.5,8.5,0.8c-0.2-0.7-0.3-1-0.4-1.3 C129.2,250.6,130.1,251.1,131,251.5z M442.8,125.1c0.2,0,0.5-0.1,0.7-0.1c-0.1-0.5-0.1-1.1-0.2-1.6c-0.3-1.1-0.8-2.1-1-3.2 c-0.3-2.3,0.8-3.2,3-2.4c0.4,0.1,0.8,0.3,1.6,0.6c-2.3-2.7-4.1-3.4-5.6-2.3c-1.7,1.2-1.9,3.5-0.5,6 C441.5,123,442.2,124,442.8,125.1z M339.2,189.1c0.3,0,0.6-0.1,0.8-0.1c-0.2-1.9-1.7-4.3,1.2-5.3c3.1-1,2.7,2.2,4.1,3.5 c-0.3-1.8-0.5-3.6-1.5-5c-0.6-0.9-2.3-1.6-3.3-1.4c-0.9,0.2-2,1.8-2.1,2.8C338.3,185.5,338.9,187.3,339.2,189.1z M332.9,230 c-0.3-0.1-0.5-0.1-0.8-0.2c-0.1,0.2-0.2,0.4-0.2,0.6c-0.6,1.6-0.3,4.3-2.5,4.2c-2.2-0.1-1.5-2.6-1.8-4.2c-0.1-0.4-0.5-0.7-0.7-1 c-0.3,0.3-0.8,0.6-0.8,0.9c0.2,1.8,0.4,3.6,0.8,5.3c0.2,0.7,1.1,1.8,1.6,1.8c0.8,0,2-0.7,2.3-1.3C331.7,234.1,332.2,232,332.9,230z M142.5,165.2c-0.8,2.4-1.5,4.8-2.3,7.3c0.7,0.3,1.6,0.8,2.6,1.2C145.4,169,145.2,166.3,142.5,165.2z M321.3,238.9 c0.3-0.1,0.6-0.1,0.9-0.2c0-2.5,0.2-5-1.8-6.9c-0.5-0.5-1.9-0.6-2.7-0.3c-2.3,1-2.9,3-2.9,5.4c0.7-0.4,1.1-1.1,1.6-1.6 c0.8-0.7,2.1-1.9,2.6-1.6c0.9,0.4,1.4,1.7,1.9,2.7C321.3,237.2,321.2,238.1,321.3,238.9z M298.2,323.9c-0.6-0.6-1.3-1.3-2-2.1 c-3.3,4.4-3.4,7.5-0.7,9C296.3,328.7,297.2,326.5,298.2,323.9z M327.3,181c-0.5,3.3,1,6.8,3,7.1c1.7,0.3,3-0.5,3.7-2.1 c0.8-1.9-0.5-5.5-2.7-6.6c0.5,1.3,0.8,2.3,1.2,3.3c0.5,1.4,0.4,2.9-1.2,3.2c-0.9,0.1-2.2-0.8-3-1.6 C327.8,183.6,327.8,182.4,327.3,181z M200.8,240.4c-0.6-1-1.3-2-1.9-3c-0.2-0.3-0.5-0.6-0.9-0.8c-1.3-0.9-3.3-0.2-3,1.2 c0.3,1.3,1.4,2.5,2.5,3.5C198.5,242.1,199.8,242.3,200.8,240.4z M70.8,237.3c-0.9-2.2,0.1-4.8-2.7-5.1c-0.6-0.1-1.8,1.5-1.9,2.4 c-0.3,1.7,1.7,4.1,2.9,3.9C69.7,238.3,70.2,237.7,70.8,237.3z M9.5,213c0.1-1.5,0.5-3.1,0.4-4.6c-0.1-1.6-1.6-2.3-2.8-1.5 c-1.5,1.1-1.4,2.6-0.9,4.1C6.7,212.4,7.2,213.9,9.5,213z M137.2,247c-0.6-1.3-1.1-2.9-2-4.2c-1-1.4-2.6-1.2-3.2,0.4 c-0.7,1.9,0.6,3,1.8,4.1C135,248.3,136,248.5,137.2,247z M417.3,148.3c-0.8-1.1-1.4-2.2-2.3-2.7c-0.8-0.5-2-0.5-3-0.7 c0,1-0.2,2.1,0.1,2.9c0.4,1,1.2,1.9,1.9,3C415.1,150,416.1,149.2,417.3,148.3z M281.1,318.1c0.9,0.5,1.8,1,2.7,1.5 c2.3-4.7,1.6-7.2-2.1-7C281.5,314.3,281.4,316.1,281.1,318.1z M235,237.2c-1.7,1.3-3.3,2.5-5.3,4.1c1.3,0.7,2,1.2,2.9,1.7 c0,0.2-0.2,0.8-0.3,1.3c1.4-1.3,2.8-2.6,4.1-3.9C236.1,239.4,235.6,238.5,235,237.2z M279.8,317.4c2-4.2,1.1-6-3.1-6 c0,1.6,0,3.2,0,4.8C277.8,316.6,278.7,317,279.8,317.4z M331.7,240.9c0.2,0.2,0.5,0.4,0.7,0.7c0.5-0.5,0.9-0.9,1.4-1.4 c1-1.1,2-2.3,3-3.5c0.5,1.4,1,2.7,1.6,4.1c0.3,0.7,0.6,1.4,1,2.2c0.3-0.1,0.5-0.2,0.8-0.3c-0.4-2-0.6-4-1.2-5.9 c-0.6-2.3-2.2-2.6-3.7-0.8C333.9,237.4,332.9,239.2,331.7,240.9z M367.5,229c-1.5,0.3-2.7,0.4-3.9,0.6c0.8,2.4,0.9,4.9,3.9,6.6 C367.5,233.6,367.5,231.5,367.5,229z M374,245.4c2.7,0,4.5,0,6.3,0c-0.1-0.4,0-0.7-0.1-0.9c-1.1-1.4-2.1-2.9-3.2-4.3 C376.1,241.8,375.2,243.3,374,245.4z M461.2,89.7c-0.3,0.1-0.6,0.2-0.9,0.3c0.3,0.6,0.9,1.2,1,1.9c0.2,0.9,0.4,2.3-0.1,2.8 c-0.5,0.5-1.8,0.2-2.8,0.1c-0.5-0.1-0.8-0.7-1.3-1.1c-0.4,0.4-0.7,0.8-1,1.1c2.4,2.7,4.4,3.4,5.9,2.2 C463.7,95.6,463.4,92.9,461.2,89.7z M458.3,108.7c-0.1-0.6-0.1-1.2-0.3-1.7c-0.3-0.8-1-1.6-1-2.4c-0.1-0.9,0.2-2,0.7-2.5 c0.4-0.4,1.7-0.1,2.4,0.1c0.7,0.2,1.4,0.9,2.1,1.3c-1.9-3-4.4-4-6.2-2.6C454.1,102.4,454.8,105.7,458.3,108.7z M416.9,130.2 c-3.4,2.4-3.8,3.2-2.2,4.9c0.6,0.6,2,1,2.7,0.7C419,135.1,418.7,132.7,416.9,130.2z M245.8,304.1c-2,2.4-1,4,4.1,6.5 c0.4-0.6,0.8-1.2,1.2-1.8c-0.3,0.2-0.6,0.5-0.9,0.7C248.7,307.8,247.3,306,245.8,304.1z M242.9,320.2c-2.1-1.9-4.2-3.8-6.5-5.9 c-0.4,0.4-0.9,0.8-1.3,1.2C237.5,319.8,241.4,321.9,242.9,320.2z M11.5,219.9c1-1.4,0.7-3.2-0.7-4.5c-1.8-1.7-4.1-1.4-6.4,0.7 c2,1.1,3.8,2.1,5.8,3.1c0.8-2.9,0-3.5-3.4-2.7C9.3,214.2,10.3,214.9,11.5,219.9z M162.1,316.2c0.3,0.1,0.5,0.2,0.8,0.4 c0.9-1.1,1.9-2.2,2.8-3.3c1-1.2,0.8-2.2-0.9-2.3c-1.3-0.1-2.7,0.2-4.3,0.3C161.1,313.2,161.6,314.7,162.1,316.2z M433.4,134.6 c-1.1-1-1.9-1.9-2.9-2.6c-0.5-0.3-1.7-0.5-1.9-0.3c-0.4,0.5-0.7,1.6-0.4,2.2c0.5,1.1,1.4,2.1,2.2,3.4 C431.4,136.4,432.3,135.6,433.4,134.6z M469.2,80.5c1.8,1.9,3.9,2.4,5.1,1.2c1.6-1.6,1.2-4.5-1.1-6.4c0,1.4,0.5,3.2-0.1,4 C472.4,80.2,470.6,80.1,469.2,80.5z M238.3,242.3c0.1-0.2,0.2-0.5,0.3-0.7c-0.6-0.1-1.5-0.5-1.8-0.3c-2.8,2.3-5,5-6.2,8.5 c2.4-1.6,4.7-3.2,7.3-4.9c-1.5,0.4-2.7,0.8-3.9,1.1c-0.1-0.2-0.2-0.3-0.2-0.5C235.3,244.4,236.8,243.3,238.3,242.3z M160.3,181.7 c0.7,0.3,1.5,0.6,2.4,0.9c0.7-2.2,1.3-4.2,1.9-6.2c-1-0.5-1.8-0.8-2.6-1.2C161.4,177.5,160.9,179.5,160.3,181.7z M225.4,239 c0.5-0.6,1.6-1.5,1.6-2.3c0-0.9-1-2.3-1.8-2.5c-1-0.2-2.4,0.5-3.3,1.2c-0.4,0.3-0.1,1.6,0.2,2.3c0.1,0.2,1,0.1,1.5,0.2 c-0.1-0.8-0.3-1.5-0.4-2.3c0-0.1,0.1-0.3,0.2-0.4c0.2-0.1,0.5-0.2,0.7-0.2C224.5,236.2,224.8,237.3,225.4,239z M271.8,315 c1.2,0.3,2.5,0.6,3.8,0.9c0.2-1.8,0.3-3.2,0.5-4.8c-1.3-0.2-2.5-0.3-3.7-0.5C272.2,312.1,272,313.4,271.8,315z M179.8,322.8 c0.2-0.3,0.4-0.6,0.5-0.9c-0.8-1.8-1.6-3.7-2.5-5.5c-0.3-0.1-0.5-0.1-0.8-0.2c-0.5,1.6-1.5,3.3-1.2,4.7 C176.1,321.8,178.4,322.2,179.8,322.8z M345.8,173.6c0.2,1.2,0.1,2.2,0.5,3.1c0.3,0.7,1.1,1.1,1.7,1.7c0.5-0.7,1.4-1.3,1.5-2 c0-1.3-0.4-2.6-0.8-4.2C347.6,172.7,346.8,173.1,345.8,173.6z M198.7,288.4c-0.3,0-0.6,0-1,0c-0.1,1.2,0.1,2.9-0.5,3.6 c-0.8,0.7-2.4,0.5-4.3,0.9c1.1,0.7,2,1.8,3,2c0.9,0.1,2.5-0.7,2.7-1.5C199.1,291.8,198.7,290.1,198.7,288.4z M363.9,180.2 c0.1-0.3,0.3-0.5,0.4-0.8c-1.2-0.8-2.3-1.8-3.6-2.5c-0.2-0.1-1.4,0.7-1.4,1c0.1,1.3,0.4,2.5,0.7,4 C361.7,181.2,362.8,180.7,363.9,180.2z M300.3,334c1.2,0.3,2.2,0.6,3.4,0.9c-0.3-2.2,2.4-4.8-1.6-6.2 C301.5,330.3,300.9,332,300.3,334z M178.3,182.4c-0.4,1.9-0.7,3.6-1.1,5.5c0.9,0.3,1.7,0.5,2.7,0.8c0.4-1.8,0.8-3.5,1.2-5.2 C180.1,183.2,179.3,182.8,178.3,182.4z M259.1,260.8c0.2,0.3,0.5,1.2,0.8,1.2c2.4,0.2,4.6-0.6,6.1-2.5c0.4-0.5,0.3-1.4,0.4-1.9 C264,258.7,261.8,259.6,259.1,260.8z M13.3,216.9c1.4-1.2,2.7-2.2,3.9-3.3c0.4-0.4,0.6-1.3,0.4-1.7c-0.2-0.4-1.1-0.6-1.7-0.6 C13.9,211.6,12.6,214.3,13.3,216.9z M384.5,153c-3.1,1.2-3.4,1.6-2.6,3.2c0.6,1.2,1.5,2.8,2.9,1.7 C386.7,156.6,385.4,154.8,384.5,153z M401,142c-2.1,0.9-3.5,1.9-1.9,4.1c0.9,1.3,1.7,2.2,3.3,0.6C402,145.3,401.5,143.8,401,142z M268,310.5c-0.1,1.4-0.2,2.6-0.2,3.8c1,0.2,1.9,0.3,3.1,0.5c0.2-1.5,0.5-2.8,0.7-4.3C270.1,310.5,269.2,310.5,268,310.5z M93.6,247.5c0.4,0,1.3,0.2,1.5,0c0.4-0.5,0.7-1.7,0.4-2c-0.9-0.9-2-1.8-3.2-2c-0.5-0.1-1.4,1.3-2,2.1c-0.1,0.1,0.7,0.8,1.1,1.3 c0.5-0.7,1-1.4,1.6-2.4C93.2,245.3,93.4,246.3,93.6,247.5z M70.8,237.6c0.2,0.1,0.3,0.2,0.5,0.2c0.2-0.3,0.4-0.8,0.7-0.8 c2.6,0.1,2.4-2,2.5-3.6c0-0.5-0.6-1.3-1.2-1.5c-0.3-0.1-1.3,0.5-1.4,1C71.4,234.4,71.2,236,70.8,237.6z M205.9,240.9 c0.2-0.1,0.4-0.2,0.6-0.3c0.2-1.7,0.6-3.4,0.6-5c0-0.5-0.9-1-1.3-1.5c-0.5,0.6-1.3,1.1-1.5,1.7c-0.2,0.8,0.2,1.8,0.3,2.6 c0.1-0.1,0.1-0.3,0.3-0.4c0,0,0.2,0-0.3-0.1C205.1,239.2,205.5,240.1,205.9,240.9z M268.8,192.2c1.2-3,2.4-6,3.5-9 c-1.7,1.7-3.1,3.7-4.5,5.7C266.8,190.5,267.1,191.7,268.8,192.2z M203.5,239c-0.6-1.9-1-3.3-1.6-4.6c-0.2-0.4-1-0.7-1.4-0.6 c-0.4,0.1-0.8,0.8-0.9,1.3C199.2,237.2,200.2,238.3,203.5,239z M346.6,235c3.4-0.6,2.2-3,2.6-4.8c-1.3,0-2.4,0-3.8,0 C345.9,231.9,346.2,233.4,346.6,235z M142,248.4c0.2,0,0.4,0,0.6-0.1c0.5-1.2,1.1-2.4,1.4-3.6c0.2-0.8,0.2-1.7,0.1-2.5 c0-0.1-1.1-0.4-1.3-0.2c-0.7,0.6-1.7,1.4-1.7,2.2C141.1,245.6,141.7,247,142,248.4z M187.6,352.2c0.6-1.9,1.1-3.4,1.5-5 c-0.3-0.2-0.5-0.4-0.8-0.6c-1.4,0.8-2.7,1.6-4.4,2.5C185.3,350.3,186.2,351.1,187.6,352.2z M179.9,301.7c1.5,1.8,2.8,3.3,4.9,1.7 c1.5-1.1,1.5-3.1,0.3-4.8C181.9,302.2,181.9,302.2,179.9,301.7z M484.1,61.2c2.6,1.2,3.6,1.1,4.7-0.1c1.6-1.7,1.7-4,0.3-6.8 c-0.2,1.8,0.1,3.6-0.7,4.7C487.6,60.1,485.8,60.4,484.1,61.2z M12.3,213.4c1.2-2.2,2.9-3.5,1.5-5.5c-0.2-0.2-1.6-0.1-1.8,0.2 c-0.8,1.3-1.3,2.8-1.9,4.2c0.2,0.1,0.3,0.1,0.5,0.2c0.3-0.5,0.5-0.9,0.9-1.6C11.8,211.7,11.9,212.3,12.3,213.4z M200.4,343.9 c-0.8,1.6-1.2,3.3,0.5,4.1c0.9,0.4,2.4-0.6,3.6-1c-0.1-0.3-0.1-0.5-0.2-0.8C203,345.4,201.7,344.7,200.4,343.9z M207.2,243.5 c-1.2-1.7-2.7-2.5-4.6-2.1c-1.9,0.4-3.1,1.7-3.1,3.9c0.7-0.2,1.2-0.7,1.7-1.2c0.4-0.4,0.8-1.2,1.2-1.2 C203.9,243,205.4,243.3,207.2,243.5z M326.4,192.2c0-1.7-0.3-3.7-2.2-4.9c-0.6-0.4-2.2-0.3-2.6,0.2c-0.7,1-0.9,2.3-1.3,3.5 c1-1,2.4-2.4,2.6-2.3C324.1,189.7,325.2,191,326.4,192.2z M295.4,382.7c-0.8-0.9-1.4-1.4-1.9-2c-0.7,0.7-1.9,1.3-1.9,2.1 c0,0.9,0.9,1.8,1.4,2.6C293.7,384.7,294.4,383.9,295.4,382.7z M195.3,300.3c-0.9-0.7-1.6-1.8-2.6-2.1c-0.7-0.2-2.4,0.3-2.5,0.8 c-0.3,1.4,0,2.9,0.1,4.4c0.2,0,0.5,0,0.7-0.1C191,300,191.6,299.6,195.3,300.3z M397.2,162.3c2.2-1.3,2.4-2.7,0.7-4.3 c-0.4-0.4-1.2-0.5-1.9-0.7c-0.1,0.6-0.4,1.3-0.3,1.8C396.1,160.1,396.7,161.1,397.2,162.3z M444,123.1c0.3,0,0.7,0.1,1,0.1 c0.8-0.9,1.6-1.7,2.9-3.2c-1.8-0.6-3.1-1-4.3-1.4C443.8,120.1,443.9,121.6,444,123.1z M139.7,246.1c0-1.5,0.2-2.8,0-4.1 c-0.1-0.6-1-1-1.5-1.5c-0.4,0.6-1.1,1.2-1.1,1.9c-0.1,0.8,0.3,1.7,0.6,2.4C137.9,245.1,138.5,245.3,139.7,246.1z M328.5,181 c0.3,1.2,0.4,2.2,0.8,3.1c0.3,0.5,1.1,0.7,1.7,1c0.3-0.6,0.9-1.3,0.8-1.8c-0.2-1.1-0.7-2.1-1.1-3.3 C329.8,180.4,329.2,180.7,328.5,181z M357.2,244.9c0.3-0.2,0.5-0.4,0.8-0.6c-0.6-1.3-1.3-2.6-1.9-3.9c-0.6,1.3-1.3,2.7-2,4.3 C355.2,244.8,356.2,244.9,357.2,244.9z M76,240c1.1-1.7,1.9-2.8,2.5-4c0.1-0.2-0.6-0.9-1-1.4c-1,0.9-2.1,1.7-2.9,2.8 C74.4,237.7,75.3,238.8,76,240z M341.2,188.6c1.9-0.2,3.2-0.8,2.4-2.7c-0.3-0.7-1.6-1.6-2-1.4C339.4,185.5,340.5,187,341.2,188.6z M368.5,166.8c-0.9-1.3-1.7-2.3-2.5-3.3c-0.5,0.5-1.6,1.3-1.5,1.5c0.6,1.2,1.5,2.3,2.3,3.5C367.3,168,367.7,167.6,368.5,166.8z M314.3,248.9c-1.3,1.2-2.4,2.3-3.7,3.5c0.5,0.6,1,1,1.4,1.5C315.5,251.6,315.9,250.7,314.3,248.9z M294.3,319.5 c-1.9,3.9-2.6,7.4-1.1,9.2C292.2,325.1,296.2,323.1,294.3,319.5z M383.4,170.6c-1.5-0.9-2.4-1.6-3.5-2c-0.2-0.1-1.2,0.7-1.2,1 c0.1,1,0.5,2,0.8,3.2C380.9,172,381.7,171.5,383.4,170.6z M257.7,314.4c2.9,0.6,3.6-1.5,4.7-3.3C259.1,310,258.4,312,257.7,314.4z M337,237.7c-0.3,0-0.5-0.1-0.8-0.1c-0.7,1.3-1.4,2.7-2.2,4.2c1.4,0.3,2.3,0.4,3.6,0.7C337.4,240.7,337.2,239.2,337,237.7z M253.6,314.7c2.9,0.3,3.7-0.4,4-3.6c-1,0.1-1.9,0.2-2.9,0.4C254.4,312.6,254,313.7,253.6,314.7z M319.8,238.4 c0.2-0.2,0.5-0.3,0.7-0.5c-0.5-1.1-1-2.3-1.5-3.4c-0.9,0.7-1.9,1.4-2.8,2.2c0.1,0.2,0.3,0.5,0.4,0.7 C317.6,237.8,318.7,238.1,319.8,238.4z M298,230.5c0.1,0.2,0.2,0.4,0.3,0.6c1.1-0.2,2.4-0.9,3.2-0.5c0.8,0.3,1.1,1.8,1.6,2.7 c0.2-0.1,0.4-0.3,0.7-0.4c-0.1-1.8-0.5-3.7-2.5-4.1C300.4,228.6,299.1,229.8,298,230.5z M220.1,365c0.3,1.6,1,2.2,2.4,2.2 c1.8,0,3.4-1.8,3.7-4.6c-1.1,1.2-1.7,2.4-2.6,2.7C222.6,365.6,221.4,365.1,220.1,365z M260.1,178.7c-0.1-0.1-0.2-0.1-0.3-0.2 c-0.9,3-1.9,5.9-2.8,8.9c0.2,0.2,0.4,0.3,0.6,0.5c0.4-0.4,1.1-0.6,1.2-1.1C259.3,184.1,259.7,181.4,260.1,178.7z M302.4,237.5 c-0.8,1.2-1.5,2.1-2.2,3.2c0.7,0.6,1.3,1.2,1.8,1.7C304.1,239.7,304.2,239.3,302.4,237.5z M462.1,103.8c-1.5-0.4-3.2-1.3-3.5-0.9 c-1.3,1.5,0,2.6,0.9,4.1C460.3,106,460.9,105.2,462.1,103.8z M230.2,246.9c-4.5,0.6-4.5,0.6-5,2.3 C229.5,249.2,229.5,249.2,230.2,246.9z M312.5,188.8c1.1,1.1,1.9,2.1,2.9,2.6c0.4,0.2,1.9-0.5,2.1-1c0.4-1.1,0.2-2.5,0.3-4.2 c-0.7,1.6-1,3-1.7,3.5C315.5,190.1,314.2,189.3,312.5,188.8z M142.1,251.6c-0.1-2.2-1.6-3.1-3.3-3.2c-1.8,0-3.4,0.8-3.9,3 c0.8-0.2,1.4-0.5,1.9-1c1.4-1.6,3.2-1.6,4.5,0.1C141.6,250.9,141.8,251.3,142.1,251.6z M253.8,312c-0.2-0.2-0.4-0.4-0.6-0.6 c-1.4,1.3-2.8,2.6-4.6,4.2c1.7-0.2,2.8-0.3,3.9-0.4C253,314.2,253.4,313.1,253.8,312z M323.4,188.9c-2.1,1.4-1.8,2.7-0.8,3.9 c0.4,0.5,1.4,0.4,2.9,0.8C324.6,191.5,324.1,190.3,323.4,188.9z M190.6,337.1c0.1-0.3,0.2-0.5,0.3-0.8c-1-1.1-2-2.2-3-3.3 c-0.2,0.1-0.5,0.2-0.7,0.3c0.1,1.1-0.1,2.5,0.5,3.3C188.1,337.1,189.5,336.9,190.6,337.1z M482.2,72.8c-1.1-3,0.1-4.6,3.3-5.1 c-1.7-1.2-3-1.2-4,0C480,69.5,480.8,71.2,482.2,72.8z M331.3,229.6c-1.3,0.1-2.1,0.1-3.2,0.2c0.4,1.7,0.7,3,1,4.3 c0.3,0,0.6,0,0.9,0C330.4,232.7,330.8,231.3,331.3,229.6z M257.2,316.4c-2.7,0.7-4.8,3.4-4.9,6.7 C254,320.7,255.5,318.7,257.2,316.4z M212.5,269.6c2.1,1.1,3.7,1.6,4.5-0.2c0.4-0.9-0.6-2.3-0.9-3.5c-0.3,0-0.7,0-1,0.1 C217.4,269,214.9,269.1,212.5,269.6z M264.2,314.2c2.2,0.8,2.8-0.5,3-2.3c0-0.5-0.6-1-0.9-1.4c-0.4,0.3-0.9,0.5-1.1,0.9 C264.8,312.3,264.5,313.3,264.2,314.2z M296.7,388.3c0.1,0.1,0.3,0.2,0.4,0.2c0.8-0.8,1.7-1.4,2.3-2.3c0.3-0.4,0-1.2,0-1.9 c-0.6,0.2-1.6,0.3-1.8,0.7C297.2,386.1,297,387.2,296.7,388.3z M216.1,276.9c-0.1-0.4-0.3-0.7-0.4-1.1c-1.2,0.2-2.9,0.1-3.4,0.8 c-1.1,1.4,0.1,2.6,1.5,3.7C213,278.1,212.9,276.6,216.1,276.9z M311.4,195.4c0.2,0,0.4,0,0.5,0c-0.6-1.3-1.1-2.7-1.8-3.9 c-0.2-0.3-1.7-0.2-1.9,0.1c-0.6,0.9-0.9,2-1.5,3.7c1.1-1.4,1.8-2.3,2.4-3.1C310,193.2,310.7,194.3,311.4,195.4z M247.3,358.1 c0.4,0,0.7,0.1,1.1,0.1c0.1-0.6,0.2-1.2,0.3-1.8c0.2,0,0.4,0.1,0.6,0.1c-0.1,0.9-0.3,1.8-0.5,2.8c1.8-0.6,2-1.9,1.3-3.2 c-0.2-0.4-1.7-0.6-2.2-0.2C247.5,356.2,247.5,357.3,247.3,358.1z M472.6,89.7c-0.1-0.3-0.1-0.5-0.2-0.8c-1,0-1.9,0-2.9,0 c0.3,1,0.5,2.1,1,3.8C471.6,91.2,472.1,90.5,472.6,89.7z M222.4,254.2c-0.4,0-0.8,0-1.3,0.1c3,3.2-0.3,3.2-1.6,4.4 c1.4-0.1,3.1-0.1,3.6-1C223.5,256.9,222.7,255.4,222.4,254.2z M140.4,238.8c-2-0.8-4.1-1.7-6.2-2.6 C135.8,239.2,137.6,239.9,140.4,238.8z M195.8,230.6c1.8,2.5,4.7,2.9,6.5,1C200.2,231.3,197.8,230.9,195.8,230.6z M229,250.6 c-1.6-0.6-3.1-1.3-3.8,0.5c-0.3,0.8,0.9,2.2,1.4,3.3c0.2-0.1,0.4-0.2,0.6-0.4C225.8,251.8,225.8,251.7,229,250.6z M429.4,119.9 c0,0.3,0,0.6,0,0.9c0.9,0.2,1.8,0.3,2.7,0.5c0-1,0-2,0-3.7C430.7,118.8,430.1,119.4,429.4,119.9z M204,291.8 c0.3-0.1,0.6-0.1,0.9-0.2c0.1-1-0.1-2.3,0.4-3c0.5-0.6,1.8-0.6,3-0.9c-1.8-0.7-3.5-1-4.5,0.8C203.4,289.4,203.9,290.7,204,291.8z M12.1,202.2c-0.2,3.1,1.5,5.1,4,5.1C15,205.7,13.5,203.9,12.1,202.2z M443.8,106.9c1.1,0.6,1.9,1.1,2.7,1.4c0.2,0.1,0.9-0.7,0.8-1 c-0.2-0.8-0.6-1.6-1.1-2.7C445.3,105.4,444.7,106,443.8,106.9z M204.3,191.5c0.5,1.3,0.9,2.4,1.3,3.5c0.3-0.5,0.8-0.9,1-1.4 C207,192.2,206.6,191.3,204.3,191.5z M66.4,241.5c0.9,0.1,1.6,0.3,2.2,0.2c1.4-0.4,2.8-0.9,3.9-1.3C70.7,238.9,69.2,239,66.4,241.5 z M197.4,193.2c0.4-1.3,0.7-2.4,1.1-3.7c-0.4-0.1-0.9-0.2-1.5-0.4c-0.4,1.4-0.7,2.6-1.1,3.9C196.5,193.1,197,193.1,197.4,193.2z M483.2,72.3c0.3,0,0.6,0,1,0.1c0.5-0.9,1.1-1.7,1.6-2.6c-0.1-0.2-0.2-0.4-0.3-0.7c-0.8,0.2-2,0.1-2.3,0.6 C482.9,70.3,483.2,71.4,483.2,72.3z M204,281.9c0.2,0.3,0.4,0.7,0.6,1c1.1-0.6,2.5-1,3.3-1.8c0.4-0.4-0.1-1.7-0.2-2.6 c-0.3-0.1-0.6-0.1-1-0.2C207.9,281.2,205.8,281.4,204,281.9z M201.5,190.3c-0.3,1.2-0.6,2.4-1,3.7c0.6,0,1.3,0.1,2.2,0.2 C202.3,192.8,203.8,190.9,201.5,190.3z M298.2,192c0.6,0.7,1,1.6,1.7,2c0.6,0.3,2,0.2,2.2-0.1c0.6-0.9,0.6-2.1,0.9-3.2 C301.8,193.3,301.6,194.2,298.2,192z M180.5,307c-0.1-0.4-0.3-0.7-0.4-1.1c-1.1,0.3-2.5,0.2-3.2,0.9c-0.6,0.5-0.5,1.9-0.7,2.9 c0.3,0.1,0.5,0.2,0.8,0.3C177.3,308,177.9,306.4,180.5,307z M306.2,335.7c0.2-1.8,1.5-3.3-0.8-4.3 C304.7,332.9,303.7,334.4,306.2,335.7z M315.3,185.2c-0.6,1-1.2,1.5-1.1,1.9c0.2,0.7,0.8,1.4,1.2,2c0.4-0.4,1.1-0.9,1.1-1.2 C316.4,187.2,315.9,186.5,315.3,185.2z M228.9,372c-1.5,0.8-2.3,1.3-3.5,2c1.2,0.7,1.9,1.2,2.8,1.8 C228.4,374.5,228.6,373.6,228.9,372z M223.3,263.4c-0.2-0.3-0.4-0.6-0.6-0.9c-0.9,0.4-2.4,0.6-2.6,1.2c-0.3,1,0.3,2.2,0.5,3.4 c0.2,0,0.5,0,0.7-0.1C221.5,265.5,219.8,263.3,223.3,263.4z M320.3,343.3c0.3,0,0.7,0.1,1,0.1c0.2-1.5,0.5-2.9,0.7-4.4 c-0.4-0.1-0.8-0.1-1.2-0.2C320.7,340.4,320.5,341.9,320.3,343.3z"/><path d="M2.6,180.4c0.8,2.9,1,5.3-1.9,7c1.8-2.5,2.1-4.8,0.1-7.3c-0.5-0.6,0.1-2,0.2-3.3c6.1,2.6,12,5.1,17.9,7.7 c-6.5-4.2-12.9-8.4-18.3-14c16.2,13.7,35.6,20.6,55.2,27.1c-23-12.2-41.7-29.1-55.4-51.2c0.2-0.2,0.3-0.3,0.5-0.5 c3.4,4.6,6.6,9.4,10.1,13.8c14.4,17.9,32.2,31.7,53.5,40.3c8.4,3.4,17.6,5.2,26.5,7c14.9,2.9,29.8,5.7,44.8,7.8 c24.9,3.3,49.9,4,75,2.9c0.5,0,1-0.2,1.5,0c0.5,0.2,1.2,0.8,1.1,1c-0.1,0.5-0.6,1.2-1.1,1.3c-1.3,0.3-2.6,0.3-3.9,0.4 c-18,0.7-36,0.5-53.9-1c-51.4-4.2-100.7-16.6-148-37.1C5.2,181.5,4,181,2.6,180.4z"/><path d="M167.1,203.1c-2.7-0.6-5.3-1.1-8-1.8c-12.8-3.3-25.2-7.6-37.2-13c-10.2-4.6-20.9-8.3-30.8-13.5 c-35.8-18.5-64.7-44.8-86.9-78.5c-0.4-0.5-0.7-1.1-1-1.7c-0.1-0.1,0-0.3,0-1.1c0.7,0.8,1.2,1.3,1.5,1.8c12,18.4,26.3,34.8,43,49.1 c19.2,16.4,40.4,29.4,63.8,38.7c11.6,4.6,23.2,9.2,34.9,13.4c6.3,2.2,12.9,3.6,19.4,5.4c0.5,0.1,1,0.3,1.4,0.5 C167.2,202.7,167.2,202.9,167.1,203.1z"/><path d="M81.2,200.4c-0.1-0.8-0.2-1.7-0.2-2.5c-0.4-6.1-4.8-11.3-10.4-12.5c-4.9-1-9.6,2.5-9.4,7c0.2,2.9,2.3,5,5.1,5 c-0.5-0.6-1.5-1.3-1.6-2c0-1.2,0.2-2.7,0.9-3.5c0.6-0.6,2.5-0.8,3.2-0.3c1,0.7,2,2.3,2,3.5c0.1,2.3-2.2,4-4.8,3.8 c-2.7-0.2-4.7-1.4-5.8-3.9c-1.2-2.8-0.8-5.5,1.1-7.8c2.8-3.3,6.4-4.1,10.4-2.9c6.7,2,10.4,8.5,10.3,15.1c0,0.3-0.3,0.7-0.5,1 C81.5,200.4,81.3,200.4,81.2,200.4z"/><path d="M113.6,174.9c-2.7,1.3-4.4,0.9-5.2-0.8c-0.8-1.6-0.1-3.5,1.6-4.3c1.7-0.9,3.8-0.1,4.8,1.7c1.9,3.4-0.8,7.3-5.1,7.3 c-2.6,0-4.7-1.2-6.1-3.5c-1.4-2.4-1.2-4.9,0.2-7.2c2.3-4,7.5-5.8,12.5-4.3c4.2,1.2,7.9,4.4,8.2,7.8c-0.5-0.7-1.1-1.3-1.6-2 c-3.9-5.2-11-6.6-15.9-3.1c-4,2.9-3.8,8.4,0.5,10.5C109.7,178.1,111.7,177.5,113.6,174.9z"/><path d="M12,34.6c-0.1,2.9-2.6,5.3-5.5,5.2C3.6,39.7,1,37,1.1,34.2c0.1-3,2.7-5.3,5.7-5.3C9.8,29,12.1,31.5,12,34.6z"/><path d="M158.9,244.8c-0.2,0.2-0.4,0.4-0.6,0.5c-2.5,0.2-5,0.3-7.5,0.5c0,0,0,0.1,0,0.1c0.5-0.3,1-0.9,1.5-0.8 c4.1,0.5,7.5-1,9.3-4.1c1.8-3.3,1.5-6.8-1.1-10.1c-0.3-0.3-0.5-0.7-0.8-1c-1.6-1.8-2.4-4-1-6c0.9-1.2,2.6-2.3,4.1-2.6 c2.2-0.4,3.6,0.8,5.1,3.7c0.3-0.6,0.6-1.3,0.9-1.8c1.4-2.2,4-3,6.2-1.9c2.4,1.2,3.3,3.9,2.3,6.8c-0.8,2.2-2,4.5-1.9,6.7 c0.4,6.2,6.1,9.5,11.9,7.2c0.4-0.2,0.9-0.3,1.5-0.5c-1.6,1.9-4.4,2.5-7.2,1.9c-5.7-1.4-8.7-7.7-6.4-13c0.5-1.2,1.2-2.4,1.6-3.6 c0.6-2.1-1.1-4.5-3.3-4.9c-2-0.3-4.3,1.3-4.3,3.4c0,1,0.8,2,1.4,2.8c0.1,0.2,1.1-0.2,1.7-0.4c-0.2-0.9-0.5-1.7-0.7-2.6 c0.1-0.1,0.1-0.3,0.2-0.4c0.6,0.7,1.6,1.4,1.7,2.2c0.1,0.7-0.8,1.9-1.5,2.1c-2,0.7-3.2-0.5-3.7-1.8c-1.3,0.6-2.6,1.4-4,1.8 c-0.4,0.1-1.5-1.1-1.5-1.8c-0.1-0.8,0.7-1.6,1-2.4c0.2,0.1,0.4,0.2,0.6,0.3c0,0.2-0.1,0.4-0.1,0.6c-0.2,0.6-0.4,1.3-0.4,1.9 c0,0.1,1,0.6,1.2,0.4c0.6-0.4,1.6-1.2,1.5-1.6c-0.2-1.2-0.6-2.7-1.5-3.3c-1-0.6-2.7-0.8-3.8-0.4c-2.6,0.9-3,4-1.2,6.6 c1.1,1.6,2.5,3.2,3,5C164.4,238.7,162.6,242.2,158.9,244.8z"/><path d="M77.4,176.8C49.8,165.2,25,149.2,2.6,129.3C25.5,148.4,50.4,164.2,77.4,176.8z"/><path d="M28.9,162.9c-0.3-2.1-0.3-4.2-0.8-6.2c-1.4-6-6.4-10-11.7-9.5c-2.6,0.2-5,2.3-5.5,4.9c-0.4,2.5,0.7,4.3,3.3,5.5 c-0.3-0.7-0.7-1.2-0.7-1.6c0.3-1.3,0.5-3.1,1.3-3.5c1-0.5,3-0.2,3.9,0.5c0.7,0.6,0.9,2.6,0.5,3.7c-0.6,1.8-2.4,2.4-4.2,2.2 c-2.6-0.3-4.6-2.1-5.1-4.4c-1-4.7,3.2-9.1,8.2-8.6c8.6,0.9,12.7,10.3,11.3,16.7C29.4,162.8,29.1,162.8,28.9,162.9z"/><path d="M19.2,128.7c-0.3-2-0.5-3.9-0.9-5.9c-0.6-2.9-1.7-5.5-4.3-7.2c-3.1-2.1-6.7-1.2-8.5,2.5c0.6-0.5,0.8-0.7,1-0.9 c1.9-1.5,3.8-1.5,5.2,0c1.3,1.4,1.2,3.5-0.3,5.1c-1.5,1.6-3.6,1.8-5.3,0.4c-1.7-1.4-2.3-4-1.4-6c1.1-2.3,4.5-4.1,7.1-3.2 c2,0.7,4,2,5.3,3.7c2.5,3.3,2.7,7.3,2.9,11.3C19.7,128.6,19.4,128.6,19.2,128.7z"/><path d="M196.4,200.2c-10.9,3.8-62.3-11.9-69.2-21C148.6,191.8,171.6,198.9,196.4,200.2z"/><path d="M180.1,210c-0.8-0.4-1.7-0.8-2.5-1.1c-3.3-1.3-6.5-2.7-9.8-3.7c-2.6-0.7-5.6,1.1-6.7,3.4c-1.6,3.5,0.5,6.4,4.7,6.1 c-0.4-0.3-0.6-0.4-0.8-0.5c-1.6-0.9-2.2-2.3-1.4-3.9c0.7-1.5,2.2-1.8,3.6-1.2c1.6,0.8,2.4,2.3,1.8,4.1c-0.6,1.9-2.7,3.2-4.9,3 c-2.5-0.2-4.5-2.2-4.8-4.5c-0.4-4,2.7-7.5,7.1-7.7c1.9,0,4,0.3,5.7,0.9c2.9,1.1,5.7,2.6,8.5,3.9C180.5,209.3,180.3,209.6,180.1,210 z"/><path d="M139.2,203.4c-12.7,3.9-52.4-5.3-58.1-13.5C99.2,200.1,118.6,204.4,139.2,203.4z"/><path d="M223.7,204.3c2.7-0.5,5.5-1,8.4-1.5c-6,5.7-42.9,6.1-53.5,0.5c0.8,0,1.2-0.2,1.5-0.1c9.7,2.7,19.6,3.8,29.7,3.2 C214.4,206.1,219.1,205,223.7,204.3C223.7,204.3,223.7,204.3,223.7,204.3z"/><path d="M66.3,132.2c12.5,11.5,26,21.7,40.5,30.5C91.7,154.6,78.2,144.4,66.3,132.2z"/><path d="M112.3,225.5c0.4,0.9,1.1,1.8,1,2.6c-0.1,0.6-1.1,1.6-1.8,1.7c-0.9,0-2.5-0.5-2.7-1.2c-0.4-1.3-0.5-3.1,0.1-4.3 c0.9-1.8,2.8-2.8,5-2.3c3.2,0.6,4.9,4.2,3.4,7.1c-0.5,0.9-1.2,1.8-1.8,2.6c-2.4,3.1-2.8,7-1,10.1c2.1,3.4,5.2,4.5,9.1,4.1 c0.5-0.1,1-0.2,1.6-0.1c-1.8,1.3-3.6,1.2-5.6,0.6c-6.5-1.8-9.1-9.1-5.2-14.5c0.8-1.1,1.6-2.1,2.2-3.2c1-1.9,0.2-4.3-1.7-5.3 c-1.7-0.9-4.1-0.2-5.2,1.5c-0.1,0.1-0.2,0.3-0.2,0.4c0.1,1,0.2,2.1,0.5,3.1c0.1,0.3,1.2,0.2,1.9,0.2c0-0.9,0-1.8,0-2.7 C112,225.8,112.1,225.7,112.3,225.5z"/><path d="M84.3,240.9c-0.1-0.1-0.3-0.2-0.4-0.3c0.6,0,1.2-0.3,1.7-0.1c3.7,1.6,7.1,1.2,10-1.4c2.7-2.5,3.2-6.2,1.6-10.2 c-1.7-4.2-0.8-7.2,2.6-8.3c2-0.7,4.3,0.2,5.5,2.2c1.1,1.8,1.2,3.7-0.4,5.2c-0.7,0.6-2.1,0.8-3.1,0.6c-0.5-0.1-1.3-1.4-1.2-2 c0.1-0.8,1-1.4,1.8-2.4c0.3,0.8,0.4,1,0.3,1.1c-0.4,0.7-0.8,1.4-1.1,2.1c0.5,0.2,1.2,0.7,1.4,0.6c0.7-0.5,1.9-1.4,1.8-1.9 c-0.2-1.3-0.7-3-1.7-3.7c-1-0.7-3.1-0.7-4-0.1c-1.1,0.7-1.6,2.5-2,3.9c-0.2,0.8,0.5,1.8,0.9,2.8c2.5,6.4-0.2,11.7-6.8,13.4 c-0.2,0.1-0.4,0.2-0.6,0.4c0,0,0.1-0.1,0.1-0.1C88.6,241.9,86.5,241.4,84.3,240.9z"/><path d="M53,210.2c0,1,0.3,2.2-0.1,2.9c-0.4,0.6-1.9,1-2.4,0.7c-0.9-0.6-1.8-1.7-2-2.7c-0.3-2.5,2.3-4.6,5.1-4.4 c2.8,0.2,5.1,2.8,4.2,5.4c-0.6,1.8-2.1,3.4-3.6,4.6c-2.9,2.3-4.6,5.1-4,8.9c0.6,3.7,3.2,6.3,6.9,7c0.7,0.1,1.4,0.3,2.6,0.5 c-4.2,0.8-7.7-1.2-9.6-4.9c-1.8-3.7-0.9-8.3,2.2-11c1.2-1,2.5-1.8,3.6-2.9c1.4-1.4,1.5-3,0.5-4.7c-1-1.7-2.6-2.2-4.5-1.7 c-0.7,0.2-1.7,0.7-2,1.3c-0.4,0.9-0.3,2.1-0.2,3.1c0,0.3,1.1,0.4,1.6,0.6c0.3-0.9,0.5-1.7,0.8-2.6C52.5,210.3,52.8,210.2,53,210.2z"/><path d="M222.3,233.3c-0.3,0.2-0.6,0.5-0.8,0.7c-2.4,1.1-4.6,2.7-8.2,1.5c1.4-0.2,2.2-0.3,2.9-0.4c3.6-0.4,6-2.5,7.2-5.9 c1.2-3.6,0.1-6.6-2.6-9.1c-1-1-2.2-1.8-3.1-2.8c-1.7-2.1-1.1-5.5,1.1-7c2.2-1.5,5.7-0.8,6.8,1.6c0.5,1,0.6,2.6,0.2,3.7 c-0.2,0.7-1.6,1.3-2.5,1.5c-0.5,0.1-1.6-0.8-1.7-1.3c-0.2-0.8,0.3-1.8,0.6-3.4c0.5,0.9,0.6,1.1,0.6,1.2c0,0.8,0,1.6,0.1,2.4 c0.5,0,1.4,0.1,1.5-0.1c0.4-0.8,0.9-1.8,0.8-2.6c-0.3-1.9-2.9-3-5-2.3c-2.2,0.7-3.3,3.3-2.2,5.4c0.5,1,1.4,1.8,2.3,2.5 c4.7,3.8,5.5,8.3,2.5,13.4C222.6,232.5,222.5,232.9,222.3,233.3z"/><path d="M288.9,168.2c-2,0.6-1.8,3-2.5,5.1c0-1.5,0-3,0-5.3c-0.7,1.1-1,1.8-1.4,2.5c0.4-3.3,3.7-5.9,8.2-6.3 c-1.4,0.7-2.2,1.1-3.4,1.7c1.9,0.5,3.9,0.5,3.6,2.9c-0.1,0.6-1.2,1.7-1.4,1.6C291,170,290.3,169.2,288.9,168.2z"/><path d="M238.5,163.8c-1.4,4.8,0.1,9.1,1.9,13.4c1.3,3.2,2.6,6.3,3.8,9.5c0.3,0.9,0.3,1.9,0.2,2.9c-2.3-5.8-5.7-10.8-10.2-15 c2.2,2.2,4.4,4.5,6.4,6.5c-1-4.1-2.1-8.2-3-12.4c-0.2-0.9,0-2,0.2-2.9C237.9,165.1,238.3,164.5,238.5,163.8z"/><path d="M182.2,214.2c11.5,2.1,22.8,1.3,34.3-2.2C212.5,216.1,188.1,217.6,182.2,214.2z"/><path d="M69.7,224.7c0.2-0.7,0.5-1.4,0.7-2.1c2.1-0.6,4.1-1.6,6.2-1.7c1-0.1,2.3,1.2,3.1,2.2c0.2,0.3-0.4,1.6-0.9,2.2 c-0.3,0.3-1.6,0-1.8-0.4c-0.3-0.5-0.1-1.4-0.1-2.1c0.3,0,0.5,0,0.8,0c-0.1,0.5-0.1,1.1-0.2,2.3c0.8-0.7,1.5-1.2,1.4-1.4 c-0.2-0.7-0.6-1.6-1.2-1.9c-2.1-1.1-4.5,0.7-4.1,3.1c0.1,1,0.7,2,1,3c-0.4-0.1-0.9-0.2-1.3-0.4C72.1,226.7,70.9,225.7,69.7,224.7z"/><path d="M62.2,130.5c-0.1-3.9,0.4-7.9-3.4-11.2c0.2,0.9,0.2,1.2,0.3,1.5c0.2,1.5-0.3,2.8-1.9,2.8c-1,0-1.9-1.1-2.8-1.7 c0.7-1.1,1.1-2.6,2.1-3.1c1.9-0.9,4.3,0.3,5.1,2.6c0.9,2.9,1.1,6,1.6,8.9C62.8,130.4,62.5,130.5,62.2,130.5z"/><path d="M240,194c-1.5-5.6-5.6-8.9-10.1-12.1c-5.7-4.1-10-9.5-13-16c0.3,0.4,0.7,0.7,0.9,1.1c3.5,6.3,8.3,11.5,14.2,15.7 c1.8,1.3,3.5,2.8,5,4.3C239.1,188.8,240.1,191.2,240,194C240,194,240,194,240,194z"/><path d="M247.1,147.5c-0.2-7.4-0.7-8.1-5-8.2c2.7-1.8,4.9,0.1,6.1,5.7c0.6-0.7,1.2-1.4,1.8-2c1.9-1.8,4-1.5,5,0.8 c1.5,3.6,0.9,7.3-0.5,10.8c0.1-2.4,0.3-4.9,0.4-7.3c0-1-0.2-2-0.5-2.9c-0.7-1.9-2.4-2.4-3.9-1C249.2,144.7,248.2,146.3,247.1,147.5 z"/><path d="M137.3,236c-1.4-0.5-2.9-1.1-4.5-1.7c0.3-0.7,0.6-1.5,0.9-2.3c1-2.1,4.3-3.9,6.2-3.1c0.9,0.4,1.6,1.6,2.1,2.5 c0.1,0.2-0.7,1.2-1.2,1.5c-0.3,0.2-1.2-0.1-1.4-0.5c-0.3-0.5-0.1-1.2,0.4-1.8c0.1,0.5,0.1,1,0.2,1.7c0.4-0.1,0.7-0.1,0.8-0.2 c1-1.4,0.3-2.3-1-2.4c-0.9-0.1-2.3,0.3-2.8,0.9c-0.6,0.7-0.6,2.1-0.5,3.1C136.4,234.5,137,235.2,137.3,236z"/><path d="M282.2,190.5c1.4-4.3,11.3-11.6,16.7-12c-2.8,1.7-6.2,3.4-9.2,5.6C286.8,186.2,284.2,188.8,282.2,190.5z"/><path d="M257.4,162.6c-1.4,1.8-0.5,3.7,0.9,5.7c-2.1-0.6-3.2-2.5-2.8-4.7c0.4-2.2,2.3-4.3,4-3.9c0.8,0.2,1.7,1,2.1,1.7 c0.2,0.4-0.5,1.9-0.9,1.9C259.8,163.4,258.8,163,257.4,162.6z"/><path d="M304.1,170.6c-2,0.7-2.2,2.8-1.8,5.3c-1.5-1.3-1.8-2.7-0.7-4.3c0.9-1.2,2.3-2.2,3.7-2.8c1.4-0.6,2.9,0.1,3.2,1.7 c0.1,0.7-0.9,1.6-1.5,2.4C306.2,172.3,305.4,171.6,304.1,170.6z"/><path d="M266.7,177.1c-1.3,1.6-0.5,3.5,1,5.4c-0.2,0.2-0.4,0.3-0.6,0.5c-0.6-0.8-1.3-1.4-1.7-2.3c-1-2.2-0.2-4.8,1.8-6.1 c1.2-0.8,2.6-1,3.4,0.3c0.4,0.6,0,1.7-0.1,2.6C269.5,177.4,268.4,177.2,266.7,177.1z"/><path d="M278.8,160.2c-1.6,1.7-0.1,3.6,0.6,5.6c-2-1-2.8-2.9-2.2-4.8c0.5-1.5,2-2.7,3.3-3.7c0.3-0.2,1.8,0.7,2.4,1.3 c0.3,0.3-0.3,2-0.5,2C281.4,160.7,280.3,160.4,278.8,160.2z"/><path d="M197.3,228c-1.1,0.4-2.1,0.8-3.3,1.3c0.2-1.7,0.4-2.9,0.6-4.2c1.5-1,2.9-2.3,4.6-2.9c0.7-0.3,2,0.6,2.8,1.3 c0.3,0.3-0.1,1.5-0.4,2.1c-0.1,0.3-1.2,0.4-1.5,0.2c-0.5-0.4-0.7-1.2-1-1.8c0.2-0.1,0.4-0.2,0.6-0.3c0.2,0.4,0.5,0.9,1,1.9 c0.3-0.8,0.8-1.6,0.7-1.7c-0.7-0.5-1.5-1.2-2.2-1.1C196.9,223,196.2,225.1,197.3,228z"/><path d="M224.4,159.9c-0.2-2.3-1.5-2-2.9-1.2c-0.3-1.4-0.6-2.8-0.9-4.3c-0.2,0-0.5,0-0.7,0c-0.5,1.3-0.9,2.6-1.5,4 c-0.6,0.1-1.5,0.2-2.3,0.4c-0.1,0.2-0.1,0.3-0.2,0.5c0.9,0.4,1.9,0.7,3,1.1c0.2,1-0.1,2.9,2.2,2.1c-0.2,0.4-0.4,0.8-0.8,1.5 c-2-1.6-3.9-3.1-5.7-4.6c0-0.3,0-0.6,0-0.8c4,0.3,3.8-3.2,5.4-5.5c1.5,2.3,2.1,5.4,5.8,5.6C225.1,159.3,224.7,159.6,224.4,159.9z"/><path d="M242.6,160.8c0.3,0.3,0.6,0.5,1.2,1.1c0.4-1.1,0.7-2,1-3c0.8-0.2,1.9-0.4,3-0.6c0-0.3,0-0.5,0-0.8c-1-0.1-2-0.2-3-0.3 c-0.2-1.1-0.4-2.5-0.7-3.9c-0.2-0.1-0.5-0.2-0.7-0.3c-0.3,0.5-0.6,1-0.8,1.4c0.2-0.7,0.5-1.5,1-2.9c1,1.8,1.6,2.9,2.1,3.8 c0.7,0,1.4,0,2.8,0c-1,0.6-1.3,0.8-1.8,1c0.8,0.4,1.5,0.8,2.3,1.2c-1.8,1.6-3.5,3.2-5.5,5C243.3,162,242.9,161.4,242.6,160.8z"/><path d="M69.7,224.7c1.2,1,2.4,1.9,3.6,2.9c0.3,0.2,0.8,0.3,1.3,0.4c0.8,0.9,1.6,1.7,2.4,2.6c0,0,0,0,0,0c-2.8-0.2-4.9-1.5-5.9-4.3 c-0.2,0.2-0.4,0.4-0.6,0.6c0.4,0.9,0.7,1.8,1.1,2.8c-0.1,0.1-0.1,0.1-0.2,0.2c-0.3,0-0.6-0.1-0.8-0.1c-0.2-0.3-0.4-0.5-0.6-0.8 c-0.1-1.2-0.3-2.4-0.4-3.5C69.6,225.1,69.6,224.9,69.7,224.7z"/><path d="M244.5,174.2c2.2,4.3,2.3,8.5,1.5,12.8C245.5,182.9,245,178.8,244.5,174.2z"/><path d="M84.5,233.7c-0.2,0.9-0.5,1.9-0.7,2.8c-1-0.4-2.1-0.8-3.1-1.2c0,0,0.1,0,0,0C81.4,233.6,82.5,232.4,84.5,233.7L84.5,233.7z"/><path d="M23.6,211.2c0.1,0.5,0.5,1.1,0.3,1.4c-0.5,0.7-1.1,1.6-1.9,1.8c-0.4,0.1-1.1-1-1.7-1.6c0.6-0.6,1.2-1.3,2-1.8 C22.6,210.8,23.2,211.2,23.6,211.2C23.7,211.3,23.6,211.2,23.6,211.2z"/><path d="M5.6,203.4c-0.2,0-0.3,0.1-0.5,0.1c-0.9,0-1.9,0-2.8-0.2c-0.2-0.1-0.3-1.5,0-1.9c0.3-0.4,1.6-0.8,1.8-0.6 c0.6,0.6,0.8,1.5,1.2,2.3C5.5,203.2,5.5,203.3,5.6,203.4C5.5,203.5,5.6,203.4,5.6,203.4z"/><path d="M129.6,240.4c-1.3,0.9-2,1.8-2.7,1.8c-0.5,0-1.5-1-1.5-1.6c0-0.5,0.9-1.5,1.5-1.6C127.5,238.9,128.3,239.7,129.6,240.4z"/><path d="M65.1,228.6c-1.1,0.9-1.8,1.9-2.3,1.8c-0.7-0.2-1.3-1.1-2-1.6c0.6-0.6,1.1-1.5,1.8-1.6C63.1,227.1,63.8,227.9,65.1,228.6z"/><path d="M208.9,233.1C208.9,233.1,208.9,233.2,208.9,233.1c-0.5-1.1-0.7-2.4,0.9-2.9c0.5-0.2,1.5,0.2,1.9,0.6 c0.3,0.4,0.3,1.8,0.1,1.9C210.8,233,209.8,233,208.9,233.1z"/><path d="M189.5,233.8c0.8,1.1,1.8,1.9,1.7,2.4c-0.2,0.7-1.2,1.2-1.8,1.8c-0.5-0.6-1.4-1.2-1.5-1.8 C187.8,235.5,188.7,234.9,189.5,233.8z"/><path d="M150.7,240.5c-1.1,0.9-1.8,1.9-2.3,1.8c-0.7-0.1-1.3-1.1-1.9-1.7c0.6-0.6,1.1-1.5,1.7-1.6 C148.8,238.9,149.5,239.7,150.7,240.5z"/><path d="M288.8,175.3C288.8,175.3,288.7,175.3,288.8,175.3c2.2-1.4,4.5-2.9,6.7-4.4c0.2,0.2,0.3,0.5,0.5,0.7 c-2.2,1.6-4.5,3.1-6.7,4.7C289.1,175.9,288.9,175.6,288.8,175.3z"/><path d="M212.7,228.2c-0.9,0.6-1.5,1.4-1.9,1.3c-0.5-0.1-1.3-0.9-1.3-1.3c0-0.5,0.8-1.2,1.3-1.3 C211.2,226.8,211.8,227.5,212.7,228.2z"/><path d="M151.5,237.2c-1,0.6-1.6,1.2-2.1,1.2c-0.5-0.1-0.9-0.8-1.4-1.2c0.5-0.4,0.9-1.2,1.4-1.3 C149.9,235.9,150.5,236.5,151.5,237.2z"/><path d="M128.2,236.9c-0.9,0.7-1.4,1.4-1.9,1.4c-0.5,0-1.3-0.8-1.4-1.3c0-0.5,0.7-1.3,1.2-1.4C126.7,235.6,127.3,236.3,128.2,236.9 z"/><path d="M62.8,227.2c-0.6-1-1.2-1.6-1.1-2.1c0.1-0.5,0.9-0.9,1.3-1.3c0.4,0.5,1.1,1,1.1,1.5C64.2,225.8,63.5,226.3,62.8,227.2z"/><path d="M23.7,211.3c0-1.1-0.2-2.5,1.5-2.3c0.4,0,1.1,1.1,1,1.6C25.8,212.3,24.7,211.8,23.7,211.3 C23.6,211.2,23.7,211.3,23.7,211.3z"/><path d="M84.5,233.7c-0.1-0.2-0.3-0.4-0.3-0.6c0-0.8,0.1-1.5,0.2-2.3c0.6,0.2,1.2,0.4,1.8,0.6c-0.4,0.7-0.7,1.4-1.2,2 C85,233.6,84.7,233.6,84.5,233.7C84.5,233.7,84.5,233.7,84.5,233.7z"/><path d="M5.1,200.7c-0.7-0.9-1.4-1.3-1.5-1.9c0-0.4,0.7-1.3,1.1-1.2c0.6,0.1,1.4,0.6,1.5,1.1C6.3,199.1,5.6,199.7,5.1,200.7z"/><path d="M5.8,197.8c-0.5-1.2-1-1.8-0.8-2.1c0.4-0.8,1.1-1.6,1.6-2.3c0.2,0.3,0.6,0.7,0.6,0.9C6.9,195.3,6.5,196.2,5.8,197.8z"/><path d="M321.5,366.7c-2-3.1-1.1-6.1,1.9-6.4c2.1-0.2,3.9,1.2,4,3.3c0.1,2-1.3,3.6-3.4,3.7c-0.6,0-1.3,0-1.9,0 C321.9,367,321.7,366.8,321.5,366.7z"/><path d="M239.7,311.1c0.4-0.2,0.9-0.6,1.3-0.6c1.2,0.1,2.7,0,3.4,0.7c0.6,0.6,0.6,2.4,0.2,3.3c-0.4,0.7-2.1,1.4-2.8,1.1 c-0.9-0.5-1.5-1.8-2.1-2.9C239.5,312.2,239.8,311.5,239.7,311.1C239.8,311,239.7,311.1,239.7,311.1z"/><path d="M221.4,355.2c1.1,2.5,2.3,3,5.8,2.3c-1.7,2.2-3.5,0.5-5.3,0.2c-0.7-1.2-1.7-2.4-2-3.8c-0.2-1.1,0.3-2.5,0.6-3.7 c0.2,1.5,0.3,3,0.5,4.5C221.1,355,221.3,355.1,221.4,355.2z"/><path d="M282.6,375c-2.9,2.7-2,4.5,3.3,6.3c-2.4,0.4-4.1-0.3-5-2.3c-0.9-1.9,0-3.8,3.1-6.2c-0.4,0.9-0.7,1.4-1,2 C282.8,374.9,282.7,375,282.6,375z"/><path d="M291.1,379.4c-0.8,0-1.6,0-2.4,0c-0.1-0.2-0.2-0.4-0.3-0.5c1.2-1.1,2.4-2.2,3.6-3.2c0.1,0.1,0.3,0.3,0.4,0.4 c-0.3,1-0.6,1.9-1,2.9C291.3,379.1,291.2,379.3,291.1,379.4z"/><path d="M270.7,365.7c1.6-0.7,3.1-1.5,4.7-2.2c0.1,0.1,0.2,0.2,0.3,0.4c-1.4,1.2-2.8,2.4-4.4,3.8c-0.5-0.4-1-0.9-1.5-1.3 C270.1,366.1,270.4,365.9,270.7,365.7z"/><path d="M298.4,234.5c0.6,1.8,0.1,3-2,3.1c-0.2-0.2-0.4-0.4-0.6-0.6C295.3,234.7,296.5,234.3,298.4,234.5z"/><path d="M263.8,360.2c-0.6,0-1.2,0-2.2,0c0.8-1.3,1.3-2.3,2-3.2c0.1-0.2,0.7-0.1,1.1-0.1c0,0.4,0.1,0.7,0,1.1 c-0.1,0.6-0.3,1.2-0.4,1.7C264.2,359.9,264,360.1,263.8,360.2z"/><path d="M234.3,350.9c-0.2-0.2-0.4-0.4-0.5-0.5c0.4-0.1,0.7-0.3,1.1-0.4c0.4,0.3,0.8,0.7,1.3,1 C235.5,350.9,234.9,350.9,234.3,350.9z"/><path d="M450.5,180c-26.3,18.1-55.3,26.5-87.2,25.7C394.9,205.7,423.9,196.9,450.5,180z"/><path d="M348.4,193.2c0.2-0.6,0.4-1.2,0.8-2.2c2.1,1.9,1.8,5.8,6,5.2c-0.2,0.3-0.3,0.6-0.5,0.9c-1.1,0.6-2.2,1.2-3.3,1.8 c0.3,0.1,0.5,0.2,0.9,0.3c-0.6,0.4-1.2,0.9-2.4,1.8c16.1-1,30.8-5.1,44.9-11.3c-11.6,8.4-51.1,15.6-63.2,11.4c5.4,0,10.9,0,16.3,0 c0.1-0.2,0.1-0.4,0.2-0.6c-0.8-0.5-1.8-0.8-2.5-1.4c-0.7-0.6-1.1-1.4-1.2-1.6c1.5-1.6,2.7-2.8,3.8-4.1c-0.1,0.9-0.2,1.9-0.3,2.7 c-1,0.2-1.9,0.4-2.7,0.6c0,0.2,0,0.4,0,0.6c0.9,0.3,1.9,0.6,2.7,0.9c0.4,0.9,0.7,1.8,1.1,2.7c0.2,0,0.4,0,0.6,0 c0.3-1,0.5-2,0.7-2.7c1.2-0.4,2.2-0.7,3.3-1c-0.1-0.3-0.1-0.5-0.2-0.8c-1,0-2,0-2.8,0c-0.3-1.3-0.6-2.7-1-4.4 C348.9,192.6,348.6,192.9,348.4,193.2z"/><path d="M422.3,177.7c20.9,0,39.5-6.6,56.4-19.2C472.1,168.5,435.1,181.1,422.3,177.7z"/><path d="M483,108.6c-9.3,14.2-20.8,26.3-35.1,35.6C461.2,133.9,473.2,122.3,483,108.6z"/><path d="M407.7,171.9c-9.5,8.2-20.4,13.4-32.9,15C386.6,183.6,397.7,179,407.7,171.9z"/><path d="M324.7,206.7c10.5,3.1,21.3,3.8,32.2,3.3C345.8,211.8,335.1,210.5,324.7,206.7z"/><path d="M429.3,200.1c-8.6,6.3-18.3,9.9-28.8,11.3C410.7,209.2,420.3,205.5,429.3,200.1z"/><path d="M321.1,216.8c0.9,0.7,1.8,1.3,3.1,2.3c0.1,0.3,0.4,1.2,0.7,2.1c0.2,0,0.4,0,0.6,0c0.3-0.9,0.6-1.8,1-2.9 c0.8-0.2,1.9-0.4,3-0.6c0-0.3,0-0.6,0-0.9c-1-0.1-1.9-0.2-2.5-0.3c-0.7-1.3-1.3-2.6-2-3.9c0-0.3,0-0.6,0-1.5 c2.1,2.2,2.3,5.7,5.8,5.6c0,0.2,0,0.4,0,0.6c-1.1,0.6-2.2,1.2-3.4,1.9c0.4,0.1,0.9,0.2,1,0.2c-0.9,0.7-1.9,1.6-3,2.5 c-1.3-0.9-2.8-2-4.2-3.1C320.2,218,320.2,217.5,321.1,216.8z"/><path d="M478.3,166c1.1,0,2.1,0,2.9,0c0.4,1.1,0.7,2.1,0.9,3c0.2,0,0.4,0,0.7,0c0.3-0.9,0.5-1.9,0.8-2.8c0.9-0.2,2-0.4,3-0.6 c0-0.3,0-0.5,0-0.8c-0.9-0.1-1.9-0.2-2.8-0.4c-0.2-0.8-0.3-1.9-0.6-2.9c-0.1-0.2-1-0.1-1.5-0.1c0.2-0.6,0.4-1.3,0.6-1.8 c1.7,2,3.3,3.8,5,5.8c-1.3,1.2-3,2.8-4.8,4.6C481.2,168.7,479.7,167.3,478.3,166z"/><path d="M360.9,220.4c-7.4,2.5-14.7,2.3-21.9-0.5C346.3,221.7,353.6,221.9,360.9,220.4z"/><path d="M451.7,159.3c1,0.4,2,0.8,3.2,1.2c0.2,0.7,0.5,1.6,0.8,2.5c0.2,0,0.4,0,0.6,0c0.3-0.9,0.6-1.8,1-2.8 c0.9-0.2,2.1-0.4,3.3-0.7c-1.5,1.4-3,2.9-4.4,4.2c-1.2-0.8-2.6-1.6-3.8-2.6C451.9,160.8,451.9,160,451.7,159.3z"/><path d="M411.2,188.5c0.7-0.7,1.3-1.5,2-2.2c-0.1-0.1-0.3-0.2-0.4-0.3c1.1-0.3,2.2-0.6,3.3-0.9c0-0.3,0-0.5-0.1-0.8 c-1-0.1-2.1-0.2-3-0.3c-0.2-1.3-0.5-2.9-0.7-4.4c1.3,1.9,1.9,4.6,5.1,4.6c0,0.2-0.1,0.4-0.1,0.6c-1.1,0.6-2.2,1.2-3.4,1.9 c0.3,0.1,0.7,0.2,0.9,0.2c-0.9,0.8-1.9,1.7-2.9,2.6C411.6,189.2,411.4,188.8,411.2,188.5z"/><path d="M418.1,159.6c1,0,1.9,0,2.8,0c0.3,1,0.6,2,1,2.9c0.2,0,0.4,0,0.6,0c0.3-0.9,0.6-1.7,1-2.8c0.7,0,1.6-0.1,2.6-0.1 c-1.2,1.3-2.4,2.5-3.5,3.7c-1.4-0.8-2.9-1.7-4.3-2.6C418.1,160.5,418.2,160,418.1,159.6z"/><path d="M460.5,159.6c-1-0.5-2-1-3.3-1.7c-0.1-0.6-0.4-2-0.7-4c-0.9,1.4-1.4,2.2-1.9,3c0.3-1.1,0.7-2.2,1.1-3.6 c1.4,1.4,2.6,2.6,4,4.1c0.1,0.1,0.3,0.6,0.7,0.8C461.3,158.9,461.3,158.9,460.5,159.6z"/><path d="M437.4,200c0,0.6,0.1,1.1,0.2,1.8c-0.8,0.1-1.7,0.3-2.6,0.5c0,0.2-0.1,0.4-0.1,0.6c0.9,0.3,1.9,0.7,2.8,1 c0.2,0.8,0.5,1.7,0.8,2.7c-1.6-1.2-3.2-2.3-4.9-3.6C435.1,201.7,436.2,200.8,437.4,200z"/><path d="M443.6,202c-1.2-0.1-2.4-0.1-3.5-0.2c-0.2-1.1-0.4-2.4-0.7-4.4c-0.9,1.2-1.5,2-2,2.7c0.4-1.1,0.8-2.2,1.4-3.7 C440.4,198.7,440.9,201.3,443.6,202z"/><path d="M310.9,206.9c-1.1,0-2.2,0-3.3,0c-0.3-1.4-0.6-3.1-0.9-4.7c1,0.9,2,1.8,3,2.8c0.1,0.1,0.1,0.5,0.1,1.1 C309.9,206.2,310.4,206.6,310.9,206.9z"/><path d="M426,159.6c0-0.5,0.1-0.9,0.1-1.4c-0.8-0.1-1.6-0.1-2.2-0.1c-0.6-1.3-1.2-2.7-1.9-4.1c0.1-0.3,0.2-0.6,0.2-0.8 c0.3,0.3,0.8,0.6,1,1c0.6,2.3,2,3.7,4.4,4.6C427.1,159,426.6,159.3,426,159.6z"/><path d="M378.5,210.4c-0.8,1.3-1.6,2.6-2.5,3.9c0.2,0.1,0.3,0.2,0.5,0.4c-0.8,0.1-1.6,0.2-2.5,0.4c0.1,0.7,0.2,1.2,0.3,1.8 c-0.5-0.5-1.1-0.9-1.6-1.4c3.2-0.3,3.7-2.6,4.5-4.7C377.4,210.1,377.7,209.1,378.5,210.4z"/><path d="M417.1,235.1c-2.5,1.8-4.6,1.9-7.4,0C412.3,235.1,414.8,235.1,417.1,235.1z"/><path d="M233,285.7c-3,6.8-23.1,29.3-29.7,33c5.3-5.4,10.7-10.6,15.7-16.1C223.9,297.2,228.4,291.3,233,285.7z"/><path d="M219,297.2c-1.6,1.8-3.1,3.7-4.7,5.5c-0.2-0.1-0.3-0.2-0.5-0.3c0.4-0.6,0.7-1.2,1.1-1.7c-0.2-0.2-0.4-0.4-0.6-0.5 c-0.3,0.6-0.6,1.2-0.9,1.9c-1.8-1.6-3.3-2.9-4.8-4.3c1.1,0.1,2.2,0.2,3.1,0.3c0.3,0.9,0.6,1.9,0.9,2.8c0.2,0,0.5,0,0.7,0 c0.2-1,0.5-1.9,0.7-2.7c1.1-0.3,2.2-0.5,3.3-0.7c0-0.3,0-0.5-0.1-0.8c-1-0.1-2-0.1-3.1-0.2c-0.1-0.8,0-1.7-0.3-2.5 c-0.2-0.5-1-0.7-1.6-1c0.2-0.5,0.4-1,0.5-1.4c1.4,1.3,2.6,2.5,3.8,3.7c0.1-0.1-0.2,0.1-0.4,0.3C217.2,295.9,218,296.5,219,297.2 L219,297.2z"/><path d="M218.9,297.1c2-3.2,4.2-6.2,6-9.5c4.4-8.1,6.4-16.8,6-26c0-0.8,0-1.5,0-2.3c0.3,0,0.5,0,0.8,0c-0.2,3.6-0.1,7.3-0.5,10.8 c-1.3,9.6-4.9,18.3-10.9,25.9C219.9,296.5,219.4,296.8,218.9,297.1C219,297.2,218.9,297.1,218.9,297.1z"/><path d="M223.4,319.3c0.6-6.8,9-22.8,13.8-26.5c-2.5,4.1-5.5,8.2-7.8,12.6C227.1,309.8,225.4,314.6,223.4,319.3z"/><path d="M190.3,318.6c-0.1-0.7-0.1-1.4-0.2-2.2c1.1-0.2,2.3-0.5,3.5-0.8c0-0.3,0-0.5,0-0.8c-1-0.1-1.9-0.3-3-0.5 c-0.2-0.9-0.4-2.3-0.7-3.6c-0.3,0-0.5-0.1-0.8-0.1c-0.5,1.2-0.9,2.5-1.5,3.9c-0.6,0.1-1.7,0.3-2.7,0.4c2.9-0.7,2.9-3.6,4.2-5.4 c1.3,1.3,2.6,2.6,3.7,3.7c0.2,0-0.3,0.1-0.9,0.2c1,0.5,1.8,0.9,3.2,1.6c-1.4,0.8-2.5,1.4-3.7,2c0.2,0.1,0.6,0.2,1.1,0.4 C191.8,317.9,191.1,318.3,190.3,318.6z"/><path d="M250.6,251.7c1.1,4,2.3,7.9,3.4,11.9c0.1,0.1,0.2,0.1,0.3,0.2c0.3-3.8,0.5-7.6,0.8-11.6c1,4.9,0.4,9.4-1.5,14.2 C252.6,261.1,251.6,256.4,250.6,251.7C250.7,251.6,250.6,251.7,250.6,251.7z"/><path d="M238.1,276.4c-0.8-0.4-1.7-0.8-2.5-1.2c-0.1-0.3-0.1-0.7-0.2-1c4.1,0.3,3.9-3.2,5.7-5.6c0.7,1.3,1.3,2.3,1.5,2.7 c1,0.4,1.6,0.7,2.2,0.9c-1.5,1.7,0.9,1.1,1.1,1.7c0.1,0.3-0.2,0.6-0.2,0.9c0,0,0,0,0,0c-1.1-0.5-2.2-0.9-3.3-1.4 c-0.2-0.9-0.5-2.2-0.8-3.6c-0.2,0-0.5,0-0.7,0c-0.5,1.2-0.9,2.5-1.4,3.7c-0.1-0.1-0.1-0.2-0.2-0.3c-0.6,0.6-1.3,1.2-1.9,1.9 C237.5,275.6,237.8,276,238.1,276.4z"/><path d="M238.1,276.4c-0.3-0.4-0.6-0.8-0.9-1.1c0.9,0.1,1.7,0.3,2.5,0.4c0.3,0.9,0.6,1.8,0.9,2.7c0.2,0,0.5,0,0.7,0 c0.3-0.9,0.5-1.8,0.8-2.8c1-0.2,2.2-0.4,3.5-0.6c0,0,0,0,0,0c-1.5,1.4-3,2.9-4.7,4.5C240,278.5,239.1,277.4,238.1,276.4z"/><path d="M206,329.6c0.6-0.1,1.2-0.2,1.7-0.3c0.3,1,0.6,1.9,0.9,2.8c0.2,0,0.5,0,0.7,0c0.3-1,0.5-1.9,0.8-2.9 c0.9-0.1,1.9-0.1,2.9-0.2c-1.3,1.3-2.6,2.6-4.2,4.2C208,332.1,207,330.9,206,329.6z"/><path d="M213.3,327.7c-1,0-2,0-3.2,0c-0.5-1,0.9-3.2-1.6-3.7c0.1-0.4,0.1-0.8,0.2-1.4c1.3,1.5,2.5,2.8,3.7,4.1c0.3-0.2,0,0-0.3,0.2 C212.6,327.2,213,327.5,213.3,327.7z"/><path d="M208.1,324.5c-0.1,1-0.3,2-0.5,3.2c-0.7,0.6-3.2-0.7-2.4,2c-0.2,0.2-0.3,0.3-0.5,0.5c-0.3-0.6-0.5-1.3-0.9-2.2 C206.4,327.9,207.4,326.4,208.1,324.5z"/><path d="M287.8,243.1c0.9,0.6,2,0.9,2.6,1.7c7.5,9.6,12.3,20.4,14.7,32.3c2.5,12.3,2.2,24.4-1.4,36.5c-0.5,1.7-1.2,3.3-2.2,4.8 C309.3,291,305.7,265.7,287.8,243.1C287.8,243,287.8,243.1,287.8,243.1z"/><path d="M283.4,247.7c6.4,1.1,19.5,25.9,18.4,34.7C298.5,269.4,292.7,257.6,283.4,247.7z"/><path d="M285,266.8c6.7,10.6,8.4,30,3,40.8C291.4,293.7,290.9,280,285,266.8z"/><path d="M305.9,259.2c-2.2-7.9-6.1-14.6-13.3-19.9C298.4,239.7,306.5,252.3,305.9,259.2z"/><path d="M307.5,312.7c2.4-0.5,3.3,0.7,3.6,2.5c0.3,2.3-2.2,5.3-4.5,5.6c-1.6,0.2-2.9-0.4-3.1-2c-0.1-0.8,0.8-2.3,1.4-2.4 c1,0,2,0.8,3.2,1.4C310.1,316.1,310.1,315.7,307.5,312.7z"/><path d="M283.9,290.2c1.7-2.5-0.5-3.9-2.5-5.4c1.9-0.3,3.3,0.2,3.6,1.9c0.3,1.5,0.2,3.5-0.6,4.7c-0.6,0.9-2.5,1.3-3.8,1.4 c-0.5,0-1.3-1.5-1.4-2.4c0-0.5,1.1-1.6,1.7-1.6C281.9,288.8,282.7,289.6,283.9,290.2z"/><path d="M321.3,299c1.9-2.7-0.1-4.7-1-7c1.9,1,2.9,2.8,2.9,4.7c0,1.3-0.9,2.9-2,3.8c-1.1,1-3,1-3.8-0.5c-0.4-0.7,0.1-2.4,0.7-2.8 C319.9,296,320.6,297.7,321.3,299z"/><path d="M289.3,241c0.4,0,0.9-0.2,1.2,0c4.8,3.2,8.7,7.2,9.9,13.2c-0.4-0.5-0.7-1.1-1.2-1.6c-3-3.4-6-6.8-9-10.3 C289.9,241.9,289.7,241.4,289.3,241C289.4,240.9,289.3,241,289.3,241z"/><path d="M312.8,274.9c1.5-2.3,1.2-3.3-2.2-5.5c0.1-0.2,0.3-0.4,0.4-0.6c1,0.7,2.2,1.2,2.9,2.2c1.2,1.5,1.1,3.4-0.2,4.7 c-0.8,0.8-2.2,1.4-3.3,1.5c-0.6,0-1.5-1.3-1.8-2.2c-0.1-0.4,1.1-1.8,1.5-1.7C311,273.5,311.8,274.3,312.8,274.9z"/><path d="M278.2,254.1c3.6-0.2,5.8,2.7,4.8,6.1c-0.4,1.5-1.4,2.7-3,2.2c-0.7-0.2-1-1.6-1.5-2.4c1-0.5,2-1,3.4-1.7 C282,256.3,280.5,255,278.2,254.1z"/><path d="M264.9,299.8c-0.1-1.3-0.2-2.9-0.3-4.5c2.4,1.3,2.3,5.1-0.1,6.7c-1.3,0.8-2.8,1.1-3.6-0.5c-0.3-0.6,0.2-1.7,0.3-2.6 C262.2,299.3,263.3,299.5,264.9,299.8z"/><path d="M277.6,259.6c0.9,7,0.1,15.9-1.7,23.3C276.4,275.4,277.1,266.5,277.6,259.6z"/><path d="M261,251.3c0.9,1.5,1.8,2.3,1.7,3.1c-0.1,0.7-1.2,1.4-1.8,2c-0.7-0.7-1.7-1.4-1.9-2.2C258.9,253.5,260,252.7,261,251.3z"/><path d="M280.7,238.5c5.2-5.1,7.8-11,5.8-18.8c2.2,1.9,2.6,6.3,1.3,10.5C286.7,233.9,284.8,237.1,280.7,238.5z"/><path d="M275.2,224.9c0.8-7.8,1.1-15.6-1.5-23.4C277.2,204,278.1,218.3,275.2,224.9z"/><path d="M284.7,216.9c-0.3-0.4-0.6-0.8-1-1.2c-0.4-0.4-0.9-0.7-1.4-1.1c0.1-0.2,0.3-0.3,0.4-0.5c0.7,0.1,1.4,0.2,2.2,0.3 c-0.2-5-1.9-9.4-4.2-13.6c3.9,3.6,5.8,12,4.5,20.2C285,219.3,284.8,218.1,284.7,216.9C284.6,216.8,284.7,216.9,284.7,216.9z"/><path d="M268.3,206.6c-0.4-5.4-2.4-10-7.1-13.8C266.1,193.9,269.5,200.7,268.3,206.6z"/><path d="M261.8,242.5c2.6-3.6,5.3-7.5,7.8-11C268.2,235.8,265.4,239.6,261.8,242.5z"/><path d="M260.7,200c-0.3,0.2-0.6,0.5-0.9,0.7c0.9,0.8,1.8,1.5,2.3,1.9c1.2-0.6,2.2-1.1,3.2-1.6c-0.9,1-1.9,2-2.8,3.1 c-1.3-1-2.4-2-4-3.3C259.5,200.4,260.1,200.2,260.7,200z"/><path d="M284.6,216.8c-0.9,0.9-1.8,1.8-2.8,2.7c-1.2-1.1-2.5-2.1-3.7-3.2c0.2-0.2,0.3-0.4,0.5-0.5c1.1,0.9,2.2,1.7,2.9,2.3 C282.5,217.7,283.6,217.3,284.6,216.8C284.7,216.9,284.6,216.8,284.6,216.8z"/><path d="M287.6,355.6c2.6-2,2.6-2.2-0.2-7.3c1.6,0.2,2.8,1.2,3.3,2.8c0.5,1.8,0.4,3.8-1.3,4.9c-1.3,0.8-3,1.1-4.5,1.1 c-0.4,0-1.3-1.6-1.2-2.5c0-0.6,1.2-1.6,2-1.6c0.6,0,1.2,1,1.8,1.7C287.7,354.8,287.6,355.2,287.6,355.6z"/><path d="M256,333c0.5-2.2-0.1-3.1-3.4-4.6c0.1-0.2,0.2-0.4,0.3-0.6c1.1,0.6,2.6,1,3.1,1.9c0.7,1.3,1,3.1,0.7,4.5 c-0.2,1-1.8,2.1-2.8,2.2c-0.9,0-2.1-1.2-2.7-2.2c-0.3-0.4,0.7-2.3,1.1-2.3C253.5,332,254.7,332.6,256,333z"/><path d="M306.1,364.6c2-1.7,0.4-3.6-1-5.6c2.4,0.7,3.4,2.3,3.1,4.5c-0.3,1.8-2.3,3.8-3.9,3.4c-1-0.2-1.9-1.3-2.4-2.2 c-0.2-0.3,1.1-2,1.3-2C304.1,363.1,304.9,363.8,306.1,364.6z"/><path d="M240,335.3c-0.4-1.3-1-2.8-1.5-4.3c1.5,0.2,3,1.6,2.8,3.5c-0.2,1.2-1.1,2.8-2.1,3.4c-0.6,0.4-2.2-0.5-3.2-1.2 c-0.3-0.2,0.3-1.5,0.4-2.3C237.5,334.6,238.5,334.9,240,335.3z"/><path d="M291.3,370.8c0.4-2.9-0.7-4-3.3-3.7c-0.7,0.1-1.3,0.7-1.9,1.2c-0.1,0.1,0.4,1,0.4,1c0.7-0.2,1.4-0.5,2.4-0.4 c-0.6,0.4-1.1,1.1-1.7,1.2c-0.6,0.1-1.7-0.4-1.8-0.8c-0.2-0.6,0.2-1.7,0.7-2.1c1.7-1.4,3.6-1.1,5.2,0.1 C292.4,368.1,292.4,369.3,291.3,370.8z"/><path d="M278.9,369.3c0.5-1.1,0.9-2.1,1.4-3.2c0.2,0.1,0.4,0.2,0.6,0.3c-0.4,0.7-0.9,1.5-1.3,2.2c0.3,0.2,0.7,0.3,1,0.5 c0.5-1.2,1.3-2.4,1.5-3.6c0.1-0.7-0.9-1.5-1.4-2.3c1.3-0.5,1.9,0.5,2.2,1.8C283.3,366.8,281.7,369.1,278.9,369.3z"/><path d="M305.3,392.7c4.3,1.4,5,0.6,4-3.9c1.3,1.8,1.4,3.9,0.4,5C308.8,394.7,307.7,394.5,305.3,392.7z"/><path d="M263.6,350.3c1.1-1.9,0.9-3.5-1-4.4c-0.5-0.2-1.5,0.8-2.3,1.2c0.3-0.5,0.7-1.9,1.2-1.9c0.9-0.1,2.1,0.5,2.6,1.2 C265.1,347.6,265.2,349.1,263.6,350.3z"/><path d="M249,216.3c1.8,0.1,3,1.2,2.8,2.8c-0.1,1.3-1,2.6-1.9,3.6c-0.3,0.4-1.7-0.2-2.6-0.3c0.1-0.6,0.2-1.1,0.3-1.7 c0.8,0.2,1.5,0.4,2.4,0.6C251.8,219.5,251.6,218.5,249,216.3z"/><path d="M245.6,204.4c0.2-1,0.4-2,0.6-3.1c0.1,0,0.3,0,0.4,0c-0.1,1,0.1,2.1-0.3,2.9c-0.3,0.6-1.5,1.2-2.2,1.1 c-0.7-0.2-1.3-1.2-1.7-1.9c-0.1-0.1,0.9-0.8,1.4-1.3C244.4,202.7,244.8,203.3,245.6,204.4z"/><path d="M255.2,208c0.6-2.5-1.2-3-3.1-3.6c2.7-0.5,4.6,1.3,3.9,3.5c-0.2,0.6-0.9,1.4-1.4,1.4c-0.7,0.1-1.4-0.5-2-0.9 c-0.1-0.1,0.4-0.9,0.6-1.4C253.8,207.3,254.3,207.6,255.2,208z"/><path d="M236.6,212.1c1.7-1.8,1.6-2.4-0.7-4.9c0.2-0.1,0.4-0.3,0.6-0.4c0.7,1,1.9,1.9,1.9,3c0.1,1.1-0.9,2.2-1.5,3.3 c-0.1,0.2-0.7,0.4-0.9,0.3c-0.6-0.4-1.2-1-1.7-1.6c-0.1-0.1,0.4-0.8,0.6-1.1C235.5,211,236.1,211.6,236.6,212.1z"/><path d="M241.2,223.2c1.3-1.5-0.3-2.4-1.4-3.5c0.2-0.2,0.3-0.3,0.5-0.5c0.6,0.7,1.6,1.4,1.8,2.2c0.2,0.9-0.2,2.1-0.8,2.8 c-0.4,0.4-1.6,0.1-2.5,0.2c0-0.7,0-1.3-0.1-2C239.6,222.7,240.3,222.9,241.2,223.2z"/><path d="M243.6,235.5c0.6,0,1.2,0.1,2,0.2c0.1-0.9,0.2-1.6,0.3-2.4c0.2,0,0.5,0,0.7,0.1c-0.2,1-0.2,2.1-0.6,3 c-0.2,0.4-1,0.6-1.6,0.9C244.1,236.6,243.9,236,243.6,235.5C243.6,235.4,243.6,235.5,243.6,235.5z"/><path d="M322.4,378.5c0,2-1.5,3.5-3.6,3.5c-2,0-3.3-1.3-3.4-3.4c-0.1-2.2,1.2-3.6,3.3-3.6C320.9,374.9,322.4,376.4,322.4,378.5z"/><path d="M233.1,349.5c-0.6,0-1.2-0.1-1.7-0.1c0.8-3.2,3.1-4.6,5.3-3.4c-2.6-0.2-3.2,0.6-2.3,3.4c-0.1,0-0.3,0-0.4,0 C233.6,349.4,233.3,349.5,233.1,349.5z"/><path d="M227.6,348c0.6,1.6,1.3,3.3,1.7,5c0.1,0.4-0.6,1.1-1,1.7c-0.3-0.3-0.9-0.6-0.9-0.9c-0.2-1.9-0.2-3.7-0.3-5.6 C227.3,348.1,227.4,348,227.6,348z"/><path d="M224.9,354.2c0.3-0.8,1.1-2,0.8-2.2c-0.7-0.7-1.9-1.1-2.9-1.9c1,0.3,2.4,0.3,3,1c0.5,0.5,0.2,2-0.2,2.8 c-0.2,0.4-1.5,0.8-2,0.6c-0.5-0.2-0.6-1.3-0.9-2c0.2-0.1,0.4-0.2,0.6-0.3c0.2,0.6,0.4,1.2,0.6,1.8 C224.4,354.1,224.7,354.2,224.9,354.2z"/><path d="M239.8,353.5c0-1.8,1.2-3.7,2.8-3.9C241.2,350.5,243.4,354,239.8,353.5C239.7,353.4,239.8,353.5,239.8,353.5z"/><path d="M53.5,100.4c-2.5,0-4.2-1.9-4.1-4.5c0.1-2.4,2-4.2,4.2-4.2c2.3,0,4.1,1.9,4.1,4.3C57.7,98.7,56,100.5,53.5,100.4z"/><path d="M26.3,55.8c0,2.9-2,5.1-4.8,5.1c-2.8,0-5.1-2.3-5-5.2c0.1-2.8,2.3-5.1,5-5C24.3,50.7,26.3,52.9,26.3,55.8z"/><path d="M36.3,71.2c2.6,0,4.6,2.1,4.6,4.7c0,2.6-2.2,4.8-4.7,4.7c-2.4-0.1-4.4-2.2-4.5-4.7C31.6,73.4,33.7,71.2,36.3,71.2z"/><path d="M70.6,118.7c-2.2,0.1-3.8-1.5-3.9-3.8c-0.1-2.3,1.4-4,3.6-4.1c2.4-0.1,4,1.5,4.1,3.9C74.3,116.9,72.7,118.6,70.6,118.7z"/><path d="M89.3,136c-2.2,0-3.5-1.3-3.5-3.5c0-2.1,1.2-3.5,3.2-3.5c2.1-0.1,3.6,1.3,3.7,3.4C92.8,134.4,91.4,136,89.3,136z"/><path d="M112,148.2c-0.1,1.5-1.1,2.6-3,2.7c-1.8,0.1-3.3-1.4-3.2-3.2c0.1-1.9,1.2-3,3.1-3.2C110.6,144.3,112,145.9,112,148.2z"/><path d="M135.4,163.3c-0.1,1.6-0.8,2.7-2.7,2.8c-1.8,0.1-2.8-1-2.8-2.7c0-1.6,0.8-2.8,2.6-2.9C134.4,160.5,135.2,161.6,135.4,163.3 z"/><path d="M332.9,341.7c0,2.1-1.5,3.6-3.6,3.5c-1.9-0.1-3.3-1.5-3.3-3.5c0-2.1,1.4-3.6,3.5-3.6C331.5,338,332.9,339.5,332.9,341.7z"/><path d="M333.1,324c-2,0-3.6-1.5-3.6-3.5c0-2,1.6-3.6,3.5-3.6c2,0,3.3,1.3,3.4,3.4C336.5,322.4,335.1,323.9,333.1,324z"/><path d="M336.3,296.5c0,2.1-1.5,3.6-3.5,3.6c-1.8-0.1-3.3-1.6-3.4-3.5c0-2.1,1.5-3.7,3.4-3.7C334.8,292.7,336.3,294.4,336.3,296.5z"/><path d="M277.9,323c1.8,0,3.5,1.7,3.6,3.4c0.1,1.8-1.6,3.3-3.5,3.3c-2,0-3.3-1.4-3.3-3.4C274.7,324.4,276.1,323,277.9,323z"/><path d="M330.4,274.5c0,0.4,0,0.8,0,1.2c0.2,1.7-0.3,3.3-2.1,3.5c-1.1,0.1-3.1-0.6-3.4-1.4c-0.4-1.2-0.1-3.1,0.7-4.1 c1.1-1.3,2.8-1,4.1,0.3C329.9,274.2,330.2,274.4,330.4,274.5C330.5,274.6,330.4,274.5,330.4,274.5z"/><path d="M318.4,348.7c-0.1,2.8-1.7,4.7-3.3,4.5c-1.7-0.2-2.6-1.1-2.5-2.9c0.1-1.8,2-4.2,3.4-3.7 C317.1,346.9,317.9,348.2,318.4,348.7z"/><path d="M155.7,174.9c-0.9,0.7-1.9,1.8-2.8,1.8c-0.8,0-2.3-1.4-2.3-2c0.1-1,1.2-2.4,2.1-2.6c0.8-0.2,1.9,1.1,2.9,1.7 C155.7,174.2,155.7,174.6,155.7,174.9z"/><path d="M265.5,321.7c-0.8,0.5-1.8,1.8-3,1.8c-1.7,0.1-2.7-1.3-2.7-3.1c0.1-1.7,1.1-2.6,2.7-2.5C264.3,318,265.3,319.1,265.5,321.7 z"/><path d="M266.8,269c-0.5,2.3-1.4,3.4-3.1,3.4c-1.8,0-2.7-1.2-2.7-2.8c0-1.7,1.1-3,2.7-2.8C264.8,266.9,265.8,268.2,266.8,269z"/><path d="M224.9,332.2c1.6,0.1,2.8,1.1,2.9,3c0.1,2-1.1,3.3-3,3.4c-1.9,0-3.3-1.3-3.3-3.2C221.6,333.7,223,332.2,224.9,332.2z"/><path d="M304.8,341.7c-0.4,2.2-2.2,4.4-3.5,3.9c-1-0.4-2.1-1.7-2.2-2.6c-0.1-1.7,1-3.3,2.9-3.2C303,339.9,303.9,341.1,304.8,341.7z"/><path d="M263.7,285.8c-0.2,1.7-1,3-2.9,3.2c-1.8,0.2-3.3-1.2-3.3-3.1c0-1.9,1.4-3.5,3.1-3.3C262.4,282.7,263.4,283.8,263.7,285.8z"/><path d="M249.4,299.8c1.3-0.4,2.7-1.1,3.9-1c0.6,0.1,1.4,2,1.3,2.9c-0.2,0.9-1.5,2-2.4,2.1c-0.9,0-2-1-2.7-1.8 C249.1,301.6,249.4,300.5,249.4,299.8C249.4,299.8,249.4,299.8,249.4,299.8z"/><path d="M230.7,320.9c0.6-0.4,1.2-1.1,1.8-1.1c1.2,0,2.9,0,3.5,0.7c0.7,0.9,0.9,2.7,0.4,3.7c-0.4,0.8-2.2,1.5-3.2,1.3 c-0.9-0.2-1.7-1.6-2.3-2.6C230.5,322.4,230.8,321.5,230.7,320.9C230.8,320.8,230.7,320.9,230.7,320.9z"/><path d="M172.7,181.9c-1.3,1-2,2-2.6,2c-0.7,0-1.7-1-1.7-1.7c0-0.6,0.9-1.7,1.6-1.8C170.5,180.2,171.3,181.1,172.7,181.9z"/><path d="M245.9,320c0.3-0.3,0.6-0.7,0.9-0.7c1-0.1,2.2-0.3,3,0.1c0.5,0.2,0.9,1.7,0.6,2.2c-0.5,0.7-1.6,1.6-2.3,1.5 c-0.7-0.1-1.4-1.2-2-1.9C245.9,320.8,246,320.3,245.9,320C246,319.9,245.9,320,245.9,320z"/><path d="M187.9,186.2c-0.1,1.1,0,2.2-0.3,3.3c0,0.2-1.6,0.3-1.9,0c-0.5-0.6-0.9-2.1-0.7-2.2C185.9,186.8,187,186.6,187.9,186.2 C188,186.3,187.9,186.2,187.9,186.2z"/><path d="M233.9,349.4c0,0.3-0.1,0.7-0.1,1c-0.2-0.3-0.5-0.6-0.7-0.9C233.3,349.5,233.6,349.4,233.9,349.4z"/></g></svg>